<svg width="93" height="93" viewBox="0 0 93 93" fill="none" xmlns="http://www.w3.org/2000/svg">
<circle cx="46.5" cy="46.5" r="46.5" fill="#412680"/>
<path d="M27.6544 50.5781H32.8419C32.8419 51.7969 33.1752 52.75 33.8419 53.4375C34.519 54.1146 35.3679 54.4531 36.3888 54.4531C37.2638 54.4531 37.9773 54.2135 38.5294 53.7344C39.0815 53.2552 39.3575 52.6198 39.3575 51.8281C39.3575 51.3802 39.269 51 39.0919 50.6875C38.9148 50.375 38.67 50.1042 38.3575 49.875C38.045 49.6354 37.6752 49.4271 37.2481 49.25C36.821 49.0625 36.3627 48.875 35.8731 48.6875C34.8731 48.3229 33.92 47.9479 33.0138 47.5625C32.1075 47.1771 31.3002 46.7188 30.5919 46.1875C29.894 45.6562 29.3367 45.0208 28.92 44.2812C28.5033 43.5312 28.295 42.6094 28.295 41.5156C28.295 40.4115 28.5138 39.4479 28.9513 38.625C29.3888 37.8021 29.9669 37.125 30.6856 36.5938C31.4148 36.0625 32.2585 35.6719 33.2169 35.4219C34.1752 35.1615 35.17 35.0312 36.2013 35.0312C37.5033 35.0312 38.6492 35.224 39.6388 35.6094C40.6283 35.9844 41.4565 36.5052 42.1231 37.1719C42.8002 37.8281 43.3054 38.5833 43.6388 39.4375C43.9721 40.2917 44.1388 41.1979 44.1388 42.1562H38.9513C38.9513 41.1562 38.7117 40.3698 38.2325 39.7969C37.7533 39.2135 37.0554 38.9219 36.1388 38.9219C35.4096 38.9219 34.7794 39.1146 34.2481 39.5C33.7169 39.8854 33.4513 40.4531 33.4513 41.2031C33.4513 41.9323 33.7273 42.5208 34.2794 42.9688C34.8315 43.4062 35.6179 43.8073 36.6388 44.1719C37.6179 44.5156 38.5815 44.8802 39.5294 45.2656C40.4877 45.651 41.3315 46.1146 42.0606 46.6562C42.8002 47.1979 43.394 47.8594 43.8419 48.6406C44.2898 49.4219 44.5138 50.3854 44.5138 51.5312C44.5138 52.6146 44.3054 53.599 43.8888 54.4844C43.4721 55.3594 42.894 56.099 42.1544 56.7031C41.4252 57.3073 40.5502 57.7708 39.5294 58.0938C38.519 58.4167 37.42 58.5781 36.2325 58.5781C34.9721 58.5781 33.8158 58.401 32.7638 58.0469C31.7221 57.6927 30.821 57.1771 30.0606 56.5C29.3106 55.8125 28.7221 54.974 28.295 53.9844C27.8679 52.9948 27.6544 51.8594 27.6544 50.5781ZM48.3925 58V35.5938H57.7675C59.0071 35.5938 60.1269 35.8125 61.1269 36.25C62.1373 36.6875 62.9967 37.276 63.705 38.0156C64.4237 38.7552 64.9758 39.6146 65.3612 40.5938C65.7467 41.5729 65.9394 42.6094 65.9394 43.7031C65.9394 44.7865 65.7467 45.8177 65.3612 46.7969C64.9758 47.776 64.4237 48.6354 63.705 49.375C62.9967 50.1146 62.1373 50.7031 61.1269 51.1406C60.1269 51.5781 59.0071 51.7969 57.7675 51.7969H53.58V58H48.3925ZM53.58 47.5625H57.1269C57.6581 47.5625 58.1477 47.4583 58.5956 47.25C59.054 47.0312 59.4342 46.75 59.7362 46.4062C60.0487 46.0521 60.2883 45.6406 60.455 45.1719C60.6321 44.7031 60.7206 44.2135 60.7206 43.7031C60.7206 43.1927 60.6321 42.7031 60.455 42.2344C60.2883 41.7552 60.0487 41.3438 59.7362 41C59.4342 40.6458 59.0592 40.3646 58.6112 40.1562C58.1633 39.9375 57.6685 39.8281 57.1269 39.8281H53.58V47.5625Z" fill="white"/>
</svg>
