<svg width="261" height="261" viewBox="0 0 261 261" fill="none" xmlns="http://www.w3.org/2000/svg">
<path d="M235.094 119.835H217.043V141.759H212.397V129.345H189.439V148.999H186.401V102.875H166.451V115.539H156.225V131.287H153.129V121.38H134.99V150.946H129.686V126.908H113.097V108.659H101.816V98.2656H88.7717V144.369H84.3869V125.128H62.8909V152.668H59.9207V130.191H38.122V109.938H25.9072V204.263H235.094V119.835Z" fill="#EBEBEB"/>
<path d="M229.827 126.783H232.881V122.592H229.827V126.783Z" fill="white"/>
<path d="M224.534 126.783H227.588V122.592H224.534V126.783Z" fill="white"/>
<path d="M219.235 126.783H222.289V122.592H219.235V126.783Z" fill="white"/>
<path d="M229.827 133.088H232.881V128.896H229.827V133.088Z" fill="white"/>
<path d="M224.534 133.088H227.588V128.896H224.534V133.088Z" fill="white"/>
<path d="M219.235 133.088H222.289V128.896H219.235V133.088Z" fill="white"/>
<path d="M229.827 139.395H232.881V135.203H229.827V139.395Z" fill="white"/>
<path d="M224.534 139.395H227.588V135.203H224.534V139.395Z" fill="white"/>
<path d="M219.235 139.395H222.289V135.203H219.235V139.395Z" fill="white"/>
<path d="M229.827 145.705H232.881V141.513H229.827V145.705Z" fill="white"/>
<path d="M224.534 145.705H227.588V141.513H224.534V145.705Z" fill="white"/>
<path d="M219.235 145.705H222.289V141.513H219.235V145.705Z" fill="white"/>
<path d="M124.085 133.406H127.139V129.909H124.085V133.406Z" fill="white"/>
<path d="M118.792 133.406H121.846V129.909H118.792V133.406Z" fill="white"/>
<path d="M113.493 133.406H116.547V129.909H113.493V133.406Z" fill="white"/>
<path d="M124.085 138.664H127.139V135.167H124.085V138.664Z" fill="white"/>
<path d="M118.792 138.664H121.846V135.167H118.792V138.664Z" fill="white"/>
<path d="M113.493 138.664H116.547V135.167H113.493V138.664Z" fill="white"/>
<path d="M124.085 143.926H127.139V140.428H124.085V143.926Z" fill="white"/>
<path d="M118.792 143.926H121.846V140.428H118.792V143.926Z" fill="white"/>
<path d="M113.493 143.926H116.547V140.428H113.493V143.926Z" fill="white"/>
<path d="M124.085 149.188H127.139V145.69H124.085V149.188Z" fill="white"/>
<path d="M118.792 149.188H121.846V145.69H118.792V149.188Z" fill="white"/>
<path d="M113.493 149.188H116.547V145.69H113.493V149.188Z" fill="white"/>
<path d="M124.085 154.58H127.139V151.083H124.085V154.58Z" fill="white"/>
<path d="M118.792 154.58H121.846V151.083H118.792V154.58Z" fill="white"/>
<path d="M113.493 154.58H116.547V151.083H113.493V154.58Z" fill="white"/>
<path d="M124.085 159.973H127.139V156.475H124.085V159.973Z" fill="white"/>
<path d="M118.792 159.973H121.846V156.475H118.792V159.973Z" fill="white"/>
<path d="M113.493 159.973H116.547V156.475H113.493V159.973Z" fill="white"/>
<path d="M124.085 165.359H127.139V161.862H124.085V165.359Z" fill="white"/>
<path d="M118.792 165.359H121.846V161.862H118.792V165.359Z" fill="white"/>
<path d="M113.493 165.359H116.547V161.862H113.493V165.359Z" fill="white"/>
<path d="M124.085 170.75H127.139V167.253H124.085V170.75Z" fill="white"/>
<path d="M118.792 170.75H121.846V167.253H118.792V170.75Z" fill="white"/>
<path d="M113.493 170.75H116.547V167.253H113.493V170.75Z" fill="white"/>
<path d="M192.206 134.654H209.787V132.034H192.206V134.654Z" fill="white"/>
<path d="M192.206 139.744H209.787V137.124H192.206V139.744Z" fill="white"/>
<path d="M192.206 144.828H209.787V142.208H192.206V144.828Z" fill="white"/>
<path d="M192.206 149.912H209.787V147.292H192.206V149.912Z" fill="white"/>
<path d="M192.206 155.002H209.787V152.382H192.206V155.002Z" fill="white"/>
<path d="M192.206 160.086H209.787V157.465H192.206V160.086Z" fill="white"/>
<path d="M192.206 165.176H209.787V162.555H192.206V165.176Z" fill="white"/>
<path d="M192.206 170.256H209.787V167.635H192.206V170.256Z" fill="white"/>
<path d="M65.6159 130.191H81.7822V127.571H65.6159V130.191Z" fill="white"/>
<path d="M65.6159 135.281H81.7822V132.661H65.6159V135.281Z" fill="white"/>
<path d="M65.6159 140.371H81.7822V137.751H65.6159V140.371Z" fill="white"/>
<path d="M65.6159 145.455H81.7822V142.835H65.6159V145.455Z" fill="white"/>
<path d="M65.6159 150.539H81.7822V147.919H65.6159V150.539Z" fill="white"/>
<path d="M65.6159 155.629H81.7822V153.008H65.6159V155.629Z" fill="white"/>
<path d="M65.6159 160.713H81.7822V158.092H65.6159V160.713Z" fill="white"/>
<path d="M65.6159 165.803H81.7822V163.182H65.6159V165.803Z" fill="white"/>
<path d="M65.6159 170.631H81.7822V168.01H65.6159V170.631Z" fill="white"/>
<path d="M65.6159 175.465H81.7822V172.844H65.6159V175.465Z" fill="white"/>
<path d="M65.6159 180.299H81.7822V177.678H65.6159V180.299Z" fill="white"/>
<path d="M65.6159 185.127H81.7822V182.507H65.6159V185.127Z" fill="white"/>
<path d="M65.6159 189.961H81.7822V187.34H65.6159V189.961Z" fill="white"/>
<path d="M39.484 136.336H56.5586V133.715H39.484V136.336Z" fill="white"/>
<path d="M39.484 141.426H56.5586V138.805H39.484V141.426Z" fill="white"/>
<path d="M39.484 146.514H56.5586V143.893H39.484V146.514Z" fill="white"/>
<path d="M39.484 151.6H56.5586V148.979H39.484V151.6Z" fill="white"/>
<path d="M39.484 156.684H56.5586V154.063H39.484V156.684Z" fill="white"/>
<path d="M39.484 161.773H56.5586V159.153H39.484V161.773Z" fill="white"/>
<path d="M39.484 166.857H56.5586V164.237H39.484V166.857Z" fill="white"/>
<path d="M39.484 171.947H56.5586V169.327H39.484V171.947Z" fill="white"/>
<path d="M39.484 176.498H56.5586V173.878H39.484V176.498Z" fill="white"/>
<path d="M39.484 181.051H56.5586V178.43H39.484V181.051Z" fill="white"/>
<path d="M39.484 185.602H56.5586V182.981H39.484V185.602Z" fill="white"/>
<path d="M142.392 126.287H147.82V123.755H142.392V126.287Z" fill="white"/>
<path d="M142.392 131.199H147.82V128.668H142.392V131.199Z" fill="white"/>
<path d="M142.392 136.111H147.82V133.58H142.392V136.111Z" fill="white"/>
<path d="M142.392 141.023H147.82V138.492H142.392V141.023Z" fill="white"/>
<path d="M142.392 145.936H147.82V143.404H142.392V145.936Z" fill="white"/>
<path d="M142.392 150.848H147.82V148.316H142.392V150.848Z" fill="white"/>
<path d="M142.392 155.76H147.82V153.228H142.392V155.76Z" fill="white"/>
<path d="M142.392 160.672H147.82V158.14H142.392V160.672Z" fill="white"/>
<path d="M135.005 126.287H140.434V123.755H135.005V126.287Z" fill="white"/>
<path d="M135.005 131.199H140.434V128.668H135.005V131.199Z" fill="white"/>
<path d="M135.005 136.111H140.434V133.58H135.005V136.111Z" fill="white"/>
<path d="M135.005 141.023H140.434V138.492H135.005V141.023Z" fill="white"/>
<path d="M135.005 145.936H140.434V143.404H135.005V145.936Z" fill="white"/>
<path d="M135.005 150.848H140.434V148.316H135.005V150.848Z" fill="white"/>
<path d="M135.005 155.76H140.434V153.228H135.005V155.76Z" fill="white"/>
<path d="M135.005 160.672H140.434V158.14H135.005V160.672Z" fill="white"/>
<path d="M177.715 109.525H183.373V105.532H177.715V109.525Z" fill="white"/>
<path d="M169.285 109.525H174.943V105.532H169.285V109.525Z" fill="white"/>
<path d="M177.715 115.387H183.373V111.393H177.715V115.387Z" fill="white"/>
<path d="M169.285 115.387H174.943V111.393H169.285V115.387Z" fill="white"/>
<path d="M177.715 121.256H183.373V117.263H177.715V121.256Z" fill="white"/>
<path d="M169.285 121.256H174.943V117.263H169.285V121.256Z" fill="white"/>
<path d="M177.715 127.117H183.373V123.124H177.715V127.117Z" fill="white"/>
<path d="M169.285 127.117H174.943V123.124H169.285V127.117Z" fill="white"/>
<path d="M177.715 132.984H183.373V128.991H177.715V132.984Z" fill="white"/>
<path d="M169.285 132.984H174.943V128.991H169.285V132.984Z" fill="white"/>
<path d="M177.715 138.852H183.373V134.858H177.715V138.852Z" fill="white"/>
<path d="M169.285 138.852H174.943V134.858H169.285V138.852Z" fill="white"/>
<path d="M177.715 144.713H183.373V140.72H177.715V144.713Z" fill="white"/>
<path d="M169.285 144.713H174.943V140.72H169.285V144.713Z" fill="white"/>
<path d="M177.715 150.58H183.373V146.587H177.715V150.58Z" fill="white"/>
<path d="M169.285 150.58H174.943V146.587H169.285V150.58Z" fill="white"/>
<path d="M158.83 121.256H164.488V117.263H158.83V121.256Z" fill="white"/>
<path d="M158.83 127.117H164.488V123.124H158.83V127.117Z" fill="white"/>
<path d="M158.83 132.984H164.488V128.991H158.83V132.984Z" fill="white"/>
<path d="M158.83 138.852H164.488V134.858H158.83V138.852Z" fill="white"/>
<path d="M158.83 144.713H164.488V140.72H158.83V144.713Z" fill="white"/>
<path d="M158.83 150.58H164.488V146.587H158.83V150.58Z" fill="white"/>
<path d="M177.715 156.375H183.373V152.382H177.715V156.375Z" fill="white"/>
<path d="M169.285 156.375H174.943V152.382H169.285V156.375Z" fill="white"/>
<path d="M158.83 156.375H164.488V152.382H158.83V156.375Z" fill="white"/>
<path d="M177.715 162.164H183.373V158.171H177.715V162.164Z" fill="white"/>
<path d="M169.285 162.164H174.943V158.171H169.285V162.164Z" fill="white"/>
<path d="M158.83 162.164H164.488V158.171H158.83V162.164Z" fill="white"/>
<path d="M177.715 167.959H183.373V163.966H177.715V167.959Z" fill="white"/>
<path d="M169.285 167.959H174.943V163.966H169.285V167.959Z" fill="white"/>
<path d="M158.83 167.959H164.488V163.966H158.83V167.959Z" fill="white"/>
<path d="M177.715 173.752H183.373V169.759H177.715V173.752Z" fill="white"/>
<path d="M169.285 173.752H174.943V169.759H169.285V173.752Z" fill="white"/>
<path d="M158.83 173.752H164.488V169.759H158.83V173.752Z" fill="white"/>
<path d="M177.715 179.547H183.373V175.554H177.715V179.547Z" fill="white"/>
<path d="M169.285 179.547H174.943V175.554H169.285V179.547Z" fill="white"/>
<path d="M158.83 179.547H164.488V175.554H158.83V179.547Z" fill="white"/>
<path d="M107.741 114.725H110.795V111.227H107.741V114.725Z" fill="white"/>
<path d="M102.448 114.725H105.502V111.227H102.448V114.725Z" fill="white"/>
<path d="M107.741 119.986H110.795V116.489H107.741V119.986Z" fill="white"/>
<path d="M102.448 119.986H105.502V116.489H102.448V119.986Z" fill="white"/>
<path d="M107.741 125.248H110.795V121.751H107.741V125.248Z" fill="white"/>
<path d="M102.448 125.248H105.502V121.751H102.448V125.248Z" fill="white"/>
<path d="M107.741 130.516H110.795V127.018H107.741V130.516Z" fill="white"/>
<path d="M102.448 130.516H105.502V127.018H102.448V130.516Z" fill="white"/>
<path d="M107.741 135.908H110.795V132.411H107.741V135.908Z" fill="white"/>
<path d="M102.448 135.908H105.502V132.411H102.448V135.908Z" fill="white"/>
<path d="M107.741 141.295H110.795V137.798H107.741V141.295Z" fill="white"/>
<path d="M102.448 141.295H105.502V137.798H102.448V141.295Z" fill="white"/>
<path d="M107.741 146.688H110.795V143.19H107.741V146.688Z" fill="white"/>
<path d="M102.448 146.688H105.502V143.19H102.448V146.688Z" fill="white"/>
<path d="M107.741 152.078H110.795V148.581H107.741V152.078Z" fill="white"/>
<path d="M102.448 152.078H105.502V148.581H102.448V152.078Z" fill="white"/>
<path d="M107.741 157.529H110.795V154.032H107.741V157.529Z" fill="white"/>
<path d="M102.448 157.529H105.502V154.032H102.448V157.529Z" fill="white"/>
<path d="M107.741 162.973H110.795V159.475H107.741V162.973Z" fill="white"/>
<path d="M102.448 162.973H105.502V159.475H102.448V162.973Z" fill="white"/>
<path d="M107.741 168.422H110.795V164.924H107.741V168.422Z" fill="white"/>
<path d="M102.448 168.422H105.502V164.924H102.448V168.422Z" fill="white"/>
<path d="M107.741 173.877H110.795V170.38H107.741V173.877Z" fill="white"/>
<path d="M102.448 173.877H105.502V170.38H102.448V173.877Z" fill="white"/>
<path d="M33.1524 115.914H36.2061V111.795H33.1524V115.914Z" fill="white"/>
<path d="M27.8643 115.914H30.918V111.795H27.8643V115.914Z" fill="white"/>
<path d="M33.1524 122.117H36.2061V117.999H33.1524V122.117Z" fill="white"/>
<path d="M27.8643 122.117H30.918V117.999H27.8643V122.117Z" fill="white"/>
<path d="M33.1524 128.312H36.2061V124.194H33.1524V128.312Z" fill="white"/>
<path d="M27.8643 128.312H30.918V124.194H27.8643V128.312Z" fill="white"/>
<path d="M33.1524 134.514H36.2061V130.395H33.1524V134.514Z" fill="white"/>
<path d="M27.8643 134.514H30.918V130.395H27.8643V134.514Z" fill="white"/>
<path d="M33.1524 140.867H36.2061V136.749H33.1524V140.867Z" fill="white"/>
<path d="M27.8643 140.867H30.918V136.749H27.8643V140.867Z" fill="white"/>
<path d="M33.1524 147.219H36.2061V143.1H33.1524V147.219Z" fill="white"/>
<path d="M27.8643 147.219H30.918V143.1H27.8643V147.219Z" fill="white"/>
<path d="M33.1524 153.566H36.2061V149.448H33.1524V153.566Z" fill="white"/>
<path d="M27.8643 153.566H30.918V149.448H27.8643V153.566Z" fill="white"/>
<path d="M33.1524 159.924H36.2061V155.805H33.1524V159.924Z" fill="white"/>
<path d="M27.8643 159.924H30.918V155.805H27.8643V159.924Z" fill="white"/>
<path d="M33.1524 166.346H36.2061V162.227H33.1524V166.346Z" fill="white"/>
<path d="M27.8643 166.346H30.918V162.227H27.8643V166.346Z" fill="white"/>
<path d="M33.1524 172.76H36.2061V168.641H33.1524V172.76Z" fill="white"/>
<path d="M27.8643 172.76H30.918V168.641H27.8643V172.76Z" fill="white"/>
<path d="M33.1524 179.182H36.2061V175.063H33.1524V179.182Z" fill="white"/>
<path d="M27.8643 179.182H30.918V175.063H27.8643V179.182Z" fill="white"/>
<path d="M33.1524 185.602H36.2061V181.483H33.1524V185.602Z" fill="white"/>
<path d="M27.8643 185.602H30.918V181.483H27.8643V185.602Z" fill="white"/>
<path d="M96.4141 114.725H99.4678V111.227H96.4141V114.725Z" fill="white"/>
<path d="M91.1211 114.725H94.1748V111.227H91.1211V114.725Z" fill="white"/>
<path d="M96.4141 109.332H99.4678V105.835H96.4141V109.332Z" fill="white"/>
<path d="M91.1211 109.332H94.1748V105.835H91.1211V109.332Z" fill="white"/>
<path d="M96.4141 103.939H99.4678V100.442H96.4141V103.939Z" fill="white"/>
<path d="M91.1211 103.939H94.1748V100.442H91.1211V103.939Z" fill="white"/>
<path d="M96.4141 119.986H99.4678V116.489H96.4141V119.986Z" fill="white"/>
<path d="M91.1211 119.986H94.1748V116.489H91.1211V119.986Z" fill="white"/>
<path d="M96.4141 125.248H99.4678V121.751H96.4141V125.248Z" fill="white"/>
<path d="M91.1211 125.248H94.1748V121.751H91.1211V125.248Z" fill="white"/>
<path d="M96.4141 130.516H99.4678V127.018H96.4141V130.516Z" fill="white"/>
<path d="M91.1211 130.516H94.1748V127.018H91.1211V130.516Z" fill="white"/>
<path d="M96.4141 135.908H99.4678V132.411H96.4141V135.908Z" fill="white"/>
<path d="M91.1211 135.908H94.1748V132.411H91.1211V135.908Z" fill="white"/>
<path d="M96.4141 141.295H99.4678V137.798H96.4141V141.295Z" fill="white"/>
<path d="M91.1211 141.295H94.1748V137.798H91.1211V141.295Z" fill="white"/>
<path d="M96.4141 146.688H99.4678V143.19H96.4141V146.688Z" fill="white"/>
<path d="M91.1211 146.688H94.1748V143.19H91.1211V146.688Z" fill="white"/>
<path d="M96.4141 152.078H99.4678V148.581H96.4141V152.078Z" fill="white"/>
<path d="M91.1211 152.078H94.1748V148.581H91.1211V152.078Z" fill="white"/>
<path d="M96.4141 157.529H99.4678V154.032H96.4141V157.529Z" fill="white"/>
<path d="M91.1211 157.529H94.1748V154.032H91.1211V157.529Z" fill="white"/>
<path d="M96.4141 162.973H99.4678V159.475H96.4141V162.973Z" fill="white"/>
<path d="M91.1211 162.973H94.1748V159.475H91.1211V162.973Z" fill="white"/>
<path d="M96.4141 168.422H99.4678V164.924H96.4141V168.422Z" fill="white"/>
<path d="M91.1211 168.422H94.1748V164.924H91.1211V168.422Z" fill="white"/>
<path d="M96.4141 173.877H99.4678V170.38H96.4141V173.877Z" fill="white"/>
<path d="M91.1211 173.877H94.1748V170.38H91.1211V173.877Z" fill="white"/>
<path d="M232.87 90.7489H176.666C176.666 90.7489 182.241 75.5273 190.817 75.5273C199.394 75.5273 202.077 86.0352 202.077 86.0352C202.077 86.0352 207.866 80.3245 212.621 80.3245C217.377 80.3245 221.495 87.8674 221.495 87.8674C221.495 87.8674 228.224 83.8115 232.87 90.7489Z" fill="#EBEBEB"/>
<path d="M201.414 60.646H175.146C175.146 60.646 181.014 52.1426 185.639 52.1426C190.264 52.1426 191.631 57.8115 191.631 57.8115C191.631 57.8115 194.894 55.165 197.895 55.64C200.897 56.115 201.414 60.646 201.414 60.646Z" fill="#EBEBEB"/>
<path d="M79.2917 86.2177H28.1357C28.1357 86.2177 35.141 70.5577 42.6369 69.5972C50.1328 68.6368 53.7137 81.217 53.7137 81.217C53.7137 81.217 58.5475 76.7643 62.3476 76.7643C66.1478 76.7643 69.0866 82.6316 69.0866 82.6316C69.0866 82.6316 76.6817 78.6122 79.2917 86.2177Z" fill="#EBEBEB"/>
<path d="M127.916 47.5016H93.3545C93.3545 47.5016 99.2896 36.169 105.731 36.0176C112.173 35.8662 115.555 44.594 115.555 44.594C115.555 44.594 125.572 36.5396 127.916 47.5016Z" fill="#EBEBEB"/>
<path d="M151.516 231.392C198.519 231.392 236.623 228.87 236.623 225.759C236.623 222.649 198.519 220.127 151.516 220.127C104.513 220.127 66.4092 222.649 66.4092 225.759C66.4092 228.87 104.513 231.392 151.516 231.392Z" fill="#EBEBEB"/>
<path d="M252.826 204.263L222.242 204.388L191.663 204.435L130.5 204.519L69.3375 204.435L38.7588 204.388L8.1748 204.263L38.7588 204.132L69.3375 204.085L130.5 204.002L191.663 204.085L222.242 204.132L252.826 204.263Z" fill="#263238"/>
<path d="M126.684 123.527C135.516 132.714 162.05 173.602 164.117 174.824C164.117 174.824 164.117 201.566 149.339 196.226C134.561 190.885 121.015 142.908 118.123 127.614C116.599 119.538 119.47 116.031 126.684 123.527Z" fill="#D3766A"/>
<path d="M124.434 155.138L151.515 152.059C151.515 152.059 134.717 129.774 126.036 121.819C116.985 113.53 112.548 114.694 116.745 130.396C120.962 146.191 124.434 155.138 124.434 155.138Z" fill="#BDD9FF"/>
<path d="M123.16 140.386C122.863 141.133 122.673 141.919 122.596 142.719C123.541 141.414 124.129 139.885 124.303 138.282C123.82 138.923 123.435 139.632 123.16 140.386ZM138.371 140.997C137.626 140.699 136.842 140.509 136.043 140.433C137.346 141.379 138.874 141.967 140.475 142.14C139.835 141.656 139.126 141.27 138.371 140.997ZM134.336 151.531C134.017 150.795 133.596 150.107 133.083 149.49C133.203 150.282 133.435 151.054 133.772 151.781C134.081 152.522 134.5 153.212 135.015 153.828C134.898 153.034 134.669 152.261 134.336 151.531ZM118.447 117.601C118.311 117.314 118.175 117.032 118.018 116.75C117.833 116.732 117.646 116.732 117.46 116.75C117.585 117.131 117.726 117.496 117.883 117.862C118.196 118.601 118.617 119.291 119.13 119.908C119.013 119.11 118.783 118.334 118.447 117.601ZM149.657 149.62L149.135 149.829C148.396 150.147 147.706 150.567 147.083 151.077C147.879 150.959 148.654 150.728 149.385 150.393C149.594 150.299 149.798 150.2 150.001 150.09L149.657 149.62ZM128.777 128.109C128.04 128.425 127.351 128.843 126.731 129.351C127.527 129.237 128.302 129.008 129.033 128.672C129.77 128.356 130.459 127.936 131.079 127.425C130.279 127.54 129.5 127.77 128.766 128.109H128.777ZM126.96 128.156C126.93 128.177 126.9 128.199 126.872 128.224H126.966C126.966 128.224 126.95 128.171 126.95 128.156H126.96Z" fill="white"/>
<path d="M125.734 150.269C126.366 150.123 127.029 150.065 127.671 149.977L129.665 149.7C131.006 149.512 132.353 149.345 133.7 149.178C136.393 148.865 139.087 148.536 141.786 148.27C142.527 148.197 143.273 148.123 144.015 148.066C144.756 148.009 145.581 148.009 146.364 147.951C146.411 147.951 146.411 148.019 146.364 148.024C145.701 148.123 145.043 148.275 144.38 148.379C143.717 148.484 143.012 148.578 142.329 148.661C140.987 148.833 139.635 148.99 138.288 149.141C135.637 149.428 132.98 149.731 130.317 149.966L128.094 150.154C127.316 150.222 126.528 150.337 125.745 150.332C125.739 150.329 125.733 150.326 125.729 150.321C125.725 150.316 125.722 150.31 125.721 150.303C125.72 150.297 125.721 150.29 125.723 150.284C125.725 150.278 125.729 150.273 125.734 150.269Z" fill="#263238"/>
<path opacity="0.1" d="M137.573 153.645L124.439 155.138C124.439 155.138 120.968 146.191 116.745 130.395C114.965 123.734 114.741 119.689 115.764 117.867L137.573 153.645Z" fill="black"/>
<path d="M131.945 210.835H90.7544C90.4151 209.509 90.0863 208.225 89.7574 206.92C89.3816 205.442 89.0109 204.002 88.656 202.597C88.5777 202.284 88.4942 201.971 88.4159 201.663C88.1444 200.588 87.8782 199.544 87.6172 198.531C87.4606 197.91 87.304 197.299 87.1526 196.694C87.0013 196.088 86.8394 195.472 86.6881 194.882C86.6463 194.726 86.6097 194.569 86.568 194.418L86.4427 193.896L86.2861 193.285C86.2287 193.071 86.1765 192.862 86.1243 192.653C86.0199 192.257 85.9207 191.865 85.8267 191.484C85.6806 190.92 85.5396 190.367 85.4039 189.829C85.3465 189.594 85.2839 189.36 85.2265 189.13C85.1273 188.754 85.0333 188.389 84.9446 188.028C84.8819 187.788 84.8245 187.553 84.7671 187.324C84.5235 186.377 84.2973 185.49 84.0885 184.662C84.0311 184.442 83.9789 184.228 83.9215 184.019C83.8327 183.659 83.744 183.315 83.6605 182.975C83.6013 182.767 83.5491 182.563 83.5038 182.365C83.3211 181.655 83.1541 181.008 83.0132 180.439C82.9714 180.287 82.9349 180.141 82.8983 180C82.8044 179.624 82.7156 179.29 82.6426 178.993C82.6112 178.873 82.5851 178.758 82.5538 178.653L82.4703 178.324C82.4703 178.251 82.4337 178.178 82.4181 178.116L82.345 177.834C82.345 177.789 82.3346 177.747 82.3137 177.709L82.2197 177.338H122.315C122.315 177.338 123.635 181.89 125.749 189.229C126.177 190.722 126.642 192.361 127.138 194.047C128.542 198.943 130.181 204.654 131.945 210.835Z" fill="#37474F"/>
<path d="M97.4989 210.837H96.4549C94.9307 204.527 93.4534 198.206 92.0231 191.872C91.6751 190.331 91.3271 188.789 90.9791 187.247L90.8852 186.814C90.8834 186.799 90.8872 186.784 90.8957 186.771C90.9042 186.759 90.917 186.75 90.9316 186.746C90.9462 186.742 90.9617 186.744 90.9753 186.751C90.9888 186.757 90.9994 186.769 91.0052 186.783C91.0052 186.83 91.0313 186.877 91.047 186.924C91.5099 188.58 91.971 190.238 92.4303 191.898C94.1947 198.194 95.8842 204.506 97.4989 210.837Z" fill="#263238"/>
<path d="M121.015 177.343L119.245 186.217L117.794 193.483L115.325 205.865L115.069 207.134L114.646 209.248L114.318 210.835H90.7492C90.4151 209.504 90.081 208.225 89.7574 206.92C89.3816 205.442 89.0109 204.002 88.656 202.597C88.5777 202.284 88.4942 201.971 88.4159 201.663C88.1444 200.588 87.8782 199.544 87.6172 198.531C87.4606 197.91 87.304 197.299 87.1526 196.694C87.0013 196.088 86.8394 195.472 86.6881 194.882C86.6463 194.726 86.6097 194.569 86.568 194.418L86.4427 193.896L86.2861 193.285C86.2287 193.071 86.1765 192.862 86.1243 192.653C86.0199 192.257 85.9207 191.865 85.8267 191.484C85.6806 190.92 85.5396 190.367 85.4039 189.829C85.3413 189.589 85.2839 189.36 85.2265 189.13C85.1273 188.754 85.0333 188.389 84.9446 188.028C84.8819 187.788 84.8245 187.553 84.7671 187.324C84.5235 186.377 84.2973 185.49 84.0885 184.662C84.0311 184.442 83.9789 184.228 83.9215 184.019C83.8327 183.659 83.744 183.315 83.6605 182.975C83.6013 182.767 83.5491 182.563 83.5039 182.365C83.3212 181.655 83.1541 181.008 83.0132 180.439C82.9714 180.287 82.9349 180.141 82.8983 180C82.8044 179.624 82.7156 179.29 82.6426 178.993C82.6112 178.873 82.5851 178.758 82.5538 178.653L82.4703 178.324C82.4703 178.251 82.4337 178.178 82.4181 178.116L82.345 177.834C82.345 177.789 82.3346 177.747 82.3137 177.709L82.2197 177.338L121.015 177.343Z" fill="#263238"/>
<path d="M121.02 177.328C121.02 177.547 120.853 179.938 120.467 183.592C120.357 184.636 120.227 185.826 120.075 187.079C119.841 189.058 119.553 191.255 119.188 193.547C118.572 197.571 117.768 201.961 116.724 206.252C116.354 207.818 115.946 209.327 115.513 210.825H63.7568C64.3676 202.937 64.9261 195.802 65.3698 190.18C65.991 182.266 66.4138 177.312 66.4138 177.312H113.362L121.02 177.328Z" fill="#37474F"/>
<path d="M120.911 182.084C120.854 183.937 120.775 185.785 120.655 187.627C120.53 189.626 120.347 191.621 120.086 193.615C120.086 193.688 120.086 193.761 120.06 193.834C119.816 195.703 119.536 197.566 119.22 199.424C118.922 201.157 118.698 203.026 117.936 204.644C117.646 205.265 117.234 205.821 116.725 206.278C116.258 206.705 115.687 207 115.07 207.134C114.969 207.16 114.866 207.177 114.762 207.187H114.673C114.692 207.197 114.708 207.214 114.718 207.233C114.728 207.252 114.732 207.274 114.73 207.296C114.73 207.917 114.73 208.549 114.657 209.165C114.657 209.191 114.657 209.217 114.657 209.243C114.595 209.765 114.496 210.313 114.396 210.846H113.509V210.814C113.666 210.23 113.796 209.64 113.942 209.05C114.088 208.46 114.297 207.86 114.438 207.249C114.446 207.226 114.461 207.206 114.48 207.192C113.917 207.219 113.359 207.073 112.881 206.773C112.403 206.474 112.028 206.035 111.807 205.516C111.585 204.722 111.57 203.885 111.766 203.084C111.927 202.04 112.084 200.964 112.246 199.905C112.549 197.958 112.94 196.031 113.29 194.095L113.446 193.213C114.141 189.272 114.866 185.33 115.738 181.426C115.769 181.264 115.806 181.102 115.842 180.94C115.879 180.779 116.041 180.862 116.03 180.967C116.004 181.228 115.978 181.489 115.947 181.755C115.794 183.255 115.62 184.748 115.425 186.233C115.174 187.982 115.002 189.741 114.757 191.49C114.673 192.085 114.59 192.68 114.501 193.275C114.099 196.152 113.681 199.017 113.191 201.893C112.961 203.225 112.147 205.61 114.047 206.023C114.486 206.12 114.945 206.063 115.346 205.861C116.192 205.351 116.825 204.551 117.126 203.611C117.596 202.044 117.937 200.441 118.144 198.819C118.458 197.079 118.736 195.323 118.98 193.552C119.293 191.356 119.62 189.162 119.961 186.97C120.131 185.852 120.305 184.735 120.483 183.618L120.733 182.052C120.739 181.943 120.911 181.974 120.911 182.084Z" fill="#263238"/>
<path d="M75.1102 195.844C77.2657 195.822 79.41 195.533 81.4943 194.983C82.4548 194.738 83.4048 194.43 84.3496 194.122C85.2858 193.863 86.1619 193.423 86.9283 192.827C88.3795 191.574 89.0529 189.606 89.6845 187.852C90.3702 185.878 90.9264 183.86 91.3497 181.813C91.3497 181.714 91.5167 181.75 91.5219 181.844C91.5721 184.159 91.2783 186.469 90.6502 188.698C90.1282 190.593 89.4287 192.702 87.8992 194.028C86.3698 195.354 84.1095 195.917 82.0476 196.168C79.7356 196.437 77.3985 196.405 75.0946 196.074C75.0641 196.072 75.0357 196.058 75.0157 196.035C74.9956 196.012 74.9855 195.982 74.9876 195.951C74.9896 195.921 75.0037 195.892 75.0267 195.872C75.0497 195.852 75.0798 195.842 75.1102 195.844Z" fill="#263238"/>
<path d="M71.5136 181.876C71.3988 184.771 71.277 187.67 71.1482 190.572C70.8524 197.327 70.527 204.082 70.1721 210.837H69.2012C69.6466 204.068 70.1147 197.303 70.6053 190.541C70.8176 187.649 71.0369 184.759 71.2631 181.871C71.2638 181.838 71.2776 181.806 71.3016 181.783C71.3256 181.76 71.3577 181.747 71.391 181.748C71.4242 181.749 71.4558 181.763 71.4788 181.787C71.5018 181.811 71.5143 181.843 71.5136 181.876Z" fill="#263238"/>
<path d="M129.931 198.767L59.7168 193.443C59.7168 193.443 73.8421 137.458 101.733 116.876C108.863 111.619 116.667 114.991 120.18 118.922C129.106 128.934 130.14 198.543 129.931 198.767Z" fill="#BDD9FF"/>
<path d="M104.979 119.423C104.685 120.169 104.495 120.953 104.416 121.751C104.896 121.114 105.283 120.41 105.564 119.663C105.859 118.917 106.048 118.133 106.128 117.335C105.649 117.974 105.263 118.677 104.979 119.423ZM97.3582 149.626C97.0581 150.372 96.8699 151.158 96.7997 151.959C97.7401 150.652 98.3263 149.123 98.5014 147.522C98.0222 148.166 97.6372 148.874 97.3582 149.626ZM72.2709 162.577C71.9739 163.324 71.7841 164.11 71.7072 164.91C72.6519 163.605 73.2402 162.075 73.4141 160.473C72.9389 161.119 72.5542 161.827 72.2709 162.577ZM92.5193 181.656C92.2162 182.399 92.0262 183.184 91.9555 183.984C92.8959 182.676 93.4821 181.148 93.6573 179.547C93.1785 180.192 92.7953 180.902 92.5193 181.656ZM123.161 140.376C122.863 141.123 122.673 141.909 122.597 142.709C123.542 141.404 124.13 139.875 124.304 138.272C123.82 138.916 123.435 139.629 123.161 140.387V140.376ZM110.664 178.352C110.36 179.095 110.169 179.88 110.095 180.68C110.575 180.043 110.96 179.339 111.238 178.592C111.535 177.846 111.725 177.062 111.802 176.264C111.324 176.901 110.94 177.604 110.664 178.352ZM85.3627 138.956C85.065 139.702 84.8752 140.486 84.7989 141.284C85.745 139.98 86.3319 138.45 86.5006 136.847C86.0199 137.491 85.6365 138.201 85.3627 138.956ZM113.415 128.934C112.671 128.633 111.886 128.443 111.087 128.37C111.725 128.847 112.428 129.23 113.175 129.508C113.921 129.81 114.707 130 115.508 130.072C114.869 129.594 114.164 129.21 113.415 128.934ZM121.37 154.1C120.626 153.8 119.841 153.61 119.042 153.536C119.679 154.015 120.382 154.398 121.13 154.674C121.875 154.975 122.659 155.167 123.458 155.243C122.82 154.769 122.117 154.391 121.37 154.12V154.1ZM123.505 184.177C122.76 183.88 121.976 183.69 121.177 183.613C121.814 184.094 122.517 184.479 123.265 184.757C124.011 185.053 124.795 185.243 125.593 185.32C124.953 184.851 124.25 184.473 123.505 184.198V184.177ZM73.5237 181.703C72.7786 181.405 71.9946 181.215 71.1956 181.139C72.4987 182.085 74.0265 182.673 75.6274 182.846C74.9834 182.373 74.275 181.995 73.5237 181.724V181.703ZM91.5901 162.389C90.8451 162.09 90.0611 161.898 89.262 161.82C89.8998 162.3 90.6029 162.687 91.35 162.968C92.0963 163.263 92.8798 163.453 93.6781 163.532C93.0393 163.059 92.3363 162.679 91.5901 162.405V162.389ZM118.447 117.586C118.374 117.429 118.301 117.278 118.223 117.126C117.967 116.933 117.701 116.745 117.413 116.562C117.543 117 117.7 117.429 117.883 117.847C118.197 118.586 118.617 119.275 119.131 119.893C119.012 119.101 118.782 118.329 118.447 117.601V117.586ZM97.9272 133.82C97.6125 133.081 97.1922 132.392 96.6796 131.774C96.9306 133.366 97.5968 134.864 98.611 136.117C98.4962 135.322 98.2658 134.548 97.9272 133.82ZM116.046 195.588C115.731 194.85 115.313 194.161 114.803 193.542C114.919 194.336 115.148 195.109 115.482 195.839C115.78 196.525 116.164 197.171 116.625 197.76H116.709C116.588 197.009 116.365 196.278 116.046 195.588ZM109.38 159.21C109.062 158.473 108.642 157.784 108.132 157.164C108.392 158.752 109.055 160.248 110.058 161.507C109.943 160.713 109.714 159.939 109.38 159.21ZM61.5543 186.949C61.5229 187.059 61.4916 187.168 61.4551 187.273C61.5229 187.346 61.5856 187.424 61.6482 187.497C61.6273 187.318 61.5959 187.14 61.5543 186.965V186.949ZM82.4343 173.022C82.1174 172.286 81.6973 171.599 81.1867 170.981C81.439 172.571 82.1051 174.067 83.1181 175.319C82.9936 174.529 82.7581 173.761 82.4186 173.038L82.4343 173.022ZM86.913 193.119C86.5963 192.381 86.1762 191.692 85.6654 191.073C85.9239 192.664 86.5892 194.162 87.5968 195.421C87.474 194.631 87.2385 193.863 86.8974 193.14L86.913 193.119ZM122.028 168.94C121.291 169.258 120.602 169.678 119.982 170.188C120.776 170.07 121.549 169.84 122.279 169.504C123.019 169.189 123.71 168.769 124.33 168.256C123.528 168.376 122.747 168.611 122.012 168.956L122.028 168.94ZM66.6438 171.988L66.3775 172.709C66.9405 172.437 67.4667 172.095 67.9435 171.691C67.4954 171.75 67.0546 171.854 66.6281 172.004L66.6438 171.988ZM102.443 189.381C101.705 189.696 101.015 190.114 100.396 190.624C101.192 190.508 101.967 190.279 102.698 189.945C103.436 189.625 104.124 189.204 104.745 188.692C103.941 188.811 103.16 189.048 102.427 189.397L102.443 189.381ZM70.4283 194.038L70.0681 194.21L71.2948 194.304C71.8075 194.045 72.2876 193.726 72.7251 193.354C71.925 193.476 71.1463 193.712 70.4126 194.053L70.4283 194.038ZM82.7266 151.114C81.9912 151.435 81.3029 151.855 80.6803 152.361C82.2714 152.104 83.7692 151.441 85.0286 150.435C84.2264 150.553 83.4457 150.787 82.7109 151.129L82.7266 151.114ZM100.725 171.106C99.9872 171.425 99.2982 171.847 98.6789 172.359C100.271 172.103 101.77 171.438 103.027 170.428C102.225 170.547 101.445 170.781 100.709 171.122L100.725 171.106ZM110.121 143.623C109.385 143.943 108.696 144.363 108.075 144.871C109.666 144.618 111.163 143.954 112.418 142.944C111.613 143.063 110.828 143.297 110.09 143.639L110.121 143.623Z" fill="white"/>
<path d="M116.202 130.621C112.152 130.02 108.038 121.846 107.328 116.271C107.281 115.884 113.592 103.842 114.579 101.331C114.783 100.809 128.856 111.437 128.856 111.437C128.856 111.437 125.202 116.093 123.495 120.494C123.375 120.859 120.117 131.195 116.202 130.621Z" fill="#D3766A"/>
<path d="M128.876 111.437C128.876 111.437 125.222 116.093 123.51 120.488C123.478 120.577 123.27 121.224 122.925 122.148C115.69 118.494 112.741 111.969 111.551 107.663C112.918 104.922 114.192 102.349 114.599 101.331C114.803 100.814 128.876 111.437 128.876 111.437Z" fill="#263238"/>
<path d="M117.831 81.7704C113.713 86.5363 109.594 103.726 111.948 109.008C115.368 116.661 124.476 121.26 131.847 116.369C139.014 111.624 143.984 89.1254 141.024 83.968C136.67 76.3677 123.907 74.7339 117.831 81.7704Z" fill="#D3766A"/>
<path d="M128.835 95.7337C128.313 95.7755 127.791 95.7337 127.269 95.7337C126.715 95.8092 126.151 95.699 125.666 95.4205C125.531 95.303 125.438 95.1442 125.402 94.9687C125.366 94.7932 125.389 94.6107 125.468 94.4496C125.672 94.1552 125.95 93.9207 126.275 93.7702C126.6 93.6197 126.959 93.5587 127.316 93.5935C128.048 93.5505 128.77 93.7812 129.341 94.2408C129.462 94.3547 129.548 94.5009 129.588 94.6621C129.628 94.8233 129.621 94.9926 129.568 95.15C129.514 95.3073 129.417 95.446 129.287 95.5494C129.157 95.6529 129 95.7169 128.835 95.7337Z" fill="#263238"/>
<path d="M128.375 98.256C128.375 98.209 128.271 98.2926 128.261 98.3448C128.067 99.5193 127.645 100.835 126.512 101.012C126.475 101.012 126.465 101.075 126.512 101.08C127.833 101.153 128.375 99.4044 128.375 98.256Z" fill="#263238"/>
<path d="M127.572 96.8251C125.719 96.3031 124.821 100.056 126.528 100.531C128.235 101.006 129.122 97.2583 127.572 96.8251Z" fill="#263238"/>
<path d="M135.109 99.702C135.109 99.6603 135.187 99.7803 135.176 99.8273C134.863 100.976 134.696 102.349 135.652 102.959C135.683 102.959 135.652 103.038 135.625 103.022C134.388 102.563 134.628 100.746 135.109 99.702Z" fill="#263238"/>
<path d="M136.435 98.741C138.335 99.0437 137.589 102.818 135.83 102.536C134.07 102.254 134.843 98.4852 136.435 98.741Z" fill="#263238"/>
<path d="M138.361 96.8829C137.882 96.66 137.414 96.4108 136.962 96.1365C136.432 95.9404 135.982 95.573 135.683 95.0925C135.618 94.9245 135.61 94.7396 135.661 94.5667C135.712 94.3938 135.819 94.2428 135.965 94.1372C136.607 93.7196 137.349 93.9127 138.006 94.2364C138.677 94.5418 139.211 95.0848 139.504 95.7606C139.566 95.9195 139.58 96.0931 139.544 96.2598C139.508 96.4264 139.424 96.5789 139.303 96.6984C139.181 96.8178 139.027 96.899 138.86 96.9318C138.692 96.9646 138.519 96.9476 138.361 96.8829Z" fill="#263238"/>
<path d="M124.492 108.305C124.701 108.644 124.889 109.082 125.301 109.218C125.736 109.312 126.186 109.312 126.622 109.218C126.63 109.217 126.639 109.219 126.647 109.224C126.654 109.228 126.66 109.235 126.664 109.243C126.667 109.251 126.668 109.26 126.666 109.269C126.664 109.278 126.66 109.285 126.653 109.291C126.433 109.479 126.167 109.604 125.882 109.652C125.597 109.701 125.304 109.672 125.035 109.568C124.812 109.451 124.63 109.27 124.511 109.049C124.392 108.827 124.342 108.576 124.367 108.326C124.367 108.258 124.46 108.252 124.492 108.305Z" fill="#263238"/>
<path d="M126.538 105.125C126.724 105.654 127.018 106.138 127.399 106.549C127.781 106.959 128.243 107.287 128.757 107.511C129.203 107.712 129.676 107.849 130.161 107.918C130.252 107.938 130.345 107.949 130.438 107.949C130.526 107.955 130.615 107.955 130.704 107.949C130.768 107.953 130.832 107.935 130.885 107.898C130.938 107.861 130.977 107.807 130.996 107.745C130.999 107.704 130.999 107.662 130.996 107.62V107.516C131.231 106.628 131.471 105.25 131.471 105.25C131.758 105.49 133.241 106.639 133.33 106.164C134.024 102.249 134.791 97.8953 134.655 93.8498C134.655 93.8208 134.644 93.7929 134.623 93.7723C134.603 93.7518 134.575 93.7402 134.546 93.7402C134.517 93.7402 134.489 93.7518 134.468 93.7723C134.448 93.7929 134.436 93.8208 134.436 93.8498C133.622 97.5874 133.47 101.445 132.708 105.214C132.198 104.794 131.63 104.45 131.022 104.191C130.887 104.191 130.61 106.863 130.469 107.25C130.47 107.263 130.47 107.277 130.469 107.291C128.903 107.124 127.901 106.399 126.684 105.047C126.606 104.958 126.491 105.015 126.538 105.125Z" fill="#263238"/>
<path d="M129.743 107.338C129.1 107.857 128.334 108.202 127.519 108.341C127.073 108.403 126.619 108.324 126.219 108.116C125.353 107.652 125.53 106.795 125.875 106.106C126.062 105.743 126.292 105.403 126.559 105.094C127.353 106.163 128.469 106.95 129.743 107.338Z" fill="#263238"/>
<path d="M127.519 108.342C127.073 108.404 126.619 108.325 126.219 108.117C125.353 107.653 125.53 106.796 125.875 106.107C126.846 106.447 127.665 107.36 127.519 108.342Z" fill="#FF97B8"/>
<path d="M142.599 90.6607C135.291 93.7196 127.9 85.258 127.9 85.258C127.062 86.5422 125.833 87.5216 124.393 88.0502C122.954 88.5788 121.383 88.6284 119.913 88.1916C119.913 88.1916 116.405 98.7726 113.545 98.1357C109.197 97.2066 110.935 82.1416 112.903 79.5212C114.871 76.9008 118.734 76.9112 118.734 76.9112C118.734 76.9112 119.47 74.7136 122.591 73.2154C126.036 71.5555 135.641 76.7598 135.641 76.7598C136.513 75.5095 137.666 74.4815 139.008 73.7583C139.332 73.5763 139.69 73.4619 140.059 73.4221C140.428 73.3822 140.802 73.4178 141.157 73.5267C141.513 73.6355 141.842 73.8153 142.126 74.0552C142.41 74.2951 142.642 74.5901 142.808 74.9224C142.095 75.6083 141.547 76.4472 141.206 77.3758C140.031 80.4451 142.626 80.9828 143.205 78.0961C143.457 77.0248 143.316 75.8988 142.808 74.9224C144.479 73.3042 146.697 73.1267 147.757 74.4004C149.704 76.7337 148.681 88.1238 142.599 90.6607Z" fill="#263238"/>
<path d="M124.674 104.065C123.775 103.777 122.975 103.242 122.364 102.521C121.754 101.8 121.359 100.923 121.223 99.988C121.088 99.0536 121.217 98.0997 121.597 97.2352C121.976 96.3706 122.591 95.6301 123.371 95.0979C124.151 94.5657 125.065 94.2632 126.009 94.2249C126.952 94.1865 127.888 94.4139 128.708 94.8811C129.529 95.3483 130.202 96.0366 130.65 96.8675C131.099 97.6984 131.305 98.6386 131.246 99.581C131.197 100.346 130.973 101.09 130.594 101.757C130.214 102.423 129.687 102.994 129.054 103.426C128.42 103.858 127.696 104.14 126.938 104.251C126.179 104.362 125.405 104.298 124.674 104.065ZM127.555 95.1127C127.217 95.0031 126.866 94.9347 126.511 94.9091C125.399 94.8302 124.298 95.1787 123.434 95.8836C122.569 96.5886 122.006 97.5968 121.86 98.7025C121.713 99.8083 121.994 100.928 122.645 101.834C123.296 102.74 124.268 103.363 125.363 103.576C126.458 103.79 127.593 103.578 128.537 102.983C129.48 102.388 130.161 101.456 130.441 100.376C130.721 99.2961 130.578 98.1503 130.042 97.1722C129.505 96.1941 128.616 95.4576 127.555 95.1127Z" fill="#FFC727"/>
<path d="M135.798 106.175C133.992 105.497 133.052 103.043 133.71 100.48C133.99 99.254 134.65 98.1472 135.594 97.3168C135.976 96.9321 136.451 96.6529 136.973 96.5067C137.495 96.3605 138.046 96.3523 138.572 96.4827C139.098 96.6132 139.581 96.8779 139.974 97.251C140.367 97.6241 140.657 98.0929 140.814 98.6114C141.257 99.7892 141.321 101.076 140.997 102.292C140.329 104.985 138.152 106.775 136.143 106.274C136.025 106.252 135.91 106.219 135.798 106.175ZM138.622 97.2229L138.377 97.1498C137.955 97.0646 137.519 97.0823 137.106 97.2013C136.692 97.3203 136.313 97.5372 136.002 97.8336C135.168 98.5736 134.586 99.5554 134.336 100.642C133.757 102.981 134.618 105.215 136.273 105.622C137.928 106.029 139.734 104.463 140.313 102.13C140.604 101.053 140.549 99.9115 140.157 98.8672C140.031 98.5008 139.829 98.165 139.564 97.8817C139.3 97.5984 138.979 97.3739 138.622 97.2229Z" fill="#FFC727"/>
<path d="M130.969 100.125L130.646 99.5356C131.517 99.0502 133.417 98.549 134.373 100.058L133.798 100.413C132.948 99.0606 131.047 100.078 130.969 100.125Z" fill="#FFC727"/>
<path d="M108.691 97.0449L108.169 96.6273C108.367 96.3819 110.126 94.2261 111.645 94.2783C113.071 94.3305 121.767 96.8883 122.138 97.0188L121.945 97.6661C119.449 96.9248 112.726 94.9882 111.625 94.9517C110.612 94.9151 109.166 96.4498 108.691 97.0449Z" fill="#FFC727"/>
<path d="M115.409 97.1542C115.409 97.1542 114.005 90.4308 111.102 90.7179C108.2 91.005 107.71 99.6546 110.032 101.863C110.31 102.166 110.646 102.41 111.02 102.581C111.394 102.751 111.799 102.844 112.21 102.854C112.621 102.863 113.03 102.79 113.412 102.638C113.794 102.485 114.141 102.257 114.433 101.967L115.409 97.1542Z" fill="#D3766A"/>
<path d="M111.024 93.2039C110.983 93.1778 110.946 93.2352 110.977 93.2717C112.58 94.8795 112.825 97.1084 112.747 99.2695C112.476 98.309 111.86 97.5782 110.607 97.8549C110.544 97.8549 110.56 97.9645 110.607 97.9801C110.993 98.0159 111.359 98.1714 111.653 98.425C111.947 98.6786 112.154 99.0176 112.246 99.3948C112.399 100.024 112.485 100.668 112.502 101.316C112.502 101.53 112.867 101.572 112.888 101.316C112.885 101.298 112.885 101.281 112.888 101.264C114.005 98.8519 113.566 94.5819 111.024 93.2039Z" fill="#263238"/>
<path d="M151.197 144.343C152.518 140.866 183.139 147.162 181.917 152.491C177.433 172.014 164.936 189.459 161.778 193.447C157.634 198.667 149.386 197.509 146.379 194.345C142.021 189.757 149.892 147.788 151.197 144.343Z" fill="#D3766A"/>
<path d="M149.042 153.927C148.361 155.798 147.822 157.717 147.429 159.669C146.985 161.6 146.599 163.542 146.285 165.494C145.666 169.444 145.317 173.431 145.241 177.427C145.184 179.661 145.241 181.89 145.241 184.125C145.241 184.177 145.325 184.172 145.325 184.125C145.325 182.146 145.445 180.152 145.607 178.179C145.769 176.206 145.967 174.196 146.223 172.218C146.719 168.329 147.267 164.445 147.971 160.588C148.166 159.505 148.37 158.427 148.582 157.351C148.807 156.234 149.062 155.122 149.209 153.99C149.209 153.906 149.078 153.833 149.042 153.927Z" fill="#263238"/>
<path d="M143.811 89.3184C143.609 91.9768 143.211 94.6166 142.62 97.2163C142.521 97.66 142.412 98.1141 142.302 98.5631C141.864 100.348 141.342 102.144 140.736 103.872C140.597 104.289 140.451 104.702 140.298 105.109C138.444 110.115 135.996 114.421 133.24 116.248C132.54 116.718 131.797 117.12 131.022 117.449C127.071 115.145 123.771 111.873 121.433 107.942C119.095 104.01 117.796 99.5487 117.658 94.9769L116.823 94.7472C116.954 94.5437 117.089 94.3349 117.22 94.1156C117.35 93.8964 117.512 93.6197 117.653 93.3587C117.862 86.6381 120.577 80.2387 125.264 75.4176C131.826 73.6532 139.682 76.1745 142.986 81.9321C143.79 83.3572 144.035 86.0403 143.811 89.3184Z" fill="#D3766A"/>
<path d="M130.056 94.3934C129.501 94.4221 128.945 94.4221 128.391 94.3934C127.748 94.3934 127.237 94.4404 126.689 94.0593C126.541 93.9344 126.44 93.7633 126.402 93.5737C126.364 93.3842 126.392 93.1874 126.48 93.0153C126.882 92.3054 127.665 92.1227 128.437 92.107C129.213 92.0611 129.977 92.3048 130.583 92.7909C130.717 92.9099 130.814 93.0656 130.86 93.2388C130.907 93.412 130.902 93.5951 130.846 93.7655C130.79 93.9359 130.685 94.0862 130.545 94.1978C130.404 94.3093 130.234 94.3774 130.056 94.3934Z" fill="#263238"/>
<path d="M129.571 97.0914C129.571 97.0445 129.461 97.1332 129.451 97.1802C129.247 98.4278 128.798 99.8215 127.598 100.009C127.561 100.009 127.551 100.077 127.598 100.083C128.997 100.135 129.571 98.2816 129.571 97.0914Z" fill="#263238"/>
<path d="M128.719 95.5518C126.757 95.0037 125.807 98.9709 127.623 99.4773C129.44 99.9836 130.364 96.0112 128.719 95.5518Z" fill="#263238"/>
<path d="M136.706 98.5943C136.706 98.5526 136.79 98.6778 136.774 98.73C136.44 99.9463 136.252 101.397 137.296 102.071C137.327 102.071 137.296 102.154 137.27 102.139C135.944 101.622 136.195 99.701 136.706 98.5943Z" fill="#263238"/>
<path d="M138.11 97.5777C140.12 97.9013 139.327 101.9 137.463 101.602C135.6 101.305 136.424 97.3062 138.11 97.5777Z" fill="#263238"/>
<path d="M140.146 95.6096C139.624 95.3852 139.17 95.0876 138.669 94.8214C138.109 94.616 137.633 94.2328 137.312 93.7304C137.243 93.5532 137.235 93.3583 137.289 93.1761C137.343 92.9939 137.456 92.8346 137.609 92.723C138.293 92.2793 139.076 92.4829 139.77 92.8274C140.474 93.1527 141.032 93.7274 141.336 94.4404C141.396 94.6056 141.406 94.7843 141.367 94.9554C141.328 95.1265 141.241 95.2828 141.115 95.4058C140.99 95.5288 140.832 95.6134 140.661 95.6495C140.489 95.6856 140.31 95.6718 140.146 95.6096Z" fill="#263238"/>
<path d="M125.457 107.709C125.682 108.064 125.88 108.528 126.319 108.674C126.778 108.776 127.253 108.776 127.712 108.674C127.722 108.674 127.731 108.677 127.738 108.681C127.746 108.686 127.753 108.693 127.756 108.702C127.76 108.71 127.762 108.719 127.76 108.728C127.759 108.737 127.755 108.746 127.749 108.753C127.516 108.952 127.233 109.085 126.931 109.136C126.628 109.188 126.317 109.156 126.031 109.045C125.797 108.92 125.605 108.729 125.479 108.494C125.354 108.26 125.301 107.994 125.327 107.73C125.322 107.657 125.421 107.657 125.457 107.709Z" fill="#263238"/>
<path d="M127.629 104.337C127.824 104.898 128.133 105.412 128.536 105.848C128.939 106.284 129.429 106.631 129.973 106.869C130.446 107.082 130.947 107.226 131.461 107.297C131.558 107.319 131.658 107.331 131.758 107.333C131.85 107.339 131.943 107.339 132.035 107.333C132.103 107.337 132.171 107.319 132.228 107.28C132.285 107.241 132.327 107.185 132.348 107.119C132.353 107.078 132.353 107.035 132.348 106.994V106.884C132.598 105.945 132.87 104.483 132.87 104.483C133.173 104.739 134.744 105.955 134.833 105.454C135.569 101.278 136.399 96.6895 136.242 92.4039C136.242 92.3734 136.23 92.3442 136.208 92.3227C136.187 92.3012 136.158 92.2891 136.127 92.2891C136.097 92.2891 136.068 92.3012 136.046 92.3227C136.024 92.3442 136.012 92.3734 136.012 92.4039C135.146 96.3607 134.968 100.448 134.18 104.41C133.621 103.978 133.005 103.626 132.348 103.366C132.207 103.366 131.909 106.195 131.763 106.608C131.766 106.621 131.766 106.635 131.763 106.649C130.129 106.472 129.044 105.71 127.76 104.269C127.697 104.165 127.577 104.222 127.629 104.337Z" fill="#263238"/>
<path d="M131.021 106.687C130.34 107.232 129.529 107.591 128.667 107.731C128.196 107.799 127.715 107.715 127.294 107.491C126.37 107 126.564 106.092 126.929 105.366C127.126 104.981 127.368 104.62 127.649 104.291C128.489 105.429 129.67 106.269 131.021 106.687Z" fill="#263238"/>
<path d="M128.662 107.746C128.191 107.813 127.71 107.729 127.289 107.505C126.366 107.015 126.559 106.106 126.924 105.381C127.947 105.741 128.819 106.702 128.662 107.746Z" fill="#FF97B8"/>
<path d="M144.636 89.0224C144.359 89.1372 144.082 89.2364 143.811 89.3199C136.336 91.6376 129.064 83.296 129.064 83.296C128.181 84.6605 126.881 85.7028 125.357 86.2673C123.832 86.8318 122.167 86.8882 120.608 86.428C119.797 88.8166 118.804 91.1394 117.638 93.3758C117.778 88.9371 119.012 84.6016 121.231 80.7543C123.449 76.907 126.582 73.6668 130.354 71.3213C132.735 72.1569 135.052 73.1653 137.286 74.3385C138.211 73.0144 139.434 71.9256 140.856 71.1595C141.199 70.9664 141.577 70.8449 141.968 70.8023C142.359 70.7597 142.755 70.7968 143.131 70.9115C143.507 71.0262 143.856 71.216 144.157 71.4695C144.458 71.7229 144.704 72.0348 144.881 72.3862C144.127 73.1185 143.548 74.0104 143.184 74.9962C141.942 78.243 144.688 78.812 145.298 75.7583C145.568 74.6223 145.42 73.4271 144.881 72.3914C146.65 70.6845 148.999 70.4966 150.101 71.8694C152.158 74.2811 151.082 86.3341 144.636 89.0224Z" fill="#263238"/>
<path d="M130.693 94.0329C129.825 93.3089 128.747 92.881 127.619 92.8114C127.279 92.7894 126.938 92.8016 126.601 92.8479C125.755 92.9573 124.947 93.268 124.246 93.7539C123.545 94.2399 122.971 94.8869 122.571 95.6406C122.456 95.8514 122.358 96.0714 122.279 96.2984C122.097 96.7806 121.99 97.2874 121.96 97.8017C121.887 98.9863 122.21 100.161 122.879 101.142C123.547 102.123 124.522 102.854 125.651 103.22C126.075 103.353 126.513 103.436 126.956 103.465H127.29C128.57 103.468 129.808 103.012 130.78 102.179C131.752 101.347 132.393 100.194 132.588 98.9292C132.588 98.7779 132.625 98.6265 132.635 98.4699C132.646 98.3133 132.635 98.2402 132.635 98.1306C132.633 97.3467 132.458 96.5728 132.123 95.8644C131.787 95.1561 131.299 94.5306 130.693 94.0329ZM126.998 102.75C125.875 102.678 124.818 102.2 124.022 101.405C123.227 100.61 122.749 99.5518 122.678 98.4295C122.606 97.3072 122.946 96.1973 123.633 95.3073C124.321 94.4174 125.309 93.8084 126.413 93.5944C126.796 93.5201 127.187 93.4956 127.577 93.5213C127.96 93.5463 128.339 93.6182 128.705 93.7354C129.171 93.8852 129.609 94.109 130.004 94.3983C130.816 94.9857 131.414 95.821 131.709 96.7781C132.005 97.7353 131.981 98.7625 131.642 99.705C131.302 100.647 130.666 101.454 129.828 102.003C128.991 102.553 127.997 102.815 126.998 102.75Z" fill="#BDD9FF"/>
<path d="M142.715 97.441L142.621 97.2165C142.301 96.4826 141.752 95.8725 141.055 95.4783C140.83 95.3532 140.589 95.2584 140.34 95.1964C139.976 95.1079 139.599 95.0867 139.228 95.1338C138.471 95.2396 137.762 95.5644 137.187 96.0681C136.755 96.4358 136.382 96.867 136.08 97.347C135.85 97.7027 135.656 98.0804 135.501 98.4746C135.394 98.7287 135.307 98.9904 135.24 99.2576C135.221 99.3106 135.205 99.3646 135.193 99.4194C134.883 100.603 134.916 101.85 135.287 103.016C135.441 103.556 135.714 104.055 136.085 104.476C136.456 104.898 136.916 105.232 137.432 105.454C137.542 105.495 137.651 105.527 137.766 105.558C138.199 105.656 138.646 105.667 139.083 105.59C139.519 105.513 139.936 105.349 140.308 105.109C141.638 104.24 142.575 102.886 142.918 101.335C143.259 100.048 143.188 98.6859 142.715 97.441ZM142.193 101.163C141.955 102.181 141.449 103.117 140.726 103.872C140.386 104.269 139.947 104.569 139.454 104.743C138.961 104.917 138.432 104.959 137.918 104.864C136.164 104.431 135.25 102.066 135.866 99.5916C136.129 98.4413 136.744 97.4014 137.625 96.6162C137.957 96.3026 138.359 96.073 138.798 95.9467C139.236 95.8205 139.699 95.8013 140.147 95.8907C140.233 95.9113 140.319 95.9374 140.402 95.969C140.78 96.1301 141.12 96.3684 141.401 96.6687C141.681 96.9689 141.896 97.3244 142.031 97.7124C142.143 97.987 142.226 98.2721 142.282 98.5633C142.448 99.4244 142.425 100.312 142.214 101.163H142.193Z" fill="#BDD9FF"/>
<path d="M132.317 99.0444L131.978 98.4179C132.901 97.8959 134.916 97.3739 135.924 98.9922L135.318 99.368C134.415 97.9168 132.406 98.9974 132.317 99.0444Z" fill="#BDD9FF"/>
<path d="M122.957 95.7556L122.753 96.4394L122.278 96.2985C121.104 95.954 119.371 95.4529 117.643 94.9726L116.808 94.7429C116.938 94.5394 117.074 94.3306 117.204 94.1113L117.627 94.2314C119.715 94.8056 121.735 95.3954 122.57 95.6408L122.957 95.7556Z" fill="#BDD9FF"/>
<g opacity="0.3">
<path opacity="0.3" d="M150.336 120.471C145.135 121.617 139.712 121.194 134.751 119.257C129.791 117.32 125.516 113.955 122.468 109.589C119.419 105.222 117.734 100.05 117.626 94.7254C117.517 89.4012 118.99 84.1643 121.858 79.6771C124.726 75.1899 128.86 71.6539 133.737 69.5163C138.615 67.3787 144.017 66.7355 149.26 67.668C154.503 68.6005 159.352 71.0669 163.193 74.7553C167.034 78.4436 169.696 83.1883 170.84 88.3892C171.601 91.8421 171.674 95.411 171.055 98.8921C170.436 102.373 169.138 105.698 167.234 108.678C165.33 111.657 162.857 114.232 159.958 116.255C157.059 118.279 153.789 119.711 150.336 120.471Z" fill="white"/>
<path opacity="0.3" d="M120.932 107.104C124.342 113.329 130.072 117.957 136.877 119.982C143.681 122.006 151.009 121.263 157.268 117.914L120.932 107.104Z" fill="#EBEBEB"/>
<path opacity="0.3" d="M121.704 79.9434L171.472 94.7526C171.515 92.6142 171.305 90.4783 170.845 88.3894C170.325 85.993 169.473 83.6809 168.313 81.5199L131.575 70.584C127.538 72.8083 124.14 76.0308 121.704 79.9434Z" fill="#EBEBEB"/>
<path opacity="0.3" d="M117.82 97.3198L165.223 111.414C166.353 110.057 167.348 108.594 168.193 107.045L117.716 92.0215C117.57 93.7865 117.605 95.5618 117.82 97.3198Z" fill="#EBEBEB"/>
<path opacity="0.3" d="M119.981 83.2005L171.137 98.4273C171.19 98.1036 171.237 97.78 171.273 97.4563L120.389 82.3184C120.248 82.6055 120.107 82.8978 119.981 83.2005Z" fill="#EBEBEB"/>
<path opacity="0.3" d="M140.095 67.6283L162.802 74.3829C162.212 73.8348 161.591 73.3389 160.949 72.8169L142.506 67.3359C141.698 67.392 140.893 67.4895 140.095 67.6283Z" fill="#EBEBEB"/>
</g>
<path d="M154.042 153.757L160.955 152.234L154.26 121.836L147.348 123.358L154.042 153.757Z" fill="#EBEBEB"/>
<path d="M173.784 87.7428C172.511 81.9614 169.552 76.6874 165.281 72.5877C161.011 68.488 155.621 65.7466 149.792 64.7103C143.964 63.6739 137.959 64.3892 132.537 66.7656C127.115 69.142 122.52 73.0728 119.332 78.0609C116.144 83.049 114.507 88.8705 114.627 94.7891C114.748 100.708 116.621 106.458 120.009 111.312C123.398 116.166 128.149 119.906 133.663 122.06C139.178 124.214 145.207 124.684 150.988 123.411C158.739 121.702 165.495 116.984 169.77 110.296C174.044 103.607 175.488 95.4953 173.784 87.7428ZM150.335 120.472C145.135 121.619 139.711 121.197 134.75 119.261C129.789 117.324 125.513 113.96 122.464 109.594C119.415 105.228 117.729 100.055 117.62 94.731C117.511 89.4066 118.983 84.1693 121.851 79.6817C124.718 75.194 128.852 71.6574 133.729 69.5193C138.607 67.3811 144.009 66.7374 149.252 67.6696C154.495 68.6017 159.345 71.0679 163.186 74.7561C167.028 78.4444 169.689 83.189 170.834 88.39C171.595 91.8426 171.668 95.4111 171.05 98.892C170.431 102.373 169.133 105.698 167.23 108.677C165.326 111.656 162.855 114.231 159.956 116.255C157.057 118.279 153.788 119.712 150.335 120.472Z" fill="#455A64"/>
<path d="M156.897 175.145L167.353 172.843L161.423 145.893L150.962 148.195L156.897 175.145Z" fill="#263238"/>
<path d="M161.46 90.6506C161.449 90.62 161.44 90.5886 161.434 90.5566C161.309 90.1077 161.569 90.9899 161.476 90.6976C161.382 90.4053 161.246 89.9929 161.115 89.6536C160.659 88.4426 160.1 87.2726 159.445 86.1562C159.356 85.9996 159.257 85.843 159.168 85.6864C159.137 85.6342 159.398 86.0518 159.168 85.7229L158.986 85.441C158.745 85.0808 158.5 84.7259 158.244 84.397C157.679 83.6331 157.063 82.9077 156.402 82.2255L155.921 81.7453C155.702 81.5313 156.177 81.9802 155.874 81.7035L155.572 81.4269C155.18 81.0876 154.778 80.7587 154.361 80.4455C153.943 80.1323 153.447 79.7878 152.972 79.4902C152.753 79.3545 152.534 79.224 152.309 79.0987C151.923 78.8743 152.476 79.177 152.189 79.0309L151.777 78.8221C150.53 78.2085 149.225 77.7189 147.883 77.3605H147.815L147.669 77.3291L147.068 77.1986C146.677 77.1203 146.291 77.0525 145.894 76.9951C145.065 76.8764 144.23 76.7998 143.393 76.7654C143.161 76.739 142.936 76.6671 142.732 76.5538C142.527 76.4405 142.347 76.288 142.201 76.105C141.907 75.7354 141.772 75.2642 141.825 74.7948C141.878 74.3255 142.116 73.8966 142.485 73.6024C142.855 73.3082 143.326 73.1729 143.795 73.2262C149.129 73.3912 154.229 75.451 158.182 79.0361C160.808 81.4951 162.861 84.5015 164.195 87.8422C164.501 88.588 164.755 89.3536 164.957 90.1338C165.029 90.6002 164.914 91.0762 164.636 91.4577C164.358 91.8392 163.941 92.0951 163.475 92.1696C163.01 92.2322 162.539 92.1129 162.159 91.8368C161.78 91.5606 161.522 91.1488 161.439 90.6871L161.46 90.6506Z" fill="white"/>
<path d="M162.19 95.8963C162.243 96.2395 162.397 96.5593 162.632 96.8152C162.867 97.071 163.172 97.2513 163.51 97.3333C163.847 97.4153 164.202 97.3952 164.528 97.2756C164.854 97.156 165.137 96.9424 165.342 96.6616C165.546 96.3809 165.663 96.0458 165.676 95.6987C165.69 95.3517 165.601 95.0084 165.419 94.7123C165.238 94.4162 164.972 94.1806 164.657 94.0355C164.341 93.8904 163.99 93.8422 163.647 93.897C163.189 93.9702 162.779 94.2216 162.506 94.5962C162.233 94.9708 162.12 95.4382 162.19 95.8963Z" fill="white"/>
<path d="M179.86 158.594C179.86 158.594 187.336 146.306 178.028 134.582C174.197 129.759 165.156 121.109 146.813 122.315C142.459 122.602 136.461 126.094 143.738 128.209C148.906 129.712 152.638 129.101 155.488 130.521C155.488 130.521 148.384 135.872 148.843 140.22C149.047 142.162 149.198 146.405 150.32 150.446C150.32 150.446 151.793 151.49 152.988 151.312C152.988 151.312 156.209 160.604 167.792 163.459L179.86 158.594Z" fill="#D3766A"/>
<path d="M174.097 133.005C171.101 131.809 164.701 129.387 158.777 129.22C152.194 129.038 139.463 130.463 139.384 135.323C139.322 138.888 144.229 138.768 144.229 138.768C144.229 138.768 139.092 140.464 139.745 143.695C140.334 146.639 144.124 146.305 144.124 146.305C144.124 146.305 141.185 147.871 142.302 150.596C143.644 153.874 149.579 150.074 153.786 152.204C154.757 152.705 174.097 133.005 174.097 133.005Z" fill="#D3766A"/>
<path d="M159.732 136.206C156.731 135.548 149.522 135.799 144.291 138.654C144.171 138.717 144.156 138.842 144.291 138.806C149.317 137.34 154.502 136.488 159.732 136.269C159.779 136.269 159.779 136.243 159.732 136.206Z" fill="#263238"/>
<path d="M159.366 142.846C156.715 142.543 149.297 143.133 144.098 146.208C143.978 146.276 143.973 146.401 144.098 146.359C149.044 144.635 154.17 143.478 159.377 142.909C159.385 142.907 159.393 142.903 159.397 142.896C159.402 142.889 159.404 142.88 159.403 142.872C159.402 142.864 159.397 142.856 159.39 142.851C159.383 142.847 159.375 142.845 159.366 142.846Z" fill="#263238"/>
<path d="M170.052 164.257C167.395 163.626 164.83 162.656 162.42 161.37C159.994 160.057 157.847 158.284 156.099 156.15C155.577 155.498 155.055 154.819 154.601 154.125C154.147 153.431 153.645 152.642 153.108 151.953C153.066 151.901 152.967 151.953 152.998 152C153.603 153.449 154.348 154.836 155.222 156.14C156.006 157.359 156.942 158.473 158.009 159.455C160.116 161.329 162.612 162.712 165.317 163.505C166.854 163.933 168.427 164.218 170.015 164.356C170.094 164.377 170.125 164.273 170.052 164.257Z" fill="#263238"/>
<path d="M93.8553 124.934C80.4085 142.99 57.9678 190.049 54.6687 196.97C52.4293 201.668 76.979 214.04 78.0178 210.626C79.3541 206.251 101.304 148.508 104.379 127.456C106.06 115.914 98.5063 118.686 93.8553 124.934Z" fill="#D3766A"/>
<path d="M78.6809 208.277C78.1119 212.531 75.22 221.102 73.0694 222.413C70.9187 223.723 59.6174 223.457 53.9224 223.457C48.2274 223.457 47.1364 221.865 47.2043 219.907C47.2721 217.95 59.2468 217.574 59.2468 217.574C59.2468 217.574 43.2841 222.126 39.2699 222.893C35.2557 223.66 26.0111 225.973 24.6539 222.648C24.0536 221.144 26.5853 219.625 26.5853 219.625C26.5853 219.625 22.7068 220.758 22.0856 218.832C21.3862 216.634 24.4712 215.428 24.4712 215.428C24.4712 215.428 22.0439 215.914 21.9864 214.123C21.882 210.104 37.0618 208.141 37.0618 208.141C37.0618 208.141 25.4421 213.8 25.0558 210.532C24.5338 206.017 48.3579 201.063 50.8374 199.095C52.6415 197.591 54.3289 195.952 55.8851 194.193L78.6809 208.277Z" fill="#D3766A"/>
<path d="M47.2875 220.879C47.2473 220.602 47.2736 220.319 47.3644 220.054C47.4552 219.789 47.6078 219.549 47.8095 219.355C48.2189 218.98 48.6882 218.676 49.1981 218.457C50.2512 218.009 51.3433 217.66 52.4606 217.413C54.7052 216.844 57.0072 216.442 59.2988 215.847C56.9366 215.811 54.5794 216.075 52.2831 216.63C51.1098 216.899 49.98 217.331 48.9266 217.914C48.3812 218.214 47.9033 218.622 47.5224 219.115C47.3352 219.364 47.2152 219.657 47.1741 219.966C47.133 220.275 47.172 220.589 47.2875 220.879Z" fill="#263238"/>
<path d="M26.6221 219.606C28.2664 219.204 29.8846 218.745 31.4976 218.275C33.1105 217.805 34.7183 217.314 36.326 216.829L41.1337 215.326C42.7362 214.804 44.3388 214.323 45.957 213.838C44.277 214.023 42.6115 214.321 40.9718 214.731C39.3223 215.106 37.7041 215.576 36.0912 216.067C34.4782 216.558 32.8809 217.111 31.3044 217.695C29.728 218.28 28.1359 218.896 26.6221 219.606Z" fill="#263238"/>
<path d="M42.0839 209.844C40.5355 209.941 38.9965 210.154 37.4799 210.481C35.958 210.783 34.454 211.17 32.975 211.639C31.4924 212.099 30.0371 212.643 28.6163 213.268C27.1904 213.877 25.8105 214.589 24.4873 215.398C25.9541 214.876 27.3844 214.328 28.8408 213.832C30.2972 213.336 31.7483 212.845 33.2151 212.396C34.682 211.947 36.1488 211.504 37.6261 211.07C39.1033 210.637 40.5858 210.261 42.0839 209.844Z" fill="#263238"/>
<path d="M39.7345 206.043C37.2406 206.244 34.7837 206.77 32.4265 207.609C30.0463 208.397 27.7805 209.496 25.6875 210.877C28.0469 210.036 30.3437 209.149 32.6875 208.366C35.0313 207.583 37.3542 206.81 39.7345 206.043Z" fill="#263238"/>
<path d="M99.5717 155.884L72.3232 155.132C72.3232 155.132 87.1742 131.496 95.1294 122.826C103.434 113.795 107.955 114.573 105.121 130.572C102.265 146.681 99.5717 155.884 99.5717 155.884Z" fill="#BDD9FF"/>
<path d="M82.7103 151.13C81.9749 151.451 81.2866 151.871 80.6641 152.378C82.2552 152.121 83.7529 151.457 85.0123 150.451C84.2163 150.566 83.441 150.794 82.7103 151.13ZM97.9266 133.82C97.6119 133.082 97.1916 132.392 96.679 131.774C96.93 133.367 97.5962 134.864 98.6104 136.117C98.4956 135.322 98.2652 134.549 97.9266 133.82ZM85.3621 138.957C85.0644 139.702 84.8746 140.486 84.7983 141.285C85.7444 139.981 86.3313 138.451 86.5 136.848C86.0193 137.491 85.6359 138.202 85.3621 138.957ZM97.3681 149.627C97.0679 150.373 96.8797 151.159 96.8095 151.96C97.7499 150.652 98.3361 149.124 98.5112 147.523C98.0283 148.166 97.6398 148.874 97.3576 149.627H97.3681ZM105.355 118.594C105.224 118.865 105.104 119.142 104.989 119.424C104.695 120.17 104.505 120.953 104.426 121.752C104.906 121.114 105.293 120.411 105.574 119.664C105.6 119.596 105.621 119.533 105.642 119.465C105.567 119.167 105.468 118.875 105.344 118.594H105.355Z" fill="white"/>
<path d="M97.8642 151.144C97.2169 151.05 96.554 151.05 95.9067 151.019L93.897 150.909C92.5468 150.843 91.1913 150.789 89.8306 150.747C87.1162 150.664 84.407 150.57 81.6979 150.533C80.9514 150.533 80.2049 150.533 79.4585 150.533C78.712 150.533 77.8925 150.612 77.1095 150.617C77.0625 150.617 77.0677 150.69 77.1095 150.69C77.7776 150.732 78.4458 150.831 79.1192 150.873C79.7926 150.914 80.492 150.956 81.1811 150.982C82.5383 151.034 83.8955 151.081 85.2527 151.113C87.9201 151.175 90.5927 151.248 93.2602 151.254H95.5256C96.3034 151.254 97.0916 151.295 97.8746 151.227C97.8955 151.212 97.906 151.149 97.8642 151.144Z" fill="#263238"/>
<path d="M104.854 138.164C104.854 138.111 104.792 138.08 104.766 138.132C104.26 139.063 103.827 140.032 103.471 141.029C103.565 140.554 103.675 140.079 103.763 139.599C104.061 138.064 104.332 136.519 104.635 134.985C104.632 134.975 104.626 134.967 104.618 134.962C104.61 134.956 104.6 134.953 104.591 134.953C104.581 134.953 104.571 134.956 104.563 134.962C104.556 134.967 104.55 134.975 104.546 134.985C103.842 137.626 103.022 140.241 102.396 142.903C101.769 145.566 101.138 148.228 100.553 150.9C100.235 152.378 99.9475 154.22 99.6239 155.692C98.8356 155.786 97.823 155.692 96.9721 155.802C96.899 155.802 96.9199 155.933 96.9721 155.933C97.8699 155.959 98.94 156.162 99.8849 156.105C100.005 156.105 102.291 146.61 103.241 142.063C103.826 140.768 104.369 139.474 104.854 138.164Z" fill="#263238"/>
<path d="M124.236 123.4C123.855 124.648 123.422 125.88 122.926 127.086C122.512 128.172 122.004 129.22 121.407 130.218C120.279 131.998 118.546 133.47 116.349 133.465C114.261 133.465 112.35 132.253 111.014 130.708C109.552 129.022 108.581 126.908 107.709 124.872C107.187 123.614 106.665 122.33 106.248 121.03C106.034 120.373 105.809 119.715 105.621 119.047C105.434 118.379 105.272 117.705 105.042 117.053C105.042 117.001 104.927 117.006 104.943 117.053C105.329 118.556 106.451 123.317 106.9 124.528C107.725 126.746 108.654 129.038 110.142 130.907C111.551 132.671 113.467 134.007 115.759 134.227C118.05 134.446 120.013 133.24 121.276 131.424C122.019 130.279 122.599 129.037 122.999 127.733C123.484 126.303 123.891 124.836 124.262 123.369C124.283 123.39 124.236 123.385 124.236 123.4Z" fill="#263238"/>
<path d="M209.771 224.721H172.338L170.668 191.814H209.771V224.721Z" fill="#DBDBDB"/>
<path d="M209.771 191.815L223.218 174.98L233.919 191.815L232.249 224.722H209.771V191.815Z" fill="#C7C7C7"/>
<path d="M183.734 169.635H223.693L238.105 193.146H233.465L223.693 176.87L212.423 195.087H167.369L183.734 169.635Z" fill="#A6A6A6"/>
<path d="M188.363 177.074H179.771L175.188 182.566H185.106L188.363 177.074Z" fill="#C7C7C7"/>
<path d="M181.854 181.626V188.313H177.072V181.626L179.463 178.635L181.854 181.626Z" fill="#DBDBDB"/>
<path d="M181.854 181.621H185.612L181.854 188.313V181.621Z" fill="#C7C7C7"/>
<path d="M180.7 181.73H177.98V186.319H180.7V181.73Z" fill="#FBFAFF"/>
<path d="M179.191 182.049H178.314V183.526H179.191V182.049Z" fill="#EBEBEB"/>
<path d="M180.361 182.049H179.484V183.526H180.361V182.049Z" fill="#EBEBEB"/>
<path d="M179.191 183.791H178.314V185.978H179.191V183.791Z" fill="#EBEBEB"/>
<path d="M180.361 183.791H179.484V185.978H180.361V183.791Z" fill="#EBEBEB"/>
<path d="M209.401 177.074H200.809L196.508 182.566H206.123L209.401 177.074Z" fill="#C7C7C7"/>
<path d="M202.891 181.626V188.313H198.109V181.626L200.5 178.635L202.891 181.626Z" fill="#DBDBDB"/>
<path d="M202.891 181.621H206.654L202.891 188.313V181.621Z" fill="#C7C7C7"/>
<path d="M201.737 181.73H199.018V186.319H201.737V181.73Z" fill="#FBFAFF"/>
<path d="M200.229 182.049H199.352V183.526H200.229V182.049Z" fill="#EBEBEB"/>
<path d="M201.402 182.049H200.525V183.526H201.402V182.049Z" fill="#EBEBEB"/>
<path d="M200.229 183.791H199.352V185.978H200.229V183.791Z" fill="#EBEBEB"/>
<path d="M201.402 183.791H200.525V185.978H201.402V183.791Z" fill="#EBEBEB"/>
<path d="M216.526 168.686H211.744V174.981H216.526V168.686Z" fill="#DBDBDB"/>
<path d="M216.525 168.686H220.284V169.698L216.525 174.981V168.686Z" fill="#C7C7C7"/>
<path d="M216.526 166.545H211.207V168.685H216.526V166.545Z" fill="#C7C7C7"/>
<path d="M220.696 166.545H216.525V168.685H220.696V166.545Z" fill="#A6A6A6"/>
<path d="M182.214 197.781H176.295V207.778H182.214V197.781Z" fill="#FBFAFF"/>
<path d="M178.931 198.477H177.025V201.697H178.931V198.477Z" fill="#EBEBEB"/>
<path d="M181.483 198.477H179.578V201.697H181.483V198.477Z" fill="#EBEBEB"/>
<path d="M178.931 202.275H177.025V207.046H178.931V202.275Z" fill="#EBEBEB"/>
<path d="M181.483 202.275H179.578V207.046H181.483V202.275Z" fill="#EBEBEB"/>
<path d="M204.201 197.781H198.281V207.778H204.201V197.781Z" fill="#FBFAFF"/>
<path d="M200.917 198.477H199.012V201.697H200.917V198.477Z" fill="#EBEBEB"/>
<path d="M203.47 198.477H201.564V201.697H203.47V198.477Z" fill="#EBEBEB"/>
<path d="M200.917 202.275H199.012V207.046H200.917V202.275Z" fill="#EBEBEB"/>
<path d="M203.47 202.275H201.564V207.046H203.47V202.275Z" fill="#EBEBEB"/>
<path d="M182.214 211.672H176.295V221.668H182.214V211.672Z" fill="#FBFAFF"/>
<path d="M178.931 212.365H177.025V215.586H178.931V212.365Z" fill="#EBEBEB"/>
<path d="M181.483 212.365H179.578V215.586H181.483V212.365Z" fill="#EBEBEB"/>
<path d="M178.931 216.166H177.025V220.937H178.931V216.166Z" fill="#EBEBEB"/>
<path d="M181.483 216.166H179.578V220.937H181.483V216.166Z" fill="#EBEBEB"/>
<path d="M204.201 211.672H198.281V221.668H204.201V211.672Z" fill="#FBFAFF"/>
<path d="M200.917 212.365H199.012V215.586H200.917V212.365Z" fill="#EBEBEB"/>
<path d="M203.47 212.365H201.564V215.586H203.47V212.365Z" fill="#EBEBEB"/>
<path d="M200.917 216.166H199.012V220.937H200.917V216.166Z" fill="#EBEBEB"/>
<path d="M203.47 216.166H201.564V220.937H203.47V216.166Z" fill="#EBEBEB"/>
<path d="M193.177 197.781H187.258V207.778H193.177V197.781Z" fill="#FBFAFF"/>
<path d="M189.894 198.477H187.988V201.697H189.894V198.477Z" fill="#EBEBEB"/>
<path d="M192.45 198.477H190.545V201.697H192.45V198.477Z" fill="#EBEBEB"/>
<path d="M189.894 202.275H187.988V207.046H189.894V202.275Z" fill="#EBEBEB"/>
<path d="M192.45 202.275H190.545V207.046H192.45V202.275Z" fill="#EBEBEB"/>
<path d="M193.177 211.74H187.258V221.737H193.177V211.74Z" fill="#FBFAFF"/>
<path d="M189.894 212.43H187.988V215.65H189.894V212.43Z" fill="#EBEBEB"/>
<path d="M192.45 212.43H190.545V215.65H192.45V212.43Z" fill="#EBEBEB"/>
<path d="M189.894 216.234H187.988V221.005H189.894V216.234Z" fill="#EBEBEB"/>
<path d="M192.45 216.234H190.545V221.005H192.45V216.234Z" fill="#EBEBEB"/>
<path d="M220.409 207.777H226.328V197.781H220.409V207.777Z" fill="#FBFAFF"/>
<path d="M225.599 198.477H223.693V201.697H225.599V198.477Z" fill="#EBEBEB"/>
<path d="M223.04 198.477H221.135V201.697H223.04V198.477Z" fill="#EBEBEB"/>
<path d="M225.599 202.275H223.693V207.046H225.599V202.275Z" fill="#EBEBEB"/>
<path d="M223.04 202.275H221.135V207.046H223.04V202.275Z" fill="#EBEBEB"/>
<path d="M220.409 192.326H226.328V183.865H220.409V192.326Z" fill="#FBFAFF"/>
<path d="M225.599 184.555H223.693V187.775H225.599V184.555Z" fill="#EBEBEB"/>
<path d="M223.04 184.555H221.135V187.775H223.04V184.555Z" fill="#EBEBEB"/>
<path d="M225.599 188.391H223.693V191.611H225.599V188.391Z" fill="#EBEBEB"/>
<path d="M223.04 188.391H221.135V191.611H223.04V188.391Z" fill="#EBEBEB"/>
<path d="M219.567 224.783L226.744 224.816L226.806 211.782L219.628 211.748L219.567 224.783Z" fill="#FBFAFF"/>
<path d="M222.435 212.651L222.426 214.604L223.971 214.611L223.98 212.659L222.435 212.651Z" fill="#EBEBEB"/>
<path d="M220.415 212.641L220.406 214.594L221.951 214.601L221.961 212.649L220.415 212.641Z" fill="#EBEBEB"/>
<path d="M221.538 221.692L224.801 221.707L224.803 221.237L221.541 221.222L221.538 221.692Z" fill="#EBEBEB"/>
<path d="M223.4 211.657V213.609H224.946V211.657H223.4Z" fill="#EBEBEB"/>
<path d="M222.429 215.116L222.42 217.068L223.965 217.076L223.974 215.123L222.429 215.116Z" fill="#EBEBEB"/>
<path d="M220.394 215.1L220.385 217.053L221.93 217.06L221.939 215.108L220.394 215.1Z" fill="#EBEBEB"/>
<path d="M224.453 215.126L224.443 217.078L225.988 217.085L225.998 215.133L224.453 215.126Z" fill="#EBEBEB"/>
<path d="M222.419 217.587L222.41 219.539L223.955 219.546L223.964 217.594L222.419 217.587Z" fill="#EBEBEB"/>
<path d="M220.388 217.577L220.379 219.529L221.924 219.537L221.933 217.584L220.388 217.577Z" fill="#EBEBEB"/>
<path d="M224.443 217.597L224.434 219.549L225.979 219.556L225.988 217.604L224.443 217.597Z" fill="#EBEBEB"/>
<path d="M106.749 224.811H73.4975L72.0098 208.697H106.749V224.811Z" fill="#DBDBDB"/>
<path d="M106.738 208.675L118.682 193.725L128.192 208.675L126.705 224.789H106.738V208.675Z" fill="#C7C7C7"/>
<path d="M83.4208 188.996H119.538L132.917 211.604H129.268L119.047 194.587L109.228 211.604H69.2119L83.4208 188.996Z" fill="#A6A6A6"/>
<path d="M82.3506 214.678H77.0889V222.195H82.3506V214.678Z" fill="#FBFAFF"/>
<path d="M79.4276 215.295H77.7363V218.155H79.4276V215.295Z" fill="#DBDBDB"/>
<path d="M81.6981 215.295H80.0068V218.155H81.6981V215.295Z" fill="#DBDBDB"/>
<path d="M79.4276 218.697H77.7363V221.558H79.4276V218.697Z" fill="#DBDBDB"/>
<path d="M81.6981 218.697H80.0068V221.558H81.6981V218.697Z" fill="#DBDBDB"/>
<path d="M101.675 214.678H96.4131V222.195H101.675V214.678Z" fill="#FBFAFF"/>
<path d="M98.7518 215.295H97.0605V218.155H98.7518V215.295Z" fill="#DBDBDB"/>
<path d="M101.022 215.295H99.3311V218.155H101.022V215.295Z" fill="#DBDBDB"/>
<path d="M98.7518 218.697H97.0605V221.558H98.7518V218.697Z" fill="#DBDBDB"/>
<path d="M101.022 218.697H99.3311V221.558H101.022V218.697Z" fill="#DBDBDB"/>
<path d="M92.0445 214.277H86.2451V224.811H92.0445V214.277Z" fill="#FBFAFF"/>
<path d="M89.7681 215.002H88.5205V216.578H89.7681V215.002Z" fill="#DBDBDB"/>
<path d="M91.4077 215.002H90.1602V216.578H91.4077V215.002Z" fill="#DBDBDB"/>
<path d="M90.4623 221.918H87.8262V222.299H90.4623V221.918Z" fill="#DBDBDB"/>
<path d="M88.1294 215.002H86.8818V216.578H88.1294V215.002Z" fill="#DBDBDB"/>
<path d="M89.7681 216.996H88.5205V218.573H89.7681V216.996Z" fill="#DBDBDB"/>
<path d="M91.4077 216.996H90.1602V218.573H91.4077V216.996Z" fill="#DBDBDB"/>
<path d="M88.1294 216.996H86.8818V218.573H88.1294V216.996Z" fill="#DBDBDB"/>
<path d="M89.7681 218.99H88.5205V220.567H89.7681V218.99Z" fill="#DBDBDB"/>
<path d="M91.4077 218.99H90.1602V220.567H91.4077V218.99Z" fill="#DBDBDB"/>
<path d="M88.1294 218.99H86.8818V220.567H88.1294V218.99Z" fill="#DBDBDB"/>
<path d="M91.0626 188.094H86.8135V193.684H91.0626V188.094Z" fill="#DBDBDB"/>
<path d="M91.0625 188.094H94.4033V188.992L91.0625 193.684V188.094Z" fill="#C7C7C7"/>
<path d="M91.063 186.188H86.3389V188.088H91.063V186.188Z" fill="#C7C7C7"/>
<path d="M94.7687 186.188H91.0625V188.088H94.7687V186.188Z" fill="#A6A6A6"/>
<path d="M119.893 224.816H130.677L131.705 213.703H119.893V224.816Z" fill="#C7C7C7"/>
<path d="M119.893 213.703L114.563 211.297L114.684 224.817H119.893V213.703Z" fill="#DBDBDB"/>
<path d="M128.151 216.578H123.615V224.81H128.151V216.578Z" fill="#FBFAFF"/>
<path d="M126.371 217.143H125.395V218.374H126.371V217.143Z" fill="#DBDBDB"/>
<path d="M127.65 217.143H126.674V218.374H127.65V217.143Z" fill="#DBDBDB"/>
<path d="M126.913 221.996H124.852V222.294H126.913V221.996Z" fill="#DBDBDB"/>
<path d="M125.092 217.143H124.116V218.374H125.092V217.143Z" fill="#DBDBDB"/>
<path d="M113.749 210.742H129.419L134.483 214.595H119.439L113.749 210.742Z" fill="#A6A6A6"/>
<path d="M119.439 214.595H113.749V210.742L119.439 214.595Z" fill="#C7C7C7"/>
<path d="M116.072 205.11C116.072 205.642 116.23 206.162 116.526 206.604C116.821 207.046 117.241 207.391 117.733 207.594C118.225 207.798 118.765 207.851 119.287 207.746C119.809 207.642 120.288 207.386 120.663 207.009C121.039 206.633 121.295 206.153 121.398 205.631C121.501 205.11 121.447 204.569 121.243 204.078C121.038 203.587 120.693 203.167 120.25 202.872C119.808 202.578 119.287 202.421 118.755 202.422C118.043 202.423 117.361 202.707 116.858 203.211C116.355 203.715 116.072 204.398 116.072 205.11Z" fill="#FBFAFF"/>
<path d="M116.672 205.11C116.672 205.664 116.892 206.195 117.283 206.587C117.675 206.978 118.206 207.198 118.76 207.198C118.936 207.199 119.112 207.177 119.282 207.13C119.768 206.998 120.19 206.695 120.47 206.276C120.75 205.857 120.87 205.351 120.806 204.852C120.743 204.352 120.5 203.892 120.124 203.557C119.748 203.221 119.264 203.033 118.76 203.027C118.584 203.027 118.408 203.049 118.238 203.095C117.995 203.154 117.766 203.261 117.564 203.408C117.29 203.6 117.066 203.854 116.911 204.15C116.755 204.447 116.674 204.776 116.672 205.11Z" fill="#C7C7C7"/>
<path d="M118.467 207.564H119.047V202.616H118.467V207.564Z" fill="#FBFAFF"/>
<path d="M121.234 205.376V204.797H116.286V205.376H121.234Z" fill="#FBFAFF"/>
<path d="M135.26 224.816H118.457L117.309 212.387H135.26V224.816Z" fill="#BDD9FF"/>
<path opacity="0.2" d="M135.261 224.816H118.458L117.31 212.387H135.261V224.816Z" fill="black"/>
<path d="M135.261 212.388L144.474 200.852L151.808 212.388L150.665 224.817H135.261V212.388Z" fill="#BDD9FF"/>
<path d="M136.372 213.907H113.571L127.441 196.467H144.568L154.862 213.907H152.246L144.568 201.958L136.372 213.907Z" fill="#BDD9FF"/>
<path opacity="0.4" d="M136.372 213.907H113.571L127.441 196.467H144.568L154.862 213.907H152.246L144.568 201.958L136.372 213.907Z" fill="black"/>
<path d="M159.383 181.041H154.633V187.295H159.383V181.041Z" fill="#BDD9FF"/>
<path opacity="0.2" d="M159.383 181.041H154.633V187.295H159.383V181.041Z" fill="black"/>
<path d="M163.12 181.041H159.383V187.295H163.12V181.041Z" fill="#BDD9FF"/>
<path d="M159.382 178.91H154.1V181.035H159.382V178.91Z" fill="#BDD9FF"/>
<path opacity="0.5" d="M159.38 178.91H154.098V181.035H159.38V178.91Z" fill="black"/>
<path d="M163.528 178.91H159.383V181.035H163.528V178.91Z" fill="#BDD9FF"/>
<path opacity="0.4" d="M163.528 178.91H159.383V181.035H163.528V178.91Z" fill="black"/>
<path d="M176.075 224.8H138.883L137.218 206.775H176.075V224.8Z" fill="#BDD9FF"/>
<path opacity="0.2" d="M176.075 224.8H138.883L137.218 206.775H176.075V224.8Z" fill="black"/>
<path d="M176.076 206.775L189.434 190.045L200.073 206.775L198.407 224.8H176.076V206.775Z" fill="#BDD9FF"/>
<path d="M189.271 191.105L200.254 208.091H204.091L189.6 184.736H150.038L129.993 210.027H178.315L189.271 191.105Z" fill="#BDD9FF"/>
<path opacity="0.5" d="M189.271 191.105L200.254 208.091H204.091L189.6 184.736H150.038L129.993 210.027H178.315L189.271 191.105Z" fill="black"/>
<path d="M185.963 209.307H191.846V200.897H185.963V209.307Z" fill="#FBFAFF"/>
<path d="M191.119 201.582H189.225V204.782H191.119V201.582Z" fill="#BDD9FF"/>
<path d="M188.582 201.582H186.688V204.782H188.582V201.582Z" fill="#BDD9FF"/>
<path d="M191.119 205.393H189.225V208.592H191.119V205.393Z" fill="#BDD9FF"/>
<path d="M188.582 205.393H186.688V208.592H188.582V205.393Z" fill="#BDD9FF"/>
<path d="M148.78 213.463H142.897V221.872H148.78V213.463Z" fill="#FBFAFF"/>
<path d="M145.518 214.15H143.623V217.35H145.518V214.15Z" fill="#BDD9FF"/>
<path d="M148.06 214.15H146.165V217.35H148.06V214.15Z" fill="#BDD9FF"/>
<path d="M145.518 217.963H143.623V221.163H145.518V217.963Z" fill="#BDD9FF"/>
<path d="M148.06 217.963H146.165V221.163H148.06V217.963Z" fill="#BDD9FF"/>
<path d="M159.592 213.463H153.709V221.872H159.592V213.463Z" fill="#FBFAFF"/>
<path d="M156.323 214.15H154.428V217.35H156.323V214.15Z" fill="#BDD9FF"/>
<path d="M158.866 214.15H156.971V217.35H158.866V214.15Z" fill="#BDD9FF"/>
<path d="M156.323 217.963H154.428V221.163H156.323V217.963Z" fill="#BDD9FF"/>
<path d="M158.866 217.963H156.971V221.163H158.866V217.963Z" fill="#BDD9FF"/>
<path d="M170.397 213.463H164.514V221.872H170.397V213.463Z" fill="#FBFAFF"/>
<path d="M167.133 214.15H165.238V217.35H167.133V214.15Z" fill="#BDD9FF"/>
<path d="M169.67 214.15H167.775V217.35H169.67V214.15Z" fill="#BDD9FF"/>
<path d="M167.133 217.963H165.238V221.163H167.133V217.963Z" fill="#BDD9FF"/>
<path d="M169.67 217.963H167.775V221.163H169.67V217.963Z" fill="#BDD9FF"/>
<path d="M185.66 224.795H192.148V213.013H185.66V224.795Z" fill="#FBFAFF"/>
<path d="M189.606 213.828H188.207V215.592H189.606V213.828Z" fill="#BDD9FF"/>
<path d="M187.774 213.828H186.375V215.592H187.774V213.828Z" fill="#BDD9FF"/>
<path d="M187.43 221.992H190.379V221.564H187.43V221.992Z" fill="#BDD9FF"/>
<path d="M191.432 213.828H190.033V215.592H191.432V213.828Z" fill="#BDD9FF"/>
<path d="M189.606 216.057H188.207V217.821H189.606V216.057Z" fill="#BDD9FF"/>
<path d="M187.774 216.057H186.375V217.821H187.774V216.057Z" fill="#BDD9FF"/>
<path d="M191.432 216.057H190.033V217.821H191.432V216.057Z" fill="#BDD9FF"/>
<path d="M189.606 218.285H188.207V220.049H189.606V218.285Z" fill="#BDD9FF"/>
<path d="M187.774 218.285H186.375V220.049H187.774V218.285Z" fill="#BDD9FF"/>
<path d="M191.432 218.285H190.033V220.049H191.432V218.285Z" fill="#BDD9FF"/>
<path d="M165.354 190.791H156.814L152.424 196.272H162.091L165.354 190.791Z" fill="#BDD9FF"/>
<path opacity="0.4" d="M165.356 190.791H156.816L152.426 196.272H162.093L165.356 190.791Z" fill="black"/>
<path d="M158.886 195.312V201.957H154.131V195.312L156.511 192.342L158.886 195.312Z" fill="#BDD9FF"/>
<path opacity="0.2" d="M158.888 195.312V201.957H154.133V195.312L156.513 192.342L158.888 195.312Z" fill="black"/>
<path d="M158.887 195.312H162.624L158.887 201.958V195.312Z" fill="#BDD9FF"/>
<path d="M157.732 195.416H155.033V199.973H157.732V195.416Z" fill="#FBFAFF"/>
<path d="M156.239 195.73H155.367V197.197H156.239V195.73Z" fill="#BDD9FF"/>
<path d="M157.403 195.73H156.531V197.197H157.403V195.73Z" fill="#BDD9FF"/>
<path d="M156.239 197.469H155.367V199.645H156.239V197.469Z" fill="#BDD9FF"/>
<path d="M157.403 197.469H156.531V199.645H157.403V197.469Z" fill="#BDD9FF"/>
<path d="M214.865 127.326C217.19 129.303 218.919 131.887 219.861 134.79C220.802 137.693 220.918 140.8 220.196 143.765C219.474 146.73 217.941 149.436 215.77 151.581C213.599 153.726 210.875 155.225 207.902 155.911L204.248 163.391L200.703 155.963C198.053 155.395 195.586 154.175 193.526 152.413C191.878 151.012 190.523 149.3 189.538 147.375C188.552 145.449 187.956 143.349 187.782 141.193C187.431 136.839 188.824 132.524 191.654 129.198C194.485 125.871 198.521 123.805 202.875 123.454C207.229 123.103 211.543 124.496 214.87 127.326H214.865Z" fill="white"/>
<path d="M214.865 127.327C217.19 129.304 218.922 131.886 219.871 134.786C220.109 135.508 220.301 136.243 220.445 136.989C220.57 137.739 220.649 138.495 220.68 139.255C220.751 140.777 220.609 142.302 220.258 143.786C219.912 145.272 219.362 146.704 218.624 148.04C218.25 148.706 217.83 149.344 217.366 149.95C216.917 150.569 216.422 151.152 215.883 151.694C213.706 153.886 210.96 155.427 207.954 156.141L208.116 156.016L204.504 163.517L204.243 164.065L203.982 163.517L200.411 156.105L200.63 156.277C197.52 155.603 194.667 154.052 192.411 151.807C190.154 149.563 188.587 146.719 187.896 143.612C187.205 140.505 187.418 137.265 188.51 134.276C189.602 131.286 191.527 128.672 194.058 126.742C196.066 125.237 198.385 124.199 200.844 123.704C203.303 123.206 205.843 123.274 208.272 123.901C210.701 124.529 212.955 125.7 214.865 127.327ZM214.865 127.327C212.968 125.707 210.725 124.545 208.308 123.93C205.891 123.314 203.365 123.262 200.924 123.777C198.484 124.292 196.194 125.36 194.232 126.9C192.269 128.439 190.687 130.409 189.606 132.657C188.528 134.879 187.971 137.317 187.977 139.787C188.007 142.245 188.57 144.667 189.627 146.886C190.698 149.095 192.256 151.031 194.184 152.55C196.115 154.061 198.361 155.121 200.756 155.651L200.912 155.687L200.975 155.828L204.498 163.267H203.976L207.688 155.812L207.735 155.708H207.844C210.795 155.062 213.507 153.605 215.674 151.501C216.213 150.976 216.71 150.41 217.162 149.809C217.629 149.22 218.053 148.597 218.431 147.946C219.187 146.64 219.757 145.234 220.122 143.77C220.5 142.305 220.662 140.793 220.602 139.281C220.575 138.525 220.504 137.772 220.388 137.026C220.247 136.282 220.06 135.549 219.83 134.828C218.899 131.917 217.181 129.321 214.865 127.327Z" fill="#263238"/>
<path d="M208.669 135.69C208.486 135.504 208.283 135.34 208.063 135.2C207.772 135.011 207.466 134.845 207.15 134.704C206.383 134.356 205.562 134.144 204.722 134.077V138.775L205.156 138.864C205.903 139.042 206.64 139.262 207.364 139.522C207.96 139.731 208.521 140.028 209.029 140.404C209.471 140.744 209.828 141.182 210.073 141.683C210.334 142.263 210.461 142.895 210.443 143.531C210.464 144.237 210.318 144.938 210.015 145.577C209.736 146.137 209.328 146.624 208.825 146.997C208.292 147.385 207.693 147.672 207.056 147.842C206.351 148.036 205.625 148.14 204.895 148.15V150.531H203.72V148.103C202.651 148.039 201.596 147.823 200.588 147.461C199.617 147.112 198.707 146.61 197.895 145.974L199.048 143.802C199.266 144.026 199.51 144.224 199.774 144.392C200.127 144.622 200.497 144.826 200.88 145.003C201.331 145.211 201.797 145.385 202.274 145.525C202.786 145.676 203.31 145.783 203.84 145.843V141.145C203.751 141.119 203.652 141.088 203.558 141.067C203.463 141.047 203.368 141.021 203.276 140.988C202.568 140.805 201.871 140.582 201.188 140.32C200.651 140.12 200.15 139.833 199.706 139.469C199.324 139.154 199.018 138.756 198.813 138.305C198.593 137.793 198.488 137.239 198.505 136.682C198.491 136.006 198.623 135.335 198.892 134.714C199.142 134.147 199.513 133.642 199.977 133.232C200.457 132.806 201.014 132.475 201.616 132.255C202.288 132.011 202.991 131.863 203.704 131.817V129.525H204.879V131.817C205.811 131.864 206.73 132.064 207.599 132.407C208.379 132.711 209.117 133.113 209.796 133.602L208.669 135.69ZM201.194 136.275C201.175 136.55 201.227 136.826 201.343 137.076C201.46 137.326 201.639 137.543 201.862 137.705C202.484 138.097 203.169 138.379 203.887 138.54V134.077C203.154 134.059 202.435 134.287 201.846 134.725C201.629 134.918 201.458 135.158 201.345 135.426C201.232 135.694 201.18 135.984 201.194 136.275ZM207.755 143.797C207.769 143.498 207.703 143.201 207.563 142.937C207.424 142.673 207.216 142.451 206.962 142.293C206.269 141.882 205.52 141.572 204.738 141.375V145.859C205.517 145.897 206.291 145.716 206.972 145.337C207.226 145.171 207.432 144.942 207.57 144.672C207.707 144.401 207.771 144.1 207.755 143.797Z" fill="#BDD9FF"/>
</svg>
