<svg width="30" height="30" viewBox="0 0 30 30" fill="none" xmlns="http://www.w3.org/2000/svg">
<circle cx="15" cy="15" r="14" fill="#0089FF" stroke="white" stroke-width="2"/>
<path fill-rule="evenodd" clip-rule="evenodd" d="M18.0899 9.16021C18.3453 9.05444 18.619 9 18.8954 9C19.1717 9 19.4454 9.05444 19.7008 9.16021C19.9561 9.26597 20.1881 9.421 20.3836 9.61644C20.579 9.81187 20.734 10.0439 20.8398 10.2992C20.9456 10.5546 21 10.8283 21 11.1046C21 11.381 20.9456 11.6547 20.8398 11.9101C20.734 12.1654 20.579 12.3974 20.3836 12.5929L12.9621 20.0144C12.8944 20.082 12.8103 20.1308 12.718 20.156L9.6944 20.9806C9.50407 21.0325 9.30053 20.9785 9.16103 20.839C9.02153 20.6995 8.96748 20.4959 9.01938 20.3056L9.844 17.282C9.86917 17.1897 9.91799 17.1056 9.98564 17.0379L17.4071 9.61644C17.6026 9.421 17.8346 9.26597 18.0899 9.16021Z" fill="white"/>
</svg>
