<svg width="85" height="76" viewBox="0 0 85 76" fill="none" xmlns="http://www.w3.org/2000/svg">
<path opacity="0.07" d="M50.9774 20.4704C50.9774 20.4704 45.9033 -1.9612 33.5298 0.435911C33.5298 0.435911 22.0918 -1.23186 16.3565 15.9984C16.3565 15.9984 5.44562 45.8287 2.9859 50.0698C2.9859 50.0698 -1.73728 57.6115 1.74465 65.6602C1.74465 65.6602 5.79056 75.8011 17.3581 75.4195C17.3581 75.4195 55.7938 78.1987 74.2942 63.4062C74.2942 63.4062 86.589 55.644 83.918 45.5868C83.918 45.5868 84.5086 36.0069 70.1774 34.4329C70.1774 34.4329 57.4642 35.5757 54.8988 32.6676C54.8988 32.6676 51.1299 26.9391 50.9774 20.4704Z" fill="#0089FF"/>
</svg>
