<svg width="94" height="91" viewBox="0 0 94 91" fill="none" xmlns="http://www.w3.org/2000/svg">
<path opacity="0.07" d="M52.9774 24.4704C52.9774 24.4704 47.9033 2.0388 35.5298 4.43591C35.5298 4.43591 24.0918 2.76814 18.3565 19.9984C18.3565 19.9984 7.44562 49.8287 4.9859 54.0698C4.9859 54.0698 0.262715 61.6115 3.74465 69.6602C3.74465 69.6602 7.79056 79.8011 19.3581 79.4195C19.3581 79.4195 57.7938 82.1987 76.2942 67.4062C76.2942 67.4062 88.589 59.644 85.918 49.5868C85.918 49.5868 86.5086 40.0069 72.1774 38.4329C72.1774 38.4329 59.4642 39.5757 56.8988 36.6676C56.8988 36.6676 53.1299 30.9391 52.9774 24.4704Z" fill="#0089FF"/>
<path d="M69.6932 17.5629H64.9893V10.9774C64.9893 8.38363 62.8791 6.27344 60.2853 6.27344H28.2984C25.7047 6.27344 23.5945 8.38363 23.5945 10.9774V15.6813H31.1208V17.5629H26.4168C23.8231 17.5629 21.7129 19.6731 21.7129 22.2669V50.4906C21.7129 53.0844 23.8231 55.1946 26.4168 55.1946H39.9473L38.0657 58.9577H34.884C33.3279 58.9577 32.0616 60.224 32.0616 61.7801C32.0616 63.3362 33.3279 64.6025 34.884 64.6025H61.2261C62.7822 64.6025 64.0485 63.3362 64.0485 61.7801C64.0485 60.224 62.7822 58.9577 61.2261 58.9577H58.0443L56.1628 55.1946H60.2853H65.9301H69.6932C72.287 55.1946 74.3972 53.0844 74.3972 50.4906V22.2669C74.3972 19.6731 72.287 17.5629 69.6932 17.5629ZM63.1077 43.2512V45.7867H60.5723C61.5573 45.0942 62.4153 44.2362 63.1077 43.2512ZM54.6406 45.7867C49.9724 45.7867 46.1735 41.9877 46.1735 37.3195C46.1735 32.6513 49.9724 28.8524 54.6406 28.8524C59.3088 28.8524 63.1077 32.6513 63.1077 37.3195C63.1077 41.9877 59.3088 45.7867 54.6406 45.7867ZM64.9893 23.2077H68.7524V45.7867H64.9893V23.2077ZM63.1077 10.9774V31.3878C61.2336 28.7216 58.1403 26.9708 54.6406 26.9708C48.9347 26.9708 44.2919 31.6136 44.2919 37.3195C44.2919 40.8193 46.0427 43.9126 48.7089 45.7867H33.0024V10.9774C33.0024 9.9143 32.6345 8.9434 32.0371 8.15502H60.2853C61.8414 8.15502 63.1077 9.42132 63.1077 10.9774ZM31.1208 45.7867H27.3576V23.2077H31.1208V45.7867ZM25.4761 13.7998V10.9774C25.4761 9.42132 26.7424 8.15502 28.2984 8.15502C29.8545 8.15502 31.1208 9.42132 31.1208 10.9774V13.7998H25.4761ZM62.1669 61.7801C62.1669 62.2985 61.7445 62.7209 61.2261 62.7209H34.884C34.3656 62.7209 33.9432 62.2985 33.9432 61.7801C33.9432 61.2617 34.3656 60.8393 34.884 60.8393H61.2261C61.7445 60.8393 62.1669 61.2617 62.1669 61.7801ZM55.9407 58.9577H40.1693L42.0509 55.1946H54.0592L55.9407 58.9577ZM60.2853 53.313C59.7669 53.313 59.3445 52.8906 59.3445 52.3722C59.3445 51.8538 59.7669 51.4314 60.2853 51.4314H65.9301C66.4484 51.4314 66.8708 51.8538 66.8708 52.3722C66.8708 52.8906 66.4484 53.313 65.9301 53.313H60.2853ZM72.5156 50.4906C72.5156 52.0467 71.2493 53.313 69.6932 53.313H68.5793C68.6847 53.0176 68.7524 52.7033 68.7524 52.3722C68.7524 50.8161 67.4861 49.5498 65.9301 49.5498H60.2853C58.7292 49.5498 57.4629 50.8161 57.4629 52.3722C57.4629 52.7033 57.5307 53.0176 57.636 53.313H26.4168C24.8608 53.313 23.5945 52.0467 23.5945 50.4906V22.2669C23.5945 20.7108 24.8608 19.4445 26.4168 19.4445H31.1208V21.3261H27.3576C26.3199 21.3261 25.4761 22.17 25.4761 23.2077V45.7867C25.4761 46.8243 26.3199 47.6682 27.3576 47.6682H68.7524C69.7901 47.6682 70.634 46.8243 70.634 45.7867V23.2077C70.634 22.17 69.7901 21.3261 68.7524 21.3261H64.9893V19.4445H69.6932C71.2493 19.4445 72.5156 20.7108 72.5156 22.2669V50.4906Z" fill="#48588C"/>
<path d="M27.3574 49.5488H29.239V51.4304H27.3574V49.5488Z" fill="#48588C"/>
<path d="M31.1211 49.5488H33.0027V51.4304H31.1211V49.5488Z" fill="#48588C"/>
<path d="M34.8828 49.5488H36.7644V51.4304H34.8828V49.5488Z" fill="#48588C"/>
<path d="M54.6407 34.4956C55.1591 34.4956 55.5815 34.918 55.5815 35.4364H57.4631C57.4631 34.2115 56.6738 33.1766 55.5815 32.7871V30.7324H53.6999V32.614H51.8184V35.4364C51.8184 36.9924 53.0847 38.2587 54.6407 38.2587C55.1591 38.2587 55.5815 38.6812 55.5815 39.1995V40.1403H54.6407C54.1224 40.1403 53.6999 39.7179 53.6999 39.1995H51.8184C51.8184 40.4245 52.6077 41.4593 53.6999 41.8488V43.9035H55.5815V42.0219H57.4631V39.1995C57.4631 37.6435 56.1968 36.3772 54.6407 36.3772C54.1224 36.3772 53.6999 35.9548 53.6999 35.4364V34.4956H54.6407Z" fill="#48588C"/>
<path d="M48.9955 38.2605C49.5151 38.2605 49.9363 37.8393 49.9363 37.3197C49.9363 36.8001 49.5151 36.3789 48.9955 36.3789C48.4759 36.3789 48.0547 36.8001 48.0547 37.3197C48.0547 37.8393 48.4759 38.2605 48.9955 38.2605Z" fill="#48588C"/>
<path d="M60.2845 38.2605C60.8041 38.2605 61.2253 37.8393 61.2253 37.3197C61.2253 36.8001 60.8041 36.3789 60.2845 36.3789C59.765 36.3789 59.3438 36.8001 59.3438 37.3197C59.3438 37.8393 59.765 38.2605 60.2845 38.2605Z" fill="#48588C"/>
<path d="M61.2247 10.0352H55.58V23.2062H53.6984V13.7983H48.0537V23.2062H46.1721V17.5615H40.5273V25.0878H61.2247V10.0352ZM44.2905 23.2062H42.4089V19.4431H44.2905V23.2062ZM49.9353 15.6799H51.8168V23.2062H49.9353V15.6799ZM59.3432 23.2062H57.4616V11.9167H59.3432V23.2062Z" fill="#48588C"/>
<path d="M34.8828 42.0234H42.4091V43.905H34.8828V42.0234Z" fill="#48588C"/>
<path d="M34.8828 38.2598H42.4091V40.1413H34.8828V38.2598Z" fill="#48588C"/>
<path d="M34.8828 34.4961H42.4091V36.3777H34.8828V34.4961Z" fill="#48588C"/>
<path d="M34.8828 30.7324H42.4091V32.614H34.8828V30.7324Z" fill="#48588C"/>
<path d="M34.8828 26.9707H42.4091V28.8523H34.8828V26.9707Z" fill="#48588C"/>
<path d="M34.8828 10.0352H36.7644V11.9167H34.8828V10.0352Z" fill="#48588C"/>
<path d="M34.8828 13.7988H36.7644V15.6804H34.8828V13.7988Z" fill="#48588C"/>
<path d="M34.8828 17.5625H36.7644V19.4441H34.8828V17.5625Z" fill="#48588C"/>
</svg>
