<svg width="61" height="61" viewBox="0 0 61 61" fill="none" xmlns="http://www.w3.org/2000/svg">
<path d="M51.744 12.5629H47.04V5.97739C47.04 3.38363 44.9299 1.27344 42.3361 1.27344H10.3492C7.75545 1.27344 5.64525 3.38363 5.64525 5.97739V10.6813H13.1716V12.5629H8.46763C5.87387 12.5629 3.76367 14.6731 3.76367 17.2669V45.4906C3.76367 48.0844 5.87387 50.1946 8.46763 50.1946H21.9981L20.1165 53.9577H16.9347C15.3787 53.9577 14.1124 55.224 14.1124 56.7801C14.1124 58.3362 15.3787 59.6025 16.9347 59.6025H43.2769C44.833 59.6025 46.0993 58.3362 46.0993 56.7801C46.0993 55.224 44.833 53.9577 43.2769 53.9577H40.0951L38.2135 50.1946H42.3361H47.9808H51.744C54.3378 50.1946 56.448 48.0844 56.448 45.4906V17.2669C56.448 14.6731 54.3378 12.5629 51.744 12.5629ZM45.1585 38.2512V40.7867H42.623C43.608 40.0942 44.466 39.2362 45.1585 38.2512ZM36.6913 40.7867C32.0231 40.7867 28.2242 36.9877 28.2242 32.3195C28.2242 27.6513 32.0231 23.8524 36.6913 23.8524C41.3596 23.8524 45.1585 27.6513 45.1585 32.3195C45.1585 36.9877 41.3596 40.7867 36.6913 40.7867ZM47.04 18.2077H50.8032V40.7867H47.04V18.2077ZM45.1585 5.97739V26.3878C43.2844 23.7216 40.1911 21.9708 36.6913 21.9708C30.9855 21.9708 26.3427 26.6136 26.3427 32.3195C26.3427 35.8193 28.0935 38.9126 30.7597 40.7867H15.0532V5.97739C15.0532 4.9143 14.6853 3.9434 14.0879 3.15502H42.3361C43.8922 3.15502 45.1585 4.42132 45.1585 5.97739ZM13.1716 40.7867H9.40842V18.2077H13.1716V40.7867ZM7.52683 8.79976V5.97739C7.52683 4.42132 8.79314 3.15502 10.3492 3.15502C11.9053 3.15502 13.1716 4.42132 13.1716 5.97739V8.79976H7.52683ZM44.2177 56.7801C44.2177 57.2985 43.7953 57.7209 43.2769 57.7209H16.9347C16.4164 57.7209 15.994 57.2985 15.994 56.7801C15.994 56.2617 16.4164 55.8393 16.9347 55.8393H43.2769C43.7953 55.8393 44.2177 56.2617 44.2177 56.7801ZM37.9915 53.9577H22.2201L24.1017 50.1946H36.1099L37.9915 53.9577ZM42.3361 48.313C41.8177 48.313 41.3953 47.8906 41.3953 47.3722C41.3953 46.8538 41.8177 46.4314 42.3361 46.4314H47.9808C48.4992 46.4314 48.9216 46.8538 48.9216 47.3722C48.9216 47.8906 48.4992 48.313 47.9808 48.313H42.3361ZM54.5664 45.4906C54.5664 47.0467 53.3001 48.313 51.744 48.313H50.6301C50.7355 48.0176 50.8032 47.7033 50.8032 47.3722C50.8032 45.8161 49.5369 44.5498 47.9808 44.5498H42.3361C40.78 44.5498 39.5137 45.8161 39.5137 47.3722C39.5137 47.7033 39.5815 48.0176 39.6868 48.313H8.46763C6.91156 48.313 5.64525 47.0467 5.64525 45.4906V17.2669C5.64525 15.7108 6.91156 14.4445 8.46763 14.4445H13.1716V16.3261H9.40842C8.37072 16.3261 7.52683 17.17 7.52683 18.2077V40.7867C7.52683 41.8243 8.37072 42.6682 9.40842 42.6682H50.8032C51.8409 42.6682 52.6848 41.8243 52.6848 40.7867V18.2077C52.6848 17.17 51.8409 16.3261 50.8032 16.3261H47.04V14.4445H51.744C53.3001 14.4445 54.5664 15.7108 54.5664 17.2669V45.4906Z" fill="#48588C"/>
<path d="M9.4082 44.5488H11.2898V46.4304H9.4082V44.5488Z" fill="#48588C"/>
<path d="M13.1719 44.5488H15.0535V46.4304H13.1719V44.5488Z" fill="#48588C"/>
<path d="M16.9336 44.5488H18.8152V46.4304H16.9336V44.5488Z" fill="#48588C"/>
<path d="M36.6915 29.4956C37.2099 29.4956 37.6323 29.918 37.6323 30.4364H39.5139C39.5139 29.2115 38.7246 28.1766 37.6323 27.7871V25.7324H35.7507V27.614H33.8691V30.4364C33.8691 31.9924 35.1354 33.2587 36.6915 33.2587C37.2099 33.2587 37.6323 33.6812 37.6323 34.1995V35.1403H36.6915C36.1731 35.1403 35.7507 34.7179 35.7507 34.1995H33.8691C33.8691 35.4245 34.6585 36.4593 35.7507 36.8488V38.9035H37.6323V37.0219H39.5139V34.1995C39.5139 32.6435 38.2476 31.3772 36.6915 31.3772C36.1731 31.3772 35.7507 30.9548 35.7507 30.4364V29.4956H36.6915Z" fill="#48588C"/>
<path d="M31.0463 33.2605C31.5658 33.2605 31.9871 32.8393 31.9871 32.3197C31.9871 31.8001 31.5658 31.3789 31.0463 31.3789C30.5267 31.3789 30.1055 31.8001 30.1055 32.3197C30.1055 32.8393 30.5267 33.2605 31.0463 33.2605Z" fill="#48588C"/>
<path d="M42.3353 33.2605C42.8549 33.2605 43.2761 32.8393 43.2761 32.3197C43.2761 31.8001 42.8549 31.3789 42.3353 31.3789C41.8157 31.3789 41.3945 31.8001 41.3945 32.3197C41.3945 32.8393 41.8157 33.2605 42.3353 33.2605Z" fill="#48588C"/>
<path d="M43.2755 5.03516H37.6308V18.2062H35.7492V8.79832H30.1045V18.2062H28.2229V12.5615H22.5781V20.0878H43.2755V5.03516ZM26.3413 18.2062H24.4597V14.4431H26.3413V18.2062ZM31.986 10.6799H33.8676V18.2062H31.986V10.6799ZM41.3939 18.2062H39.5124V6.91674H41.3939V18.2062Z" fill="#48588C"/>
<path d="M16.9336 37.0234H24.4599V38.905H16.9336V37.0234Z" fill="#48588C"/>
<path d="M16.9336 33.2598H24.4599V35.1413H16.9336V33.2598Z" fill="#48588C"/>
<path d="M16.9336 29.4961H24.4599V31.3777H16.9336V29.4961Z" fill="#48588C"/>
<path d="M16.9336 25.7324H24.4599V27.614H16.9336V25.7324Z" fill="#48588C"/>
<path d="M16.9336 21.9707H24.4599V23.8523H16.9336V21.9707Z" fill="#48588C"/>
<path d="M16.9336 5.03516H18.8152V6.91674H16.9336V5.03516Z" fill="#48588C"/>
<path d="M16.9336 8.79883H18.8152V10.6804H16.9336V8.79883Z" fill="#48588C"/>
<path d="M16.9336 12.5625H18.8152V14.4441H16.9336V12.5625Z" fill="#48588C"/>
</svg>
