<svg width="63" height="63" viewBox="0 0 63 63" fill="none" xmlns="http://www.w3.org/2000/svg">
<g clip-path="url(#clip0_1012_13968)">
<path d="M4.14229 51.7953H6.21343V49.7242H4.14229C2.99824 49.7242 2.07114 48.7971 2.07114 47.653V6.23018C2.07114 5.08613 2.99824 4.15903 4.14229 4.15903H49.7074C50.8515 4.15903 51.7786 5.08613 51.7786 6.23018V8.30132H53.8497V6.23018C53.8497 3.9426 51.995 2.08789 49.7074 2.08789H4.14229C1.85471 2.08789 0 3.9426 0 6.23018V47.653C0 49.9406 1.85471 51.7953 4.14229 51.7953Z" fill="#48588C"/>
<path d="M4.14258 6.23047H6.21372V8.30161H4.14258V6.23047Z" fill="#48588C"/>
<path d="M8.28516 6.23047H10.3563V8.30161H8.28516V6.23047Z" fill="#48588C"/>
<path d="M12.4277 6.23047H14.4989V8.30161H12.4277V6.23047Z" fill="#48588C"/>
<path d="M8.28516 55.9382C8.28516 58.2258 10.1399 60.0805 12.4274 60.0805H57.9926C60.2802 60.0805 62.1349 58.2258 62.1349 55.9382V14.5153C62.1349 12.2278 60.2802 10.373 57.9926 10.373H12.4274C10.1399 10.373 8.28516 12.2278 8.28516 14.5153V55.9382ZM10.3563 14.5153C10.3563 13.3713 11.2834 12.4442 12.4274 12.4442H57.9926C59.1366 12.4442 60.0637 13.3713 60.0637 14.5153V55.9382C60.0637 57.0822 59.1366 58.0093 57.9926 58.0093H12.4274C11.2834 58.0093 10.3563 57.0822 10.3563 55.9382V14.5153Z" fill="#48588C"/>
<path d="M12.4277 14.5156H14.4989V16.5868H12.4277V14.5156Z" fill="#48588C"/>
<path d="M16.5684 14.5156H18.6395V16.5868H16.5684V14.5156Z" fill="#48588C"/>
<path d="M20.7109 14.5156H22.7821V16.5868H20.7109V14.5156Z" fill="#48588C"/>
<path d="M12.4277 18.6562H57.9929V20.7274H12.4277V18.6562Z" fill="#48588C"/>
<path d="M12.4277 23.834H20.7123V25.9051H12.4277V23.834Z" fill="#48588C"/>
<path d="M12.4277 27.9766H18.6412V30.0477H12.4277V27.9766Z" fill="#48588C"/>
<path d="M35.2099 32.1191C31.2062 32.1191 27.9609 35.3644 27.9609 39.3681C27.9609 43.3719 31.2062 46.6171 35.2099 46.6171C39.2137 46.6171 42.4589 43.3719 42.4589 39.3681C42.4543 35.3667 39.2114 32.1238 35.2099 32.1191ZM35.2099 44.546C32.3505 44.546 30.0321 42.2276 30.0321 39.3681C30.0321 36.5087 32.3505 34.1903 35.2099 34.1903C38.0694 34.1903 40.3878 36.5087 40.3878 39.3681C40.3842 42.2263 38.0681 44.5424 35.2099 44.546Z" fill="#48588C"/>
<path d="M51.7789 36.2613C51.7789 35.6891 51.3155 35.2257 50.7433 35.2257H48.0063C47.787 34.5453 47.5136 33.8833 47.1872 33.2477L49.1227 31.3136C49.5265 30.9089 49.5265 30.2537 49.1227 29.849L44.7287 25.4551C44.3241 25.0512 43.6688 25.0512 43.2642 25.4551L41.33 27.3895C40.6934 27.0643 40.0319 26.791 39.352 26.5714V23.8344C39.352 23.2622 38.8886 22.7988 38.3165 22.7988H32.1031C31.5309 22.7988 31.0675 23.2622 31.0675 23.8344V26.5714C30.3876 26.791 29.7262 27.0643 29.0895 27.3895L27.1554 25.4551C26.7507 25.0512 26.0954 25.0512 25.6908 25.4551L21.2969 29.849C20.893 30.2537 20.893 30.9089 21.2969 31.3136L23.2313 33.2477C23.1448 33.4173 23.0615 33.5874 22.9828 33.7593C22.7643 34.2367 22.5742 34.726 22.4132 35.2257H19.6762C19.104 35.2257 18.6406 35.6891 18.6406 36.2613V42.4747C18.6406 43.0468 19.104 43.5103 19.6762 43.5103H22.4132C22.6325 44.1906 22.9059 44.8526 23.2323 45.4882L21.2969 47.4224C20.893 47.827 20.893 48.4823 21.2969 48.887L25.6908 53.2809C26.0954 53.6848 26.7507 53.6848 27.1554 53.2809L29.0895 51.3464C29.7262 51.6716 30.3876 51.945 31.0675 52.1645V54.9016C31.0675 55.4737 31.5309 55.9371 32.1031 55.9371H38.3165C38.8886 55.9371 39.352 55.4737 39.352 54.9016V52.1645C40.0319 51.945 40.6934 51.6716 41.33 51.3464L43.2642 53.2809C43.6688 53.6848 44.3241 53.6848 44.7287 53.2809L49.1227 48.887C49.5265 48.4823 49.5265 47.827 49.1227 47.4224L47.1872 45.4882C47.5136 44.8526 47.787 44.1906 48.0063 43.5103H50.7433C51.3155 43.5103 51.7789 43.0468 51.7789 42.4747V36.2613ZM49.7078 41.4391H47.2286C46.7564 41.4391 46.3442 41.7589 46.2262 42.2158C45.9616 43.2436 45.5538 44.23 45.0146 45.1444C44.7746 45.5509 44.8406 46.0686 45.174 46.4026L46.9249 48.1545L43.9963 51.0844L42.2444 49.3322C41.9102 48.9983 41.3924 48.9325 40.9857 49.1728C40.0713 49.712 39.0854 50.1201 38.0576 50.3844C37.6006 50.5024 37.2809 50.9146 37.2809 51.3868V53.866H33.1386V51.3868C33.1386 50.9146 32.8189 50.5024 32.3619 50.3844C31.3341 50.1201 30.3483 49.712 29.4339 49.1728C29.0271 48.9325 28.5094 48.9983 28.1751 49.3322L26.4232 51.0844L23.4946 48.1545L25.2455 46.4026C25.579 46.0686 25.645 45.5509 25.405 45.1444C24.8657 44.23 24.4579 43.2436 24.1934 42.2158C24.0753 41.7589 23.6631 41.4391 23.1909 41.4391H20.7118V37.2968H23.1909C23.6631 37.2968 24.0753 36.9771 24.1934 36.5202C24.3606 35.8683 24.5861 35.2335 24.8667 34.6222C25.0285 34.2678 25.2082 33.9222 25.405 33.5866C25.6442 33.1799 25.5787 32.6629 25.2455 32.3292L23.4946 30.5773L26.4232 27.6474L28.1751 29.4001C28.5094 29.7341 29.0271 29.7993 29.4339 29.5588C30.3483 29.02 31.3341 28.6115 32.3619 28.3472C32.8189 28.2294 33.1386 27.8167 33.1386 27.3452V24.87H37.2809V27.3491C37.2809 27.8214 37.6006 28.2335 38.0576 28.3516C39.0854 28.6159 40.0713 29.0239 40.9857 29.5632C41.3924 29.8034 41.9102 29.7377 42.2444 29.4037L43.9963 27.6515L46.9249 30.5814L45.174 32.3333C44.8406 32.6673 44.7746 33.1851 45.0146 33.5916C45.5538 34.506 45.9616 35.4923 46.2262 36.5202C46.3442 36.9771 46.7564 37.2968 47.2286 37.2968H49.7078V41.4391Z" fill="#48588C"/>
<path d="M51.7793 53.8672H57.9927V55.9383H51.7793V53.8672Z" fill="#48588C"/>
</g>
<defs>
<clipPath id="clip0_1012_13968">
<rect width="62.1343" height="62.1343" fill="white"/>
</clipPath>
</defs>
</svg>
