<svg width="53" height="63" viewBox="0 0 53 63" fill="none" xmlns="http://www.w3.org/2000/svg">
<path d="M24.5323 46.7129H24.0955C23.5981 46.7129 23.1855 47.1254 23.1855 47.6229C23.1855 48.1203 23.5981 48.5329 24.0955 48.5329H24.5323C25.0298 48.5329 25.4423 48.1203 25.4423 47.6229C25.4423 47.1254 25.0298 46.7129 24.5323 46.7129Z" fill="#48588C"/>
<path d="M29.5926 30.248H26.1346C25.6371 30.248 25.2246 30.6606 25.2246 31.158C25.2246 31.6555 25.6371 32.068 26.1346 32.068H29.5926C30.09 32.068 30.5026 31.6555 30.5026 31.158C30.5026 30.6606 30.09 30.248 29.5926 30.248Z" fill="#48588C"/>
<path d="M29.5926 33.5488H26.1346C25.6371 33.5488 25.2246 33.9614 25.2246 34.4588C25.2246 34.9563 25.6371 35.3688 26.1346 35.3688H29.5926C30.09 35.3688 30.5026 34.9563 30.5026 34.4588C30.5026 33.9614 30.09 33.5488 29.5926 33.5488Z" fill="#48588C"/>
<path d="M37.7113 30.248H34.2655C33.768 30.248 33.3555 30.6606 33.3555 31.158C33.3555 31.6555 33.768 32.068 34.2655 32.068H37.7234C38.2209 32.068 38.6334 31.6555 38.6334 31.158C38.6334 30.6606 38.2209 30.248 37.7113 30.248Z" fill="#48588C"/>
<path d="M37.7113 33.5488H34.2655C33.768 33.5488 33.3555 33.9614 33.3555 34.4588C33.3555 34.9563 33.768 35.3688 34.2655 35.3688H37.7234C38.2209 35.3688 38.6334 34.9563 38.6334 34.4588C38.6334 33.9614 38.2209 33.5488 37.7113 33.5488Z" fill="#48588C"/>
<path d="M45.8383 30.248H42.3924C41.895 30.248 41.4824 30.6606 41.4824 31.158C41.4824 31.6555 41.895 32.068 42.3924 32.068H45.8504C46.3478 32.068 46.7604 31.6555 46.7604 31.158C46.7604 30.6606 46.3478 30.248 45.8383 30.248Z" fill="#48588C"/>
<path d="M45.8402 33.5488H42.3944C41.8969 33.5488 41.4844 33.9614 41.4844 34.4588C41.4844 34.9563 41.8969 35.3688 42.3944 35.3688H45.8523C46.3498 35.3688 46.7623 34.9563 46.7623 34.4588C46.7623 33.9614 46.3498 33.5488 45.8402 33.5488Z" fill="#48588C"/>
<path d="M27.8571 22.6523C26.1949 22.6523 24.8359 24.0113 24.8359 25.6735C24.8359 27.3358 26.1949 28.6947 27.8571 28.6947C29.5194 28.6947 30.8783 27.3358 30.8783 25.6735C30.8783 24.0113 29.5194 22.6523 27.8571 22.6523ZM27.8571 26.8747C27.2019 26.8747 26.6559 26.3408 26.6559 25.6735C26.6559 25.0183 27.1898 24.4723 27.8571 24.4723C28.5123 24.4723 29.0583 25.0062 29.0583 25.6735C29.0583 26.3408 28.5244 26.8747 27.8571 26.8747Z" fill="#48588C"/>
<path d="M35.988 22.6523C34.3257 22.6523 32.9668 24.0113 32.9668 25.6735C32.9668 27.3358 34.3257 28.6947 35.988 28.6947C37.6502 28.6947 39.0092 27.3358 39.0092 25.6735C39.0092 24.0113 37.6502 22.6523 35.988 22.6523ZM35.988 26.8747C35.3328 26.8747 34.7868 26.3408 34.7868 25.6735C34.7868 25.0183 35.3206 24.4723 35.988 24.4723C36.6553 24.4723 37.1892 25.0062 37.1892 25.6735C37.1892 26.3408 36.6553 26.8747 35.988 26.8747Z" fill="#48588C"/>
<path d="M44.1169 22.6523C42.4546 22.6523 41.0957 24.0113 41.0957 25.6735C41.0957 27.3358 42.4546 28.6947 44.1169 28.6947C45.7791 28.6947 47.1381 27.3358 47.1381 25.6735C47.1381 24.0113 45.7791 22.6523 44.1169 22.6523ZM44.1169 26.8747C43.4617 26.8747 42.9157 26.3408 42.9157 25.6735C42.9157 25.0183 43.4496 24.4723 44.1169 24.4723C44.7721 24.4723 45.3181 25.0062 45.3181 25.6735C45.3181 26.3408 44.7721 26.8747 44.1169 26.8747Z" fill="#48588C"/>
<path d="M51.1052 0H37.9285C37.431 0 37.0185 0.41253 37.0185 0.909993C37.0185 1.40746 37.431 1.81999 37.9285 1.81999H50.4379V7.11008H21.1725V1.81999H33.6819C34.1793 1.81999 34.5919 1.40746 34.5919 0.909993C34.5919 0.41253 34.1915 0 33.6819 0H20.5173C19.8742 0 19.3525 0.521729 19.3525 1.16479C19.3525 1.66225 19.3525 10.7015 19.3525 10.9684H2.59651C1.16479 10.9684 0 12.1332 0 13.565C0 14.9603 0 48.2175 0 49.9647C0 51.3115 1.01919 52.4156 2.32958 52.549C2.41451 52.5612 2.49945 52.5612 2.59651 52.5612H18.5517V56.5045H16.2828C14.9967 56.5045 13.9532 57.5479 13.9532 58.8341V59.8047C13.9532 61.0908 14.9967 62.1343 16.2828 62.1343H22.0704C22.5678 62.1343 22.9803 61.7218 22.9803 61.2243C22.9803 60.7268 22.5678 60.3143 22.0704 60.3143H16.2828C16.0037 60.3143 15.7732 60.0838 15.7732 59.8047V58.8341C15.7732 58.555 16.0037 58.3245 16.2828 58.3245C17.7509 58.3245 30.0904 58.3245 31.874 58.3245C32.1531 58.3245 32.3836 58.555 32.3836 58.8341V59.8047C32.3836 60.0838 32.1531 60.3143 31.874 60.3143H26.3291C25.8317 60.3143 25.4191 60.7268 25.4191 61.2243C25.4191 61.7218 25.8317 62.1343 26.3291 62.1343H31.874C33.1601 62.1343 34.2036 61.0908 34.2036 59.8047V58.8341C34.2036 57.5479 33.1601 56.5045 31.874 56.5045H29.6051V52.5612H46.0092C47.4409 52.5612 48.6057 51.3964 48.6057 49.9647C48.6057 49.54 48.6057 40.6463 48.6057 40.2338H51.0931C51.7361 40.2338 52.2578 39.7121 52.2578 39.069C52.2578 38.4138 52.2578 1.44386 52.2578 1.16479C52.27 0.521729 51.7482 0 51.1052 0ZM46.1912 8.93006L35.8173 12.7035L25.4434 8.93006H46.1912ZM46.1912 18.4061H25.4313L35.8052 14.6327L46.1912 18.4061ZM21.1725 9.31833L33.148 13.6742L21.1725 18.03C21.1725 17.1564 21.1725 10.3618 21.1725 9.31833ZM20.5173 40.2338H20.5416H43.3278V42.6847H5.29009V20.493C6.60048 20.493 17.7267 20.493 19.3646 20.493V39.0448V39.069C19.3525 39.7121 19.8742 40.2338 20.5173 40.2338ZM5.29009 18.673V16.5497C5.29009 16.5012 5.32649 16.4648 5.37502 16.4648H7.89874V18.673H5.29009ZM9.71872 18.673V16.4648H19.3525V18.673H9.71872ZM1.83212 13.565C1.83212 13.1403 2.18398 12.7884 2.60865 12.7884H19.3646V14.6448C12.7763 14.6448 12.109 14.6448 5.38716 14.6448C4.33157 14.6448 3.48224 15.5063 3.48224 16.5497C3.48224 18.2363 3.48224 41.9203 3.48224 42.6847H1.83212V13.565ZM27.7972 56.4923H20.3838V52.549H27.7972V56.4923ZM46.7858 49.9647C46.7858 50.3893 46.4339 50.7412 46.0092 50.7412C45.3419 50.7412 3.27597 50.7412 2.59651 50.7412C2.57225 50.7412 2.54798 50.7412 2.51158 50.7412C2.12332 50.7048 1.81999 50.3772 1.81999 49.9768V44.529C2.37811 44.529 46.2276 44.529 46.7858 44.529V49.9647ZM45.1478 42.6847V40.2338H46.7858V42.6847H45.1478ZM50.4379 38.4138C49.3216 38.4138 22.3373 38.4138 21.1725 38.4138V20.2261H50.4379V38.4138ZM50.4379 18.0179L38.4624 13.662L50.4379 9.30619V18.0179Z" fill="#48588C"/>
</svg>
