<svg width="63" height="56" viewBox="0 0 63 56" fill="none" xmlns="http://www.w3.org/2000/svg">
<path d="M61.7695 49.0602C61.1748 47.8345 59.9249 47.0457 58.5657 47.0457H56.9881C57.7526 46.1477 58.2138 44.9826 58.2138 43.7205V31.8155C58.2138 31.318 57.8011 30.9053 57.3036 30.9053C56.806 30.9053 56.3934 31.318 56.3934 31.8155V43.7205C56.3934 45.553 54.9007 47.0457 53.0683 47.0457C52.7042 47.0457 10.181 47.0457 9.05241 47.0457C7.21994 47.0457 5.72726 45.553 5.72726 43.7205V13.7941C5.72726 11.9617 7.21994 10.469 9.05241 10.469H19.2706C19.1007 11.3306 19.04 12.1801 19.0643 13.066C13.8824 13.066 15.4964 13.066 9.93831 13.066C9.02814 13.066 8.28787 13.8063 8.28787 14.7164C8.28787 15.9179 8.28787 41.1235 8.28787 42.5555C8.28787 43.6113 9.1495 44.4729 10.2053 44.4729H51.9032C52.959 44.4729 53.8207 43.6113 53.8207 42.5555C53.8207 41.791 53.8207 16.1606 53.8207 14.9834C53.8207 13.9276 52.959 13.066 51.9032 13.066H43.0442C43.0564 12.8112 43.0564 12.6898 43.0564 12.6898C43.0564 11.9374 42.9836 11.1729 42.8501 10.4569H53.0683C54.9007 10.4569 56.3934 11.9495 56.3934 13.782V27.5559C56.3934 28.0535 56.806 28.4661 57.3036 28.4661C57.8011 28.4661 58.2138 28.0535 58.2138 27.5559V13.7941C58.2138 10.9544 55.908 8.64865 53.0683 8.64865H42.3647C40.9569 4.71671 37.559 1.69495 33.2751 0.893998C32.7775 0.796913 32.3042 1.12457 32.2193 1.62213C32.1222 2.11969 32.4499 2.59298 32.9474 2.67793C42.8743 4.52254 44.2942 18.3207 34.8891 22.1313C34.3673 22.3376 34.0396 22.8352 34.0396 23.4055V25.5414H31.9766V17.4106H33.36C34.5008 17.4106 35.4231 16.4882 35.4231 15.3475V14.4131C35.4231 13.2723 34.5008 12.35 33.36 12.35H28.7728C27.632 12.35 26.7097 13.2723 26.7097 14.4131V15.3475C26.7097 16.4882 27.632 17.4106 28.7728 17.4106H30.1562V25.5414H28.0932C28.0932 23.1507 28.0932 23.2963 28.081 23.175C28.0204 22.7017 27.7048 22.3255 27.2801 22.1556C17.8507 18.3814 19.2342 4.71671 29.0398 2.71434C29.5373 2.61725 29.8528 2.13183 29.7436 1.64641C29.6465 1.14885 29.1611 0.83332 28.6757 0.930404C24.7073 1.74349 21.2366 4.59536 19.7803 8.64865H9.06455C6.22482 8.64865 3.91905 10.9544 3.91905 13.7941V43.7205C3.91905 44.9826 4.3802 46.1477 5.14475 47.0457H3.56712C2.20793 47.0457 0.957964 47.8345 0.363319 49.0602C-0.898784 51.6936 1.26135 55.9654 5.30251 55.9654H56.8303C60.8957 55.9654 63.0316 51.6694 61.7695 49.0602ZM10.1203 14.9834C10.1203 14.9349 10.1689 14.8863 10.2174 14.8863H14.1494V17.8596H10.1203V14.9834ZM42.8743 14.8863H51.9154C51.9639 14.8863 52.0125 14.9349 52.0125 14.9834V17.8596H41.9035C42.3525 16.9373 42.6802 15.93 42.8743 14.8863ZM28.7728 15.5902C28.6393 15.5902 28.5301 15.481 28.5301 15.3475V14.4131C28.5301 14.2796 28.6393 14.1703 28.7728 14.1703H33.36C33.4935 14.1703 33.6027 14.2796 33.6027 14.4131V15.3475C33.6027 15.481 33.4935 15.5902 33.36 15.5902H28.7728ZM26.6612 27.835C26.6612 27.6166 26.8189 27.3617 27.1951 27.3617H34.9498C35.3017 27.3617 35.4838 27.6045 35.4838 27.835V28.3083C35.4838 28.5632 35.2653 28.7816 35.0105 28.7816C34.1731 28.7816 27.9354 28.7816 27.1345 28.7816C26.8796 28.7816 26.6612 28.5632 26.6612 28.3083V27.835ZM33.0202 30.602L32.462 31.7184C32.195 32.2524 31.6732 32.5801 31.0664 32.5801C30.4596 32.5801 29.9378 32.2524 29.6708 31.7184L29.1126 30.602H33.0202ZM21.3094 19.692C22.5957 21.4881 24.3554 22.8716 26.285 23.7089V25.6385C25.4476 25.9055 24.8408 26.6822 24.8408 27.6045C24.8408 28.0535 24.8408 28.0777 24.8408 28.5389C24.8408 29.6796 25.7631 30.602 26.9039 30.602H27.0859C27.6806 31.7912 27.4621 31.3544 28.0568 32.5315C28.6271 33.6844 29.7922 34.4004 31.0785 34.4004C32.3649 34.4004 33.5299 33.6844 34.1003 32.5315L35.0712 30.602H35.2532C36.3939 30.602 37.3162 29.6796 37.3162 28.5389V27.6045C37.3162 26.6822 36.7095 25.9055 35.8721 25.6385V23.7089C37.8502 22.8473 39.5856 21.4638 40.8477 19.692H52.0246V42.5677C52.0246 42.6162 51.976 42.6647 51.9275 42.6647H10.2174C10.1689 42.6647 10.1203 42.6162 10.1203 42.5677V19.692C11.346 19.692 20.0715 19.692 21.3094 19.692ZM20.2293 17.8717H15.9697V14.8985H19.2706C19.4526 15.9057 19.7803 16.913 20.2293 17.8717ZM24.4282 48.866H37.7046V49.4728C37.7046 50.0917 37.1949 50.6014 36.576 50.6014H25.5447C24.9258 50.6014 24.4161 50.0917 24.4161 49.4728V48.866H24.4282ZM56.8303 54.145H5.30251C2.58414 54.145 1.32203 51.2568 2.00163 49.849C2.29288 49.2544 2.89966 48.866 3.56712 48.866C4.08895 48.866 21.6613 48.866 22.62 48.866V49.4728C22.62 51.099 23.9428 52.4218 25.569 52.4218H36.6002C38.2264 52.4218 39.5492 51.099 39.5492 49.4728V48.866C40.52 48.866 58.0681 48.866 58.6021 48.866C59.2574 48.866 59.8763 49.2544 60.1676 49.849C60.7986 51.2325 59.5851 54.145 56.8303 54.145Z" fill="#48588C"/>
</svg>
