<svg width="63" height="63" viewBox="0 0 63 63" fill="none" xmlns="http://www.w3.org/2000/svg">
<path d="M25.2428 36.8932C27.3845 36.8932 29.1262 35.1515 29.1262 33.0098H27.1845C27.1845 34.0806 26.3136 34.9515 25.2428 34.9515C24.1719 34.9515 23.3011 34.0806 23.3011 33.0098H21.3594C21.3594 35.1515 23.1011 36.8932 25.2428 36.8932Z" fill="#48588C"/>
<path d="M20.3869 26.2132C20.923 26.2132 21.3577 25.7785 21.3577 25.2423C21.3577 24.7061 20.923 24.2715 20.3869 24.2715C19.8507 24.2715 19.416 24.7061 19.416 25.2423C19.416 25.7785 19.8507 26.2132 20.3869 26.2132Z" fill="#48588C"/>
<path d="M30.0958 26.2132C30.632 26.2132 31.0667 25.7785 31.0667 25.2423C31.0667 24.7061 30.632 24.2715 30.0958 24.2715C29.5597 24.2715 29.125 24.7061 29.125 25.2423C29.125 25.7785 29.5597 26.2132 30.0958 26.2132Z" fill="#48588C"/>
<path d="M61.1633 0.970703H20.3877V5.70359C14.7402 7.70936 10.6792 13.0908 10.6792 19.4168V27.1836C10.6792 29.7525 12.6918 31.8408 15.2189 32.0058C16.1189 35.1164 17.9159 37.8746 20.3877 39.9512V41.1774C20.3877 42.3211 19.7139 43.3638 18.6702 43.8327L8.62584 48.353C3.97548 50.4461 0.970703 55.0926 0.970703 60.1925V61.1633H49.5131V60.1925C49.5131 55.0926 46.5084 50.4461 41.858 48.353L40.1221 47.5714H61.1633V0.970703ZM25.2419 6.79579C32.201 6.79579 37.8629 12.4578 37.8629 19.4168V23.3255C37.0494 22.709 36.0475 22.3294 34.9504 22.3294H34.9252C34.0378 21.1576 32.6456 20.3877 31.067 20.3877H24.1817C22.5274 20.3877 20.9255 19.9022 19.5479 18.9848C19.0197 18.6314 18.4042 18.446 17.7693 18.446C16.0004 18.446 14.5626 19.8838 14.5626 21.6527V22.4274C13.8412 22.575 13.1879 22.8954 12.6209 23.3245V19.4168C12.6209 12.4578 18.2829 6.79579 25.2419 6.79579ZM35.8387 24.4245C37.0086 24.8021 37.8629 25.8895 37.8629 27.1836C37.8629 28.5214 36.9503 29.6408 35.7193 29.9797C35.8504 29.1389 35.9212 28.2797 35.9212 27.4059V25.2419C35.9212 24.9623 35.8844 24.6914 35.8387 24.4245ZM12.6209 27.1836C12.6209 25.9196 13.4354 24.8516 14.5626 24.4497V27.4059C14.5626 28.2787 14.6335 29.1379 14.7645 29.9797C13.5325 29.6408 12.6209 28.5214 12.6209 27.1836ZM16.5043 27.4059V21.6517C16.5043 20.9546 17.0713 20.3877 17.7693 20.3877C18.0198 20.3877 18.2625 20.4605 18.4712 20.6003C20.1673 21.7313 22.143 22.3294 24.1817 22.3294H31.067C32.6728 22.3294 33.9795 23.6361 33.9795 25.2419V27.4059C33.9795 33.2281 30.5631 38.4018 25.2419 40.6949C19.9207 38.4027 16.5043 33.2291 16.5043 27.4059ZM24.8817 42.6483L25.2419 42.7919L25.6021 42.6483C26.5069 42.2861 27.3593 41.8444 28.1671 41.3454C28.1914 42.0463 28.3651 42.7191 28.668 43.3288L25.2419 47.8947L21.8168 43.3279C22.1187 42.7191 22.2925 42.0463 22.3177 41.3444C23.1245 41.8434 23.9769 42.2861 24.8817 42.6483ZM33.1514 46.5647L33.897 51.0325L29.7505 54.1421L31.6359 56.9712L27.8855 59.2216H27.6147L32.4815 46.2627L33.1514 46.5647ZM18.8479 56.9712L20.7333 54.1421L16.5868 51.0325L17.3324 46.5647L18.0023 46.2637L22.8692 59.2216H22.5983L18.8479 56.9712ZM23.9119 49.3578L21.877 51.0539L19.7692 45.4414C20.0566 45.287 20.3284 45.1113 20.5741 44.9065L23.9119 49.3578ZM22.5993 52.9791L25.2419 50.7772L27.8846 52.9791L25.54 59.2216H24.9439L22.5993 52.9791ZM28.6078 51.0539L26.572 49.3578L29.9107 44.9055C30.1563 45.1103 30.4282 45.2861 30.7156 45.4404L28.6078 51.0539ZM9.42194 50.1238L15.2053 47.5219L14.4791 51.8781L18.0994 54.5936L16.1014 57.5896L18.8236 59.2216H10.6792V53.3965H8.73749V59.2216H2.95512C3.30462 55.2741 5.76475 51.7694 9.42194 50.1238ZM47.5287 59.2216H41.7463V53.3965H39.8046V59.2216H31.6602L34.3815 57.5886L32.3835 54.5926L36.0038 51.8771L35.2776 47.5209L41.0609 50.1228C44.7191 51.7694 47.1792 55.2741 47.5287 59.2216ZM59.2216 45.6297H35.8067L31.8136 43.8327C30.7699 43.3638 30.0962 42.3211 30.0962 41.1774V39.9512C32.5679 37.8746 34.365 35.1164 35.265 32.0058C37.7921 31.8408 39.8046 29.7525 39.8046 27.1836V19.4168C39.8046 11.3869 33.2718 4.8541 25.2419 4.8541C24.2449 4.8541 23.2711 4.95604 22.3294 5.14729V2.9124H59.2216V45.6297Z" fill="#48588C"/>
<path d="M51.4551 43.6877H57.2802V16.5039H51.4551V43.6877ZM53.3968 18.4456H55.3385V41.746H53.3968V18.4456Z" fill="#48588C"/>
<path d="M43.6875 43.6885H49.5126V24.2715H43.6875V43.6885ZM45.6292 26.2132H47.5709V41.7468H45.6292V26.2132Z" fill="#48588C"/>
<path d="M35.9219 43.689H41.747V33.9805H35.9219V43.689ZM37.8636 35.9222H39.8053V41.7473H37.8636V35.9222Z" fill="#48588C"/>
<path d="M55.3379 4.85352H57.2796V6.79521H55.3379V4.85352Z" fill="#48588C"/>
<path d="M51.4551 4.85352H53.3968V6.79521H51.4551V4.85352Z" fill="#48588C"/>
<path d="M41.7461 4.85352H49.5129V6.79521H41.7461V4.85352Z" fill="#48588C"/>
<path d="M41.7461 8.73828H57.2797V10.68H41.7461V8.73828Z" fill="#48588C"/>
<path d="M41.7461 12.6211H57.2797V14.5628H41.7461V12.6211Z" fill="#48588C"/>
</svg>
