<svg width="94" height="91" viewBox="0 0 94 91" fill="none" xmlns="http://www.w3.org/2000/svg">
<path opacity="0.07" d="M52.9774 24.4704C52.9774 24.4704 47.9033 2.0388 35.5298 4.43591C35.5298 4.43591 24.0918 2.76814 18.3565 19.9984C18.3565 19.9984 7.44562 49.8287 4.9859 54.0698C4.9859 54.0698 0.262715 61.6115 3.74465 69.6602C3.74465 69.6602 7.79056 79.8011 19.3581 79.4195C19.3581 79.4195 57.7938 82.1987 76.2942 67.4062C76.2942 67.4062 88.589 59.644 85.918 49.5868C85.918 49.5868 86.5086 40.0069 72.1774 38.4329C72.1774 38.4329 59.4642 39.5757 56.8988 36.6676C56.8988 36.6676 53.1299 30.9391 52.9774 24.4704Z" fill="#0089FF"/>
<path d="M41.6964 51.2168H41.2596C40.7621 51.2168 40.3496 51.6293 40.3496 52.1268C40.3496 52.6243 40.7621 53.0368 41.2596 53.0368H41.6964C42.1939 53.0368 42.6064 52.6243 42.6064 52.1268C42.6064 51.6293 42.1939 51.2168 41.6964 51.2168Z" fill="#48588C"/>
<path d="M46.7566 34.752H43.2987C42.8012 34.752 42.3887 35.1645 42.3887 35.6619C42.3887 36.1594 42.8012 36.5719 43.2987 36.5719H46.7566C47.2541 36.5719 47.6666 36.1594 47.6666 35.6619C47.6666 35.1645 47.2541 34.752 46.7566 34.752Z" fill="#48588C"/>
<path d="M46.7566 38.0527H43.2987C42.8012 38.0527 42.3887 38.4653 42.3887 38.9627C42.3887 39.4602 42.8012 39.8727 43.2987 39.8727H46.7566C47.2541 39.8727 47.6666 39.4602 47.6666 38.9627C47.6666 38.4653 47.2541 38.0527 46.7566 38.0527Z" fill="#48588C"/>
<path d="M54.8754 34.752H51.4295C50.9321 34.752 50.5195 35.1645 50.5195 35.6619C50.5195 36.1594 50.9321 36.5719 51.4295 36.5719H54.8875C55.385 36.5719 55.7975 36.1594 55.7975 35.6619C55.7975 35.1645 55.385 34.752 54.8754 34.752Z" fill="#48588C"/>
<path d="M54.8754 38.0527H51.4295C50.9321 38.0527 50.5195 38.4653 50.5195 38.9627C50.5195 39.4602 50.9321 39.8727 51.4295 39.8727H54.8875C55.385 39.8727 55.7975 39.4602 55.7975 38.9627C55.7975 38.4653 55.385 38.0527 54.8754 38.0527Z" fill="#48588C"/>
<path d="M63.0023 34.752H59.5565C59.059 34.752 58.6465 35.1645 58.6465 35.6619C58.6465 36.1594 59.059 36.5719 59.5565 36.5719H63.0144C63.5119 36.5719 63.9244 36.1594 63.9244 35.6619C63.9244 35.1645 63.5119 34.752 63.0023 34.752Z" fill="#48588C"/>
<path d="M63.0043 38.0527H59.5584C59.061 38.0527 58.6484 38.4653 58.6484 38.9627C58.6484 39.4602 59.061 39.8727 59.5584 39.8727H63.0164C63.5139 39.8727 63.9264 39.4602 63.9264 38.9627C63.9264 38.4653 63.5139 38.0527 63.0043 38.0527Z" fill="#48588C"/>
<path d="M45.0212 27.1562C43.3589 27.1562 42 28.5152 42 30.1774C42 31.8397 43.3589 33.1986 45.0212 33.1986C46.6834 33.1986 48.0424 31.8397 48.0424 30.1774C48.0424 28.5152 46.6834 27.1562 45.0212 27.1562ZM45.0212 31.3786C44.366 31.3786 43.82 30.8448 43.82 30.1774C43.82 29.5222 44.3538 28.9762 45.0212 28.9762C45.6764 28.9762 46.2224 29.5101 46.2224 30.1774C46.2224 30.8448 45.6885 31.3786 45.0212 31.3786Z" fill="#48588C"/>
<path d="M53.152 27.1562C51.4898 27.1562 50.1309 28.5152 50.1309 30.1774C50.1309 31.8397 51.4898 33.1986 53.152 33.1986C54.8143 33.1986 56.1732 31.8397 56.1732 30.1774C56.1732 28.5152 54.8143 27.1562 53.152 27.1562ZM53.152 31.3786C52.4968 31.3786 51.9508 30.8448 51.9508 30.1774C51.9508 29.5222 52.4847 28.9762 53.152 28.9762C53.8194 28.9762 54.3532 29.5101 54.3532 30.1774C54.3532 30.8448 53.8194 31.3786 53.152 31.3786Z" fill="#48588C"/>
<path d="M61.2809 27.1562C59.6187 27.1562 58.2598 28.5152 58.2598 30.1774C58.2598 31.8397 59.6187 33.1986 61.2809 33.1986C62.9432 33.1986 64.3021 31.8397 64.3021 30.1774C64.3021 28.5152 62.9432 27.1562 61.2809 27.1562ZM61.2809 31.3786C60.6257 31.3786 60.0798 30.8448 60.0798 30.1774C60.0798 29.5222 60.6136 28.9762 61.2809 28.9762C61.9361 28.9762 62.4821 29.5101 62.4821 30.1774C62.4821 30.8448 61.9361 31.3786 61.2809 31.3786Z" fill="#48588C"/>
<path d="M68.2692 4.50391H55.0926C54.5951 4.50391 54.1826 4.91644 54.1826 5.4139C54.1826 5.91136 54.5951 6.32389 55.0926 6.32389H67.6019V11.614H38.3366V6.32389H50.8459C51.3434 6.32389 51.7559 5.91136 51.7559 5.4139C51.7559 4.91644 51.3555 4.50391 50.8459 4.50391H37.6814C37.0383 4.50391 36.5166 5.02564 36.5166 5.6687C36.5166 6.16616 36.5166 15.2054 36.5166 15.4724H19.7606C18.3289 15.4724 17.1641 16.6371 17.1641 18.0689C17.1641 19.4642 17.1641 52.7214 17.1641 54.4686C17.1641 55.8154 18.1833 56.9195 19.4936 57.053C19.5786 57.0651 19.6635 57.0651 19.7606 57.0651H35.7158V61.0084H33.4469C32.1607 61.0084 31.1173 62.0518 31.1173 63.338V64.3086C31.1173 65.5947 32.1607 66.6382 33.4469 66.6382H39.2344C39.7319 66.6382 40.1444 66.2257 40.1444 65.7282C40.1444 65.2308 39.7319 64.8182 39.2344 64.8182H33.4469C33.1678 64.8182 32.9373 64.5877 32.9373 64.3086V63.338C32.9373 63.0589 33.1678 62.8284 33.4469 62.8284C34.915 62.8284 47.2545 62.8284 49.0381 62.8284C49.3171 62.8284 49.5477 63.0589 49.5477 63.338V64.3086C49.5477 64.5877 49.3171 64.8182 49.0381 64.8182H43.4932C42.9957 64.8182 42.5832 65.2308 42.5832 65.7282C42.5832 66.2257 42.9957 66.6382 43.4932 66.6382H49.0381C50.3242 66.6382 51.3677 65.5947 51.3677 64.3086V63.338C51.3677 62.0518 50.3242 61.0084 49.0381 61.0084H46.7692V57.0651H63.1733C64.605 57.0651 65.7698 55.9003 65.7698 54.4686C65.7698 54.0439 65.7698 45.1502 65.7698 44.7377H68.2571C68.9002 44.7377 69.4219 44.216 69.4219 43.5729C69.4219 42.9177 69.4219 5.94776 69.4219 5.6687C69.434 5.02564 68.9123 4.50391 68.2692 4.50391ZM63.3553 13.434L52.9814 17.2074L42.6075 13.434H63.3553ZM63.3553 22.91H42.5953L52.9692 19.1366L63.3553 22.91ZM38.3366 13.8222L50.3121 18.1781L38.3366 22.5339C38.3366 21.6603 38.3366 14.8657 38.3366 13.8222ZM37.6814 44.7377H37.7056H60.4918V47.1886H22.4542V24.9969C23.7645 24.9969 34.8907 24.9969 36.5287 24.9969V43.5487V43.5729C36.5166 44.216 37.0383 44.7377 37.6814 44.7377ZM22.4542 23.177V21.0536C22.4542 21.0051 22.4906 20.9687 22.5391 20.9687H25.0628V23.177H22.4542ZM26.8828 23.177V20.9687H36.5166V23.177H26.8828ZM18.9962 18.0689C18.9962 17.6442 19.348 17.2923 19.7727 17.2923H36.5287V19.1487C29.9404 19.1487 29.273 19.1487 22.5512 19.1487C21.4956 19.1487 20.6463 20.0102 20.6463 21.0536C20.6463 22.7402 20.6463 46.4242 20.6463 47.1886H18.9962V18.0689ZM44.9613 60.9963H37.5479V57.053H44.9613V60.9963ZM63.9498 54.4686C63.9498 54.8932 63.598 55.2451 63.1733 55.2451C62.506 55.2451 20.44 55.2451 19.7606 55.2451C19.7363 55.2451 19.712 55.2451 19.6756 55.2451C19.2874 55.2087 18.984 54.8811 18.984 54.4807V49.0329C19.5422 49.0329 63.3917 49.0329 63.9498 49.0329V54.4686ZM62.3118 47.1886V44.7377H63.9498V47.1886H62.3118ZM67.6019 42.9177C66.4857 42.9177 39.5013 42.9177 38.3366 42.9177V24.73H67.6019V42.9177ZM67.6019 22.5218L55.6264 18.1659L67.6019 13.8101V22.5218Z" fill="#48588C"/>
</svg>
