<svg width="94" height="91" viewBox="0 0 94 91" fill="none" xmlns="http://www.w3.org/2000/svg">
<path opacity="0.07" d="M52.9774 24.4704C52.9774 24.4704 47.9033 2.0388 35.5298 4.43591C35.5298 4.43591 24.0918 2.76814 18.3565 19.9984C18.3565 19.9984 7.44562 49.8287 4.9859 54.0698C4.9859 54.0698 0.262715 61.6115 3.74465 69.6602C3.74465 69.6602 7.79056 79.8011 19.3581 79.4195C19.3581 79.4195 57.7938 82.1987 76.2942 67.4062C76.2942 67.4062 88.589 59.644 85.918 49.5868C85.918 49.5868 86.5086 40.0069 72.1774 38.4329C72.1774 38.4329 59.4642 39.5757 56.8988 36.6676C56.8988 36.6676 53.1299 30.9391 52.9774 24.4704Z" fill="#0089FF"/>
<g clip-path="url(#clip0_106_11367)">
<path d="M64.2608 13.3047H24.6353C22.0313 13.308 19.9213 15.418 19.918 18.022V33.1175H21.8049V18.022C21.8049 16.4592 23.0724 15.1916 24.6353 15.1916H64.2608C65.8237 15.1916 67.0912 16.4592 67.0912 18.022V47.2694C67.0912 48.8323 65.8237 50.0998 64.2608 50.0998H51.9958V51.9868H64.2608C66.8648 51.9835 68.9749 49.8734 68.9782 47.2694V18.022C68.9749 15.418 66.8648 13.308 64.2608 13.3047Z" fill="#48588C"/>
<path d="M23.6934 17.0781H25.5803V18.9651H23.6934V17.0781Z" fill="#48588C"/>
<path d="M27.4668 17.0781H29.3537V18.9651H27.4668V17.0781Z" fill="#48588C"/>
<path d="M31.2402 17.0781H33.1272V18.9651H31.2402V17.0781Z" fill="#48588C"/>
<path d="M23.6934 20.8516H65.2058V22.7385H23.6934V20.8516Z" fill="#48588C"/>
<path d="M23.6934 24.627H33.128V26.5139H23.6934V24.627Z" fill="#48588C"/>
<path d="M23.6934 28.4004H29.3542V30.2873H23.6934V28.4004Z" fill="#48588C"/>
<path d="M39.7311 31.2308V29.3439C39.7311 28.8226 39.3089 28.4004 38.7876 28.4004H35.0138C34.4925 28.4004 34.0703 28.8226 34.0703 29.3439V30.2873H37.8442V31.2308H39.7311Z" fill="#48588C"/>
<path d="M47.2799 35.9484V26.5138C47.2799 25.9925 46.8577 25.5703 46.3365 25.5703H42.5626C42.0413 25.5703 41.6191 25.9925 41.6191 26.5138V33.118H43.5061V27.4572H45.393V35.9484H47.2799Z" fill="#48588C"/>
<path d="M52.9399 45.3831H51.9964V47.27H65.2049V45.3831H62.3745V26.5138C62.3745 25.9925 61.9523 25.5703 61.4311 25.5703H57.6572C57.1359 25.5703 56.7137 25.9925 56.7137 26.5138V45.3831H54.8268V33.118C54.8268 32.5968 54.4046 32.1746 53.8833 32.1746H50.1095C49.5882 32.1746 49.166 32.5968 49.166 33.118V41.6092H51.0529V34.0615H52.9399V45.3831ZM58.6007 27.4572H60.4876V45.3831H58.6007V27.4572Z" fill="#48588C"/>
<path d="M31.2404 32.1738C20.8186 32.1738 12.3711 40.6214 12.3711 51.0431C12.3711 61.4649 20.8186 69.9124 31.2404 69.9124C41.6621 69.9124 50.1097 61.4649 50.1097 51.0431C50.0979 40.6268 41.6567 32.1856 31.2404 32.1738ZM31.2404 68.0255C22.0397 68.0328 14.5062 60.7122 14.2507 51.5149C13.995 42.318 21.1099 34.59 30.2969 34.0862V51.0431C30.2969 51.0632 30.3075 51.0809 30.3085 51.1019C30.3134 51.1849 30.33 51.2672 30.3573 51.3455C30.3634 51.3644 30.3573 51.3877 30.3705 51.4061C30.3767 51.4177 30.383 51.4288 30.3908 51.4394C30.4349 51.537 30.4946 51.6269 30.5686 51.7047L30.5741 51.7109L42.562 63.6997C39.4551 66.4957 35.4199 68.0373 31.2404 68.0255ZM43.897 62.3647L33.5189 51.9866H48.1973C47.9942 55.8364 46.4762 59.4994 43.897 62.3647ZM32.1839 50.0997V34.0862C40.8161 34.5782 47.7053 41.4674 48.1973 50.0997H32.1839Z" fill="#48588C"/>
</g>
<defs>
<clipPath id="clip0_106_11367">
<rect width="56.6079" height="56.6079" fill="white" transform="translate(12.3711 13.3047)"/>
</clipPath>
</defs>
</svg>
