<svg width="94" height="92" viewBox="0 0 94 92" fill="none" xmlns="http://www.w3.org/2000/svg">
<path opacity="0.07" d="M52.9774 26.2848C52.9774 26.2848 47.9033 3.85325 35.5298 6.25036C35.5298 6.25036 24.0918 4.58259 18.3565 21.8129C18.3565 21.8129 7.44562 51.6432 4.9859 55.8842C4.9859 55.8842 0.262715 63.4259 3.74465 71.4747C3.74465 71.4747 7.79056 81.6155 19.3581 81.2339C19.3581 81.2339 57.7938 84.0132 76.2942 69.2206C76.2942 69.2206 88.589 61.4584 85.918 51.4013C85.918 51.4013 86.5086 41.8214 72.1774 40.2474C72.1774 40.2474 59.4642 41.3901 56.8988 38.4821C56.8988 38.4821 53.1299 32.7535 52.9774 26.2848Z" fill="#0089FF"/>
<g clip-path="url(#clip0_106_11370)">
<path d="M72.08 55.0602C71.4854 53.8345 70.2354 53.0457 68.8762 53.0457H67.2986C68.0631 52.1477 68.5243 50.9826 68.5243 49.7205V37.8155C68.5243 37.318 68.1117 36.9053 67.6141 36.9053C67.1166 36.9053 66.704 37.318 66.704 37.8155V49.7205C66.704 51.553 65.2113 53.0457 63.3788 53.0457C63.0147 53.0457 20.4916 53.0457 19.363 53.0457C17.5305 53.0457 16.0378 51.553 16.0378 49.7205V19.7941C16.0378 17.9617 17.5305 16.469 19.363 16.469H29.5811C29.4112 17.3306 29.3506 18.1801 29.3748 19.066C24.1929 19.066 25.807 19.066 20.2489 19.066C19.3387 19.066 18.5984 19.8063 18.5984 20.7164C18.5984 21.9179 18.5984 47.1235 18.5984 48.5555C18.5984 49.6113 19.46 50.4729 20.5158 50.4729H62.2138C63.2696 50.4729 64.1312 49.6113 64.1312 48.5555C64.1312 47.791 64.1312 22.1606 64.1312 20.9834C64.1312 19.9276 63.2696 19.066 62.2138 19.066H53.3548C53.3669 18.8112 53.3669 18.6898 53.3669 18.6898C53.3669 17.9374 53.2941 17.1729 53.1606 16.4569H63.3788C65.2113 16.4569 66.704 17.9495 66.704 19.782V33.5559C66.704 34.0535 67.1166 34.4661 67.6141 34.4661C68.1117 34.4661 68.5243 34.0535 68.5243 33.5559V19.7941C68.5243 16.9544 66.2185 14.6486 63.3788 14.6486H52.6752C51.2675 10.7167 47.8695 7.69495 43.5856 6.894C43.0881 6.79691 42.6148 7.12457 42.5298 7.62213C42.4327 8.11969 42.7604 8.59298 43.258 8.67793C53.1849 10.5225 54.6048 24.3207 45.1997 28.1313C44.6778 28.3376 44.3502 28.8352 44.3502 29.4055V31.5414H42.2871V23.4106H43.6706C44.8113 23.4106 45.7336 22.4882 45.7336 21.3475V20.4131C45.7336 19.2723 44.8113 18.35 43.6706 18.35H39.0833C37.9426 18.35 37.0203 19.2723 37.0203 20.4131V21.3475C37.0203 22.4882 37.9426 23.4106 39.0833 23.4106H40.4668V31.5414H38.4037C38.4037 29.1507 38.4037 29.2963 38.3916 29.175C38.3309 28.7017 38.0154 28.3255 37.5906 28.1556C28.1613 24.3814 29.5447 10.7167 39.3503 8.71434C39.8479 8.61725 40.1634 8.13183 40.0542 7.64641C39.9571 7.14885 39.4717 6.83332 38.9862 6.9304C35.0179 7.74349 31.5471 10.5954 30.0908 14.6486H19.3751C16.5354 14.6486 14.2296 16.9544 14.2296 19.7941V49.7205C14.2296 50.9826 14.6908 52.1477 15.4553 53.0457H13.8777C12.5185 53.0457 11.2685 53.8345 10.6739 55.0602C9.41176 57.6936 11.5719 61.9654 15.6131 61.9654H67.1408C71.2063 61.9654 73.3421 57.6694 72.08 55.0602ZM20.4309 20.9834C20.4309 20.9349 20.4794 20.8863 20.528 20.8863H24.4599V23.8596H20.4309V20.9834ZM53.1849 20.8863H62.2259C62.2745 20.8863 62.323 20.9349 62.323 20.9834V23.8596H52.214C52.6631 22.9373 52.9907 21.93 53.1849 20.8863ZM39.0833 21.5902C38.9498 21.5902 38.8406 21.481 38.8406 21.3475V20.4131C38.8406 20.2796 38.9498 20.1703 39.0833 20.1703H43.6706C43.8041 20.1703 43.9133 20.2796 43.9133 20.4131V21.3475C43.9133 21.481 43.8041 21.5902 43.6706 21.5902H39.0833ZM36.9717 33.835C36.9717 33.6166 37.1295 33.3617 37.5057 33.3617H45.2603C45.6123 33.3617 45.7943 33.6045 45.7943 33.835V34.3083C45.7943 34.5632 45.5759 34.7816 45.321 34.7816C44.4837 34.7816 38.246 34.7816 37.445 34.7816C37.1902 34.7816 36.9717 34.5632 36.9717 34.3083V33.835ZM43.3308 36.602L42.7725 37.7184C42.5056 38.2524 41.9837 38.5801 41.3769 38.5801C40.7702 38.5801 40.2483 38.2524 39.9814 37.7184L39.4231 36.602H43.3308ZM31.6199 25.692C32.9063 27.4881 34.666 28.8716 36.5955 29.7089V31.6385C35.7582 31.9055 35.1514 32.6822 35.1514 33.6045C35.1514 34.0535 35.1514 34.0777 35.1514 34.5389C35.1514 35.6796 36.0737 36.602 37.2144 36.602H37.3965C37.9911 37.7912 37.7727 37.3544 38.3673 38.5315C38.9377 39.6844 40.1027 40.4004 41.3891 40.4004C42.6755 40.4004 43.8405 39.6844 44.4109 38.5315L45.3817 36.602H45.5637C46.7045 36.602 47.6268 35.6796 47.6268 34.5389V33.6045C47.6268 32.6822 47.02 31.9055 46.1826 31.6385V29.7089C48.1608 28.8473 49.8961 27.4638 51.1582 25.692H62.3351V48.5677C62.3351 48.6162 62.2866 48.6647 62.2381 48.6647H20.528C20.4794 48.6647 20.4309 48.6162 20.4309 48.5677V25.692C21.6566 25.692 30.3821 25.692 31.6199 25.692ZM30.5399 23.8717H26.2803V20.8985H29.5811C29.7632 21.9057 30.0908 22.913 30.5399 23.8717ZM34.7388 54.866H48.0151V55.4728C48.0151 56.0917 47.5054 56.6014 46.8865 56.6014H35.8552C35.2363 56.6014 34.7266 56.0917 34.7266 55.4728V54.866H34.7388ZM67.1408 60.145H15.6131C12.8947 60.145 11.6326 57.2568 12.3122 55.849C12.6034 55.2544 13.2102 54.866 13.8777 54.866C14.3995 54.866 31.9719 54.866 32.9306 54.866V55.4728C32.9306 57.099 34.2533 58.4218 35.8795 58.4218H46.9108C48.537 58.4218 49.8597 57.099 49.8597 55.4728V54.866C50.8306 54.866 68.3787 54.866 68.9126 54.866C69.568 54.866 70.1869 55.2544 70.4781 55.849C71.1092 57.2325 69.8956 60.145 67.1408 60.145Z" fill="#48588C"/>
<path d="M57.0577 9.22259C56.8028 8.78571 56.2446 8.64008 55.8198 8.89493L53.8417 10.0357C53.4049 10.2905 53.2592 10.8488 53.5141 11.2735C53.7689 11.7104 54.3272 11.856 54.7519 11.6012L56.73 10.4604C57.1669 10.2177 57.3125 9.65948 57.0577 9.22259Z" fill="#48588C"/>
<path d="M50.431 2.59735C49.9941 2.3425 49.4359 2.50026 49.1932 2.92501L48.0524 4.90311C47.7976 5.33999 47.9553 5.89823 48.3801 6.14094C48.817 6.39579 49.3752 6.23803 49.6179 5.81328L50.7587 3.83518C51.0135 3.41043 50.8679 2.8522 50.431 2.59735Z" fill="#48588C"/>
<path d="M41.377 0.169922C40.8794 0.169922 40.4668 0.582532 40.4668 1.08009V3.36159C40.4668 3.85915 40.8794 4.27176 41.377 4.27176C41.8745 4.27176 42.2871 3.85915 42.2871 3.36159V1.08009C42.2871 0.582532 41.8867 0.169922 41.377 0.169922Z" fill="#48588C"/>
<path d="M34.7027 4.90187L33.562 2.92377C33.3071 2.48688 32.7489 2.34126 32.3242 2.5961C31.8873 2.85095 31.7416 3.40919 31.9965 3.83394L33.1372 5.81204C33.3921 6.24892 33.9503 6.39455 34.3751 6.1397C34.812 5.89699 34.9576 5.33875 34.7027 4.90187Z" fill="#48588C"/>
<path d="M28.9148 10.0369L26.9367 8.89618C26.4999 8.64133 25.9416 8.79909 25.6989 9.22384C25.4441 9.66072 25.6018 10.219 26.0266 10.4617L28.0047 11.6024C28.4416 11.8573 28.9998 11.6995 29.2425 11.2748C29.4974 10.8379 29.3517 10.2918 28.9148 10.0369Z" fill="#48588C"/>
</g>
<defs>
<clipPath id="clip0_106_11370">
<rect width="62.1343" height="62.1343" fill="white" transform="translate(10.3105)"/>
</clipPath>
</defs>
</svg>
