<svg width="94" height="91" viewBox="0 0 94 91" fill="none" xmlns="http://www.w3.org/2000/svg">
<path opacity="0.07" d="M52.9774 24.4704C52.9774 24.4704 47.9033 2.0388 35.5298 4.43591C35.5298 4.43591 24.0918 2.76814 18.3565 19.9984C18.3565 19.9984 7.44562 49.8287 4.9859 54.0698C4.9859 54.0698 0.262715 61.6115 3.74465 69.6602C3.74465 69.6602 7.79056 79.8011 19.3581 79.4195C19.3581 79.4195 57.7938 82.1987 76.2942 67.4062C76.2942 67.4062 88.589 59.644 85.918 49.5868C85.918 49.5868 86.5086 40.0069 72.1774 38.4329C72.1774 38.4329 59.4642 39.5757 56.8988 36.6676C56.8988 36.6676 53.1299 30.9391 52.9774 24.4704Z" fill="#0089FF"/>
<g clip-path="url(#clip0_106_11368)">
<path d="M14.1423 56.8715H16.2134V54.8003H14.1423C12.9982 54.8003 12.0711 53.8732 12.0711 52.7292V11.3063C12.0711 10.1623 12.9982 9.23521 14.1423 9.23521H59.7074C60.8515 9.23521 61.7786 10.1623 61.7786 11.3063V13.3775H63.8497V11.3063C63.8497 9.01877 61.995 7.16406 59.7074 7.16406H14.1423C11.8547 7.16406 10 9.01877 10 11.3063V52.7292C10 55.0168 11.8547 56.8715 14.1423 56.8715Z" fill="#48588C"/>
<path d="M14.1426 11.3066H16.2137V13.3778H14.1426V11.3066Z" fill="#48588C"/>
<path d="M18.2852 11.3066H20.3563V13.3778H18.2852V11.3066Z" fill="#48588C"/>
<path d="M22.4277 11.3066H24.4989V13.3778H22.4277V11.3066Z" fill="#48588C"/>
<path d="M18.2852 61.0144C18.2852 63.3019 20.1399 65.1566 22.4274 65.1566H67.9926C70.2802 65.1566 72.1349 63.3019 72.1349 61.0144V19.5915C72.1349 17.3039 70.2802 15.4492 67.9926 15.4492H22.4274C20.1399 15.4492 18.2852 17.3039 18.2852 19.5915V61.0144ZM20.3563 19.5915C20.3563 18.4475 21.2834 17.5204 22.4274 17.5204H67.9926C69.1366 17.5204 70.0637 18.4475 70.0637 19.5915V61.0144C70.0637 62.1584 69.1366 63.0855 67.9926 63.0855H22.4274C21.2834 63.0855 20.3563 62.1584 20.3563 61.0144V19.5915Z" fill="#48588C"/>
<path d="M22.4277 19.5918H24.4989V21.6629H22.4277V19.5918Z" fill="#48588C"/>
<path d="M26.5684 19.5918H28.6395V21.6629H26.5684V19.5918Z" fill="#48588C"/>
<path d="M30.7109 19.5918H32.7821V21.6629H30.7109V19.5918Z" fill="#48588C"/>
<path d="M22.4277 23.7324H67.9929V25.8036H22.4277V23.7324Z" fill="#48588C"/>
<path d="M22.4277 28.9102H30.7123V30.9813H22.4277V28.9102Z" fill="#48588C"/>
<path d="M22.4277 33.0527H28.6412V35.1239H22.4277V33.0527Z" fill="#48588C"/>
<path d="M45.2099 37.1953C41.2062 37.1953 37.9609 40.4405 37.9609 44.4443C37.9609 48.4481 41.2062 51.6933 45.2099 51.6933C49.2137 51.6933 52.4589 48.4481 52.4589 44.4443C52.4543 40.4429 49.2114 37.2 45.2099 37.1953ZM45.2099 49.6221C42.3505 49.6221 40.0321 47.3038 40.0321 44.4443C40.0321 41.5848 42.3505 39.2665 45.2099 39.2665C48.0694 39.2665 50.3878 41.5848 50.3878 44.4443C50.3842 47.3025 48.0681 49.6185 45.2099 49.6221Z" fill="#48588C"/>
<path d="M61.7789 41.3374C61.7789 40.7653 61.3155 40.3019 60.7433 40.3019H58.0063C57.787 39.6215 57.5136 38.9595 57.1872 38.3239L59.1227 36.3897C59.5265 35.9851 59.5265 35.3298 59.1227 34.9252L54.7287 30.5312C54.3241 30.1274 53.6688 30.1274 53.2642 30.5312L51.33 32.4657C50.6934 32.1405 50.0319 31.8671 49.352 31.6476V28.9106C49.352 28.3384 48.8886 27.875 48.3165 27.875H42.1031C41.5309 27.875 41.0675 28.3384 41.0675 28.9106V31.6476C40.3876 31.8671 39.7262 32.1405 39.0895 32.4657L37.1554 30.5312C36.7507 30.1274 36.0954 30.1274 35.6908 30.5312L31.2969 34.9252C30.893 35.3298 30.893 35.9851 31.2969 36.3897L33.2313 38.3239C33.1448 38.4935 33.0615 38.6636 32.9828 38.8355C32.7643 39.3129 32.5742 39.8022 32.4132 40.3019H29.6762C29.104 40.3019 28.6406 40.7653 28.6406 41.3374V47.5509C28.6406 48.123 29.104 48.5864 29.6762 48.5864H32.4132C32.6325 49.2668 32.9059 49.9288 33.2323 50.5644L31.2969 52.4986C30.893 52.9032 30.893 53.5585 31.2969 53.9631L35.6908 58.3571C36.0954 58.7609 36.7507 58.7609 37.1554 58.3571L39.0895 56.4226C39.7262 56.7478 40.3876 57.0212 41.0675 57.2407V59.9777C41.0675 60.5499 41.5309 61.0133 42.1031 61.0133H48.3165C48.8886 61.0133 49.352 60.5499 49.352 59.9777V57.2407C50.0319 57.0212 50.6934 56.7478 51.33 56.4226L53.2642 58.3571C53.6688 58.7609 54.3241 58.7609 54.7287 58.3571L59.1227 53.9631C59.5265 53.5585 59.5265 52.9032 59.1227 52.4986L57.1872 50.5644C57.5136 49.9288 57.787 49.2668 58.0063 48.5864H60.7433C61.3155 48.5864 61.7789 48.123 61.7789 47.5509V41.3374ZM59.7078 46.5153H57.2286C56.7564 46.5153 56.3442 46.835 56.2262 47.292C55.9616 48.3198 55.5538 49.3062 55.0146 50.2206C54.7746 50.627 54.8406 51.1448 55.174 51.4788L56.9249 53.2307L53.9963 56.1606L52.2444 54.4084C51.9102 54.0744 51.3924 54.0087 50.9857 54.2489C50.0713 54.7882 49.0854 55.1962 48.0576 55.4606C47.6006 55.5786 47.2809 55.9908 47.2809 56.463V58.9422H43.1386V56.463C43.1386 55.9908 42.8189 55.5786 42.3619 55.4606C41.3341 55.1962 40.3483 54.7882 39.4339 54.2489C39.0271 54.0087 38.5094 54.0744 38.1751 54.4084L36.4232 56.1606L33.4946 53.2307L35.2455 51.4788C35.579 51.1448 35.645 50.627 35.405 50.2206C34.8657 49.3062 34.4579 48.3198 34.1934 47.292C34.0753 46.835 33.6631 46.5153 33.1909 46.5153H30.7118V42.373H33.1909C33.6631 42.373 34.0753 42.0533 34.1934 41.5963C34.3606 40.9444 34.5861 40.3096 34.8667 39.6984C35.0285 39.344 35.2082 38.9983 35.405 38.6628C35.6442 38.2561 35.5787 37.7391 35.2455 37.4054L33.4946 35.6534L36.4232 32.7235L38.1751 34.4763C38.5094 34.8102 39.0271 34.8755 39.4339 34.635C40.3483 34.0962 41.3341 33.6877 42.3619 33.4233C42.8189 33.3055 43.1386 32.8929 43.1386 32.4214V29.9461H47.2809V32.4253C47.2809 32.8975 47.6006 33.3097 48.0576 33.4277C49.0854 33.6921 50.0713 34.1001 50.9857 34.6394C51.3924 34.8796 51.9102 34.8138 52.2444 34.4799L53.9963 32.7277L56.9249 35.6576L55.174 37.4095C54.8406 37.7435 54.7746 38.2613 55.0146 38.6677C55.5538 39.5821 55.9616 40.5685 56.2262 41.5963C56.3442 42.0533 56.7564 42.373 57.2286 42.373H59.7078V46.5153Z" fill="#48588C"/>
<path d="M61.7793 58.9434H67.9927V61.0145H61.7793V58.9434Z" fill="#48588C"/>
</g>
<defs>
<clipPath id="clip0_106_11368">
<rect width="62.1343" height="62.1343" fill="white" transform="translate(10 5.07617)"/>
</clipPath>
</defs>
</svg>
