<svg width="94" height="91" viewBox="0 0 94 91" fill="none" xmlns="http://www.w3.org/2000/svg">
<path opacity="0.07" d="M52.9774 24.4704C52.9774 24.4704 47.9033 2.0388 35.5298 4.43591C35.5298 4.43591 24.0918 2.76814 18.3565 19.9984C18.3565 19.9984 7.44562 49.8287 4.9859 54.0698C4.9859 54.0698 0.262715 61.6115 3.74465 69.6602C3.74465 69.6602 7.79056 79.8011 19.3581 79.4195C19.3581 79.4195 57.7938 82.1987 76.2942 67.4062C76.2942 67.4062 88.589 59.644 85.918 49.5868C85.918 49.5868 86.5086 40.0069 72.1774 38.4329C72.1774 38.4329 59.4642 39.5757 56.8988 36.6676C56.8988 36.6676 53.1299 30.9391 52.9774 24.4704Z" fill="#0089FF"/>
<path d="M35.649 39.9596C37.7907 39.9596 39.5324 38.2179 39.5324 36.0762H37.5907C37.5907 37.147 36.7199 38.0179 35.649 38.0179C34.5782 38.0179 33.7073 37.147 33.7073 36.0762H31.7656C31.7656 38.2179 33.5073 39.9596 35.649 39.9596Z" fill="#48588C"/>
<path d="M30.7931 29.2796C31.3293 29.2796 31.764 28.8449 31.764 28.3087C31.764 27.7726 31.3293 27.3379 30.7931 27.3379C30.2569 27.3379 29.8223 27.7726 29.8223 28.3087C29.8223 28.8449 30.2569 29.2796 30.7931 29.2796Z" fill="#48588C"/>
<path d="M40.5021 29.2796C41.0383 29.2796 41.4729 28.8449 41.4729 28.3087C41.4729 27.7726 41.0383 27.3379 40.5021 27.3379C39.9659 27.3379 39.5312 27.7726 39.5312 28.3087C39.5312 28.8449 39.9659 29.2796 40.5021 29.2796Z" fill="#48588C"/>
<path d="M71.5696 4.03711H30.7939V8.77C25.1465 10.7758 21.0854 16.1572 21.0854 22.4832V30.25C21.0854 32.8189 23.098 34.9072 25.6251 35.0722C26.5251 38.1828 28.3221 40.941 30.7939 43.0176V44.2438C30.7939 45.3875 30.1202 46.4302 29.0765 46.8991L19.0321 51.4194C14.3817 53.5125 11.377 58.159 11.377 63.2589V64.2297H59.9194V63.2589C59.9194 58.159 56.9146 53.5125 52.2642 51.4194L50.5284 50.6378H71.5696V4.03711ZM35.6482 9.8622C42.6072 9.8622 48.2692 15.5242 48.2692 22.4832V26.3919C47.4556 25.7754 46.4537 25.3958 45.3566 25.3958H45.3314C44.444 24.224 43.0519 23.4541 41.4733 23.4541H34.588C32.9337 23.4541 31.3318 22.9687 29.9541 22.0512C29.426 21.6978 28.8105 21.5124 28.1755 21.5124C26.4067 21.5124 24.9688 22.9502 24.9688 24.7191V25.4938C24.2475 25.6414 23.5941 25.9618 23.0271 26.3909V22.4832C23.0271 15.5242 28.6891 9.8622 35.6482 9.8622ZM46.245 27.4909C47.4148 27.8685 48.2692 28.9559 48.2692 30.25C48.2692 31.5878 47.3566 32.7072 46.1256 33.0461C46.2566 32.2053 46.3275 31.3461 46.3275 30.4723V28.3083C46.3275 28.0287 46.2906 27.7579 46.245 27.4909ZM23.0271 30.25C23.0271 28.986 23.8417 27.918 24.9688 27.5161V30.4723C24.9688 31.3451 25.0397 32.2043 25.1708 33.0461C23.9388 32.7072 23.0271 31.5878 23.0271 30.25ZM26.9105 30.4723V24.7181C26.9105 24.0211 27.4775 23.4541 28.1755 23.4541C28.426 23.4541 28.6687 23.5269 28.8775 23.6667C30.5735 24.7977 32.5492 25.3958 34.588 25.3958H41.4733C43.079 25.3958 44.3858 26.7025 44.3858 28.3083V30.4723C44.3858 36.2945 40.9694 41.4682 35.6482 43.7613C30.3269 41.4691 26.9105 36.2955 26.9105 30.4723ZM35.288 45.7147L35.6482 45.8583L36.0083 45.7147C36.9132 45.3525 37.7656 44.9108 38.5733 44.4118C38.5976 45.1127 38.7714 45.7855 39.0743 46.3952L35.6482 50.9611L32.223 46.3943C32.5249 45.7855 32.6987 45.1127 32.724 44.4108C33.5307 44.9098 34.3831 45.3525 35.288 45.7147ZM43.5577 49.6311L44.3033 54.0989L40.1568 57.2085L42.0422 60.0376L38.2918 62.288H38.0209L42.8878 49.3291L43.5577 49.6311ZM29.2542 60.0376L31.1395 57.2085L26.993 54.0989L27.7387 49.6311L28.4085 49.3301L33.2754 62.288H33.0045L29.2542 60.0376ZM34.3181 52.4242L32.2832 54.1203L30.1755 48.5078C30.4629 48.3534 30.7347 48.1777 30.9803 47.9729L34.3181 52.4242ZM33.0055 56.0455L35.6482 53.8436L38.2908 56.0455L35.9462 62.288H35.3501L33.0055 56.0455ZM39.0141 54.1203L36.9782 52.4242L40.317 47.9719C40.5626 48.1767 40.8344 48.3525 41.1218 48.5068L39.0141 54.1203ZM19.8282 53.1902L25.6115 50.5883L24.8853 54.9445L28.5056 57.66L26.5076 60.656L29.2299 62.288H21.0854V56.4629H19.1437V62.288H13.3614C13.7109 58.3405 16.171 54.8358 19.8282 53.1902ZM57.935 62.288H52.1526V56.4629H50.2109V62.288H42.0664L44.7877 60.655L42.7897 57.659L46.41 54.9436L45.6838 50.5874L51.4672 53.1892C55.1253 54.8358 57.5855 58.3405 57.935 62.288ZM69.6279 48.6961H46.2129L42.2198 46.8991C41.1762 46.4302 40.5024 45.3875 40.5024 44.2438V43.0176C42.9742 40.941 44.7712 38.1828 45.6712 35.0722C48.1983 34.9072 50.2109 32.8189 50.2109 30.25V22.4832C50.2109 14.4533 43.6781 7.9205 35.6482 7.9205C34.6511 7.9205 33.6773 8.02244 32.7356 8.2137V5.97881H69.6279V48.6961Z" fill="#48588C"/>
<path d="M61.8613 46.7541H67.6864V19.5703H61.8613V46.7541ZM63.803 21.512H65.7447V44.8124H63.803V21.512Z" fill="#48588C"/>
<path d="M54.0938 46.7549H59.9188V27.3379H54.0938V46.7549ZM56.0354 29.2796H57.9771V44.8132H56.0354V29.2796Z" fill="#48588C"/>
<path d="M46.3281 46.7554H52.1532V37.0469H46.3281V46.7554ZM48.2698 38.9886H50.2115V44.8137H48.2698V38.9886Z" fill="#48588C"/>
<path d="M65.7441 7.91992H67.6858V9.86162H65.7441V7.91992Z" fill="#48588C"/>
<path d="M61.8613 7.91992H63.803V9.86162H61.8613V7.91992Z" fill="#48588C"/>
<path d="M52.1523 7.91992H59.9191V9.86162H52.1523V7.91992Z" fill="#48588C"/>
<path d="M52.1523 11.8047H67.6859V13.7464H52.1523V11.8047Z" fill="#48588C"/>
<path d="M52.1523 15.6875H67.6859V17.6292H52.1523V15.6875Z" fill="#48588C"/>
</svg>
