<svg width="51" height="60" viewBox="0 0 51 60" fill="none" xmlns="http://www.w3.org/2000/svg">
<path d="M23.6892 45.1094H23.2674C22.787 45.1094 22.3887 45.5077 22.3887 45.9881C22.3887 46.4685 22.787 46.8668 23.2674 46.8668H23.6892C24.1696 46.8668 24.5679 46.4685 24.5679 45.9881C24.5679 45.5077 24.1696 45.1094 23.6892 45.1094Z" fill="#48588C"/>
<path d="M28.5753 29.209H25.2362C24.7558 29.209 24.3574 29.6073 24.3574 30.0877C24.3574 30.5681 24.7558 30.9665 25.2362 30.9665H28.5753C29.0557 30.9665 29.4541 30.5681 29.4541 30.0877C29.4541 29.6073 29.0557 29.209 28.5753 29.209Z" fill="#48588C"/>
<path d="M28.5753 32.3965H25.2362C24.7558 32.3965 24.3574 32.7948 24.3574 33.2752C24.3574 33.7556 24.7558 34.154 25.2362 34.154H28.5753C29.0557 34.154 29.4541 33.7556 29.4541 33.2752C29.4541 32.7948 29.0557 32.3965 28.5753 32.3965Z" fill="#48588C"/>
<path d="M36.4152 29.209H33.0877C32.6073 29.209 32.209 29.6073 32.209 30.0877C32.209 30.5681 32.6073 30.9665 33.0877 30.9665H36.4269C36.9073 30.9665 37.3056 30.5681 37.3056 30.0877C37.3056 29.6073 36.9073 29.209 36.4152 29.209Z" fill="#48588C"/>
<path d="M36.4152 32.3965H33.0877C32.6073 32.3965 32.209 32.7948 32.209 33.2752C32.209 33.7556 32.6073 34.154 33.0877 34.154H36.4269C36.9073 34.154 37.3056 33.7556 37.3056 33.2752C37.3056 32.7948 36.9073 32.3965 36.4152 32.3965Z" fill="#48588C"/>
<path d="M44.2668 29.209H40.9393C40.4589 29.209 40.0605 29.6073 40.0605 30.0877C40.0605 30.5681 40.4589 30.9665 40.9393 30.9665H44.2785C44.7588 30.9665 45.1572 30.5681 45.1572 30.0877C45.1572 29.6073 44.7588 29.209 44.2668 29.209Z" fill="#48588C"/>
<path d="M44.2668 32.3965H40.9393C40.4589 32.3965 40.0605 32.7948 40.0605 33.2752C40.0605 33.7556 40.4589 34.154 40.9393 34.154H44.2785C44.7588 34.154 45.1572 33.7556 45.1572 33.2752C45.1572 32.7948 44.7588 32.3965 44.2668 32.3965Z" fill="#48588C"/>
<path d="M26.8998 21.875C25.2947 21.875 23.9824 23.1872 23.9824 24.7924C23.9824 26.3976 25.2947 27.7098 26.8998 27.7098C28.505 27.7098 29.8172 26.3976 29.8172 24.7924C29.8172 23.1872 28.505 21.875 26.8998 21.875ZM26.8998 25.9523C26.2671 25.9523 25.7399 25.4368 25.7399 24.7924C25.7399 24.1597 26.2554 23.6325 26.8998 23.6325C27.5325 23.6325 28.0598 24.148 28.0598 24.7924C28.0598 25.4368 27.5442 25.9523 26.8998 25.9523Z" fill="#48588C"/>
<path d="M34.7514 21.875C33.1462 21.875 31.834 23.1872 31.834 24.7924C31.834 26.3976 33.1462 27.7098 34.7514 27.7098C36.3565 27.7098 37.6688 26.3976 37.6688 24.7924C37.6688 23.1872 36.3565 21.875 34.7514 21.875ZM34.7514 25.9523C34.1187 25.9523 33.5915 25.4368 33.5915 24.7924C33.5915 24.1597 34.107 23.6325 34.7514 23.6325C35.3958 23.6325 35.9113 24.148 35.9113 24.7924C35.9113 25.4368 35.3958 25.9523 34.7514 25.9523Z" fill="#48588C"/>
<path d="M42.6029 21.875C40.9978 21.875 39.6855 23.1872 39.6855 24.7924C39.6855 26.3976 40.9978 27.7098 42.6029 27.7098C44.2081 27.7098 45.5203 26.3976 45.5203 24.7924C45.5203 23.1872 44.2081 21.875 42.6029 21.875ZM42.6029 25.9523C41.9703 25.9523 41.443 25.4368 41.443 24.7924C41.443 24.1597 41.9585 23.6325 42.6029 23.6325C43.2356 23.6325 43.7629 24.148 43.7629 24.7924C43.7629 25.4368 43.2356 25.9523 42.6029 25.9523Z" fill="#48588C"/>
<path d="M49.3497 0H36.6257C36.1453 0 35.7469 0.39836 35.7469 0.878735C35.7469 1.35911 36.1453 1.75747 36.6257 1.75747H48.7053V6.86585H20.4452V1.75747H32.5249C33.0053 1.75747 33.4036 1.35911 33.4036 0.878735C33.4036 0.39836 33.017 0 32.5249 0H19.8125C19.1916 0 18.6878 0.503808 18.6878 1.12478C18.6878 1.60516 18.6878 10.3339 18.6878 10.5917H2.50732C1.12478 10.5917 0 11.7165 0 13.099C0 14.4464 0 46.5612 0 48.2484C0 49.5489 0.984183 50.6151 2.24956 50.744C2.33158 50.7557 2.41359 50.7557 2.50732 50.7557H17.9145V54.5636H15.7235C14.4815 54.5636 13.4739 55.5712 13.4739 56.8131V57.7504C13.4739 58.9924 14.4815 60 15.7235 60H21.3122C21.7926 60 22.191 59.6016 22.191 59.1213C22.191 58.6409 21.7926 58.2425 21.3122 58.2425H15.7235C15.454 58.2425 15.2314 58.0199 15.2314 57.7504V56.8131C15.2314 56.5436 15.454 56.321 15.7235 56.321C17.1412 56.321 29.0568 56.321 30.7791 56.321C31.0486 56.321 31.2712 56.5436 31.2712 56.8131V57.7504C31.2712 58.0199 31.0486 58.2425 30.7791 58.2425H25.4247C24.9443 58.2425 24.546 58.6409 24.546 59.1213C24.546 59.6016 24.9443 60 25.4247 60H30.7791C32.0211 60 33.0287 58.9924 33.0287 57.7504V56.8131C33.0287 55.5712 32.0211 54.5636 30.7791 54.5636H28.5882V50.7557H44.4288C45.8114 50.7557 46.9361 49.6309 46.9361 48.2484C46.9361 47.8383 46.9361 39.2501 46.9361 38.8518H49.338C49.959 38.8518 50.4628 38.348 50.4628 37.727C50.4628 37.0943 50.4628 1.39426 50.4628 1.12478C50.4745 0.503808 49.9707 0 49.3497 0ZM44.6046 8.62332L34.587 12.2671L24.5694 8.62332H44.6046ZM44.6046 17.7739H24.5577L34.5753 14.1301L44.6046 17.7739ZM20.4452 8.99824L32.0094 13.2045L20.4452 17.4107C20.4452 16.5671 20.4452 10.0059 20.4452 8.99824ZM19.8125 38.8518H19.836H41.8395V41.2185H5.10838V19.7891C6.37375 19.7891 17.1178 19.7891 18.6995 19.7891V37.7036V37.727C18.6878 38.348 19.1916 38.8518 19.8125 38.8518ZM5.10838 18.0316V15.9813C5.10838 15.9344 5.14353 15.8992 5.19039 15.8992H7.62742V18.0316H5.10838ZM9.38488 18.0316V15.8992H18.6878V18.0316H9.38488ZM1.76919 13.099C1.76919 12.6889 2.10896 12.3492 2.51904 12.3492H18.6995V14.1418C12.3374 14.1418 11.693 14.1418 5.20211 14.1418C4.18278 14.1418 3.36262 14.9736 3.36262 15.9813C3.36262 17.6098 3.36262 40.4804 3.36262 41.2185H1.76919V13.099ZM26.8424 54.5518H19.6837V50.744H26.8424V54.5518ZM45.1787 48.2484C45.1787 48.6585 44.8389 48.9982 44.4288 48.9982C43.7844 48.9982 3.16344 48.9982 2.50732 48.9982C2.48389 48.9982 2.46046 48.9982 2.42531 48.9982C2.05038 48.9631 1.75747 48.6467 1.75747 48.2601V42.9994C2.29643 42.9994 44.6397 42.9994 45.1787 42.9994V48.2484ZM43.597 41.2185V38.8518H45.1787V41.2185H43.597ZM48.7053 37.0943C47.6274 37.0943 21.57 37.0943 20.4452 37.0943V19.5313H48.7053V37.0943ZM48.7053 17.3989L37.1412 13.1927L48.7053 8.98653V17.3989Z" fill="#48588C"/>
</svg>
