<svg width="25" height="25" viewBox="0 0 25 25" fill="none" xmlns="http://www.w3.org/2000/svg">
<path d="M16.3574 8.54492L10.9375 14.0137L8.59375 11.6699C8.10547 11.2305 7.37305 11.2305 6.93359 11.6699C6.44531 12.1582 6.44531 12.8906 6.93359 13.3301L10.0586 16.4551C10.3027 16.6992 10.5957 16.7969 10.9375 16.7969C11.2305 16.7969 11.5234 16.6992 11.7188 16.4551L17.9688 10.2051C18.457 9.76562 18.457 9.0332 17.9688 8.59375C17.5293 8.10547 16.7969 8.10547 16.3574 8.54492ZM12.5 0C5.56641 0 0 5.61523 0 12.5C0 19.4336 5.56641 25 12.5 25C19.3848 25 25 19.4336 25 12.5C25 5.61523 19.3848 0 12.5 0ZM12.5 22.6562C6.88477 22.6562 2.34375 18.1152 2.34375 12.5C2.34375 6.93359 6.88477 2.34375 12.5 2.34375C18.0664 2.34375 22.6562 6.93359 22.6562 12.5C22.6562 18.1152 18.0664 22.6562 12.5 22.6562Z" fill="#0089FF"/>
</svg>
