<svg width="20" height="15" viewBox="0 0 20 15" fill="none" xmlns="http://www.w3.org/2000/svg">
<path fill-rule="evenodd" clip-rule="evenodd" d="M1.78395 7.5C1.87503 7.65739 1.99577 7.85796 2.14535 8.08956C2.52953 8.68443 3.09847 9.4755 3.83711 10.2634C5.3296 11.8554 7.41626 13.3333 10 13.3333C12.5837 13.3333 14.6704 11.8554 16.1629 10.2634C16.9015 9.4755 17.4705 8.68443 17.8547 8.08956C18.0042 7.85796 18.125 7.65739 18.216 7.5C18.125 7.34261 18.0042 7.14204 17.8547 6.91044C17.4705 6.31557 16.9015 5.5245 16.1629 4.73662C14.6704 3.14463 12.5837 1.66667 10 1.66667C7.41626 1.66667 5.3296 3.14463 3.83711 4.73662C3.09847 5.5245 2.52953 6.31557 2.14535 6.91044C1.99577 7.14204 1.87503 7.34261 1.78395 7.5ZM19.1667 7.5C19.912 7.12732 19.9119 7.12704 19.9117 7.12673L19.9104 7.12406L19.9075 7.11837L19.8981 7.09985C19.8901 7.08439 19.8789 7.06276 19.8644 7.03537C19.8354 6.98058 19.7933 6.90269 19.7384 6.80499C19.6285 6.6097 19.4668 6.3346 19.2547 6.00623C18.8316 5.35109 18.2026 4.4755 17.3788 3.59672C15.7463 1.85537 13.2496 0 10 0C6.75041 0 4.25373 1.85537 2.62122 3.59672C1.79736 4.4755 1.16839 5.35109 0.74528 6.00623C0.533208 6.3346 0.371493 6.6097 0.261643 6.80499C0.206686 6.90269 0.164617 6.98058 0.135628 7.03537C0.121131 7.06276 0.109896 7.08439 0.101948 7.09985L0.0924917 7.11837L0.0896158 7.12406L0.0886417 7.126C0.0884886 7.1263 0.0879773 7.12732 0.833333 7.5L0.0879773 7.12732C-0.0293258 7.36193 -0.0293258 7.63807 0.0879773 7.87268L0.833333 7.5C0.0879773 7.87268 0.0878242 7.87237 0.0879773 7.87268L0.0896158 7.87594L0.0924917 7.88163L0.101948 7.90015C0.109896 7.91561 0.121131 7.93724 0.135628 7.96463C0.164617 8.01942 0.206686 8.09731 0.261643 8.19501C0.371493 8.3903 0.533208 8.6654 0.74528 8.99377C1.16839 9.64891 1.79736 10.5245 2.62122 11.4033C4.25373 13.1446 6.75041 15 10 15C13.2496 15 15.7463 13.1446 17.3788 11.4033C18.2026 10.5245 18.8316 9.64891 19.2547 8.99377C19.4668 8.6654 19.6285 8.3903 19.7384 8.19501C19.7933 8.09731 19.8354 8.01942 19.8644 7.96463C19.8789 7.93724 19.8901 7.91561 19.8981 7.90015L19.9075 7.88163L19.9104 7.87594L19.9114 7.874C19.9115 7.8737 19.912 7.87268 19.1667 7.5ZM19.1667 7.5L19.912 7.87268C20.0293 7.63807 20.029 7.36134 19.9117 7.12673L19.1667 7.5Z" fill="#0089FF"/>
<path fill-rule="evenodd" clip-rule="evenodd" d="M9.99935 5.83268C9.07887 5.83268 8.33268 6.57887 8.33268 7.49935C8.33268 8.41982 9.07887 9.16602 9.99935 9.16602C10.9198 9.16602 11.666 8.41982 11.666 7.49935C11.666 6.57887 10.9198 5.83268 9.99935 5.83268ZM6.66602 7.49935C6.66602 5.6584 8.1584 4.16602 9.99935 4.16602C11.8403 4.16602 13.3327 5.6584 13.3327 7.49935C13.3327 9.3403 11.8403 10.8327 9.99935 10.8327C8.1584 10.8327 6.66602 9.3403 6.66602 7.49935Z" fill="#0089FF"/>
</svg>
