<svg width="17" height="20" viewBox="0 0 17 20" fill="none" xmlns="http://www.w3.org/2000/svg">
<path fill-rule="evenodd" clip-rule="evenodd" d="M0.7988 0.7988C1.31026 0.287337 2.00396 0 2.72727 0H9.09091C9.33202 0 9.56325 0.0957789 9.73373 0.266267L16.0974 6.6299C16.2679 6.80039 16.3636 7.03162 16.3636 7.27273V17.2727C16.3636 17.996 16.0763 18.6897 15.5648 19.2012C15.0534 19.7127 14.3597 20 13.6364 20H2.72727C2.00395 20 1.31026 19.7127 0.7988 19.2012C0.287337 18.6897 0 17.996 0 17.2727V2.72727C0 2.00396 0.287337 1.31026 0.7988 0.7988ZM2.72727 1.81818C2.48617 1.81818 2.25494 1.91396 2.08445 2.08445C1.91396 2.25494 1.81818 2.48617 1.81818 2.72727V17.2727C1.81818 17.5138 1.91396 17.7451 2.08445 17.9156C2.25494 18.086 2.48617 18.1818 2.72727 18.1818H13.6364C13.8775 18.1818 14.1087 18.086 14.2792 17.9156C14.4497 17.7451 14.5455 17.5138 14.5455 17.2727V7.64928L8.71435 1.81818H2.72727Z" fill="#0089FF"/>
<path fill-rule="evenodd" clip-rule="evenodd" d="M9.09073 0C9.59281 0 9.99982 0.407014 9.99982 0.909091V6.36364H15.4544C15.9564 6.36364 16.3635 6.77065 16.3635 7.27273C16.3635 7.7748 15.9564 8.18182 15.4544 8.18182H9.09073C8.58865 8.18182 8.18164 7.7748 8.18164 7.27273V0.909091C8.18164 0.407014 8.58865 0 9.09073 0Z" fill="#0089FF"/>
</svg>
