<svg width="60" height="60" viewBox="0 0 60 60" fill="none" xmlns="http://www.w3.org/2000/svg">
<g clip-path="url(#clip0_64_627)">
<path d="M55 0H13C10.24 0.0035 8.0035 2.24 8 5V21H10V5C10 3.3435 11.3435 2 13 2H55C56.6565 2 58 3.3435 58 5V36C58 37.6565 56.6565 39 55 39H42V41H55C57.76 40.9965 59.9965 38.76 60 36V5C59.9965 2.24 57.76 0.0035 55 0Z" fill="#48588C"/>
<path d="M12 4H14V6H12V4Z" fill="#48588C"/>
<path d="M16 4H18V6H16V4Z" fill="#48588C"/>
<path d="M20 4H22V6H20V4Z" fill="#48588C"/>
<path d="M12 8H56V10H12V8Z" fill="#48588C"/>
<path d="M12 12H22V14H12V12Z" fill="#48588C"/>
<path d="M12 16H18V18H12V16Z" fill="#48588C"/>
<path d="M29 19V17C29 16.4475 28.5525 16 28 16H24C23.4475 16 23 16.4475 23 17V18H27V19H29Z" fill="#48588C"/>
<path d="M37 24V14C37 13.4475 36.5525 13 36 13H32C31.4475 13 31 13.4475 31 14V21H33V15H35V24H37Z" fill="#48588C"/>
<path d="M43 34H42V36H56V34H53V14C53 13.4475 52.5525 13 52 13H48C47.4475 13 47 13.4475 47 14V34H45V21C45 20.4475 44.5525 20 44 20H40C39.4475 20 39 20.4475 39 21V30H41V22H43V34ZM49 15H51V34H49V15Z" fill="#48588C"/>
<path d="M20 20C8.95375 20 0 28.9538 0 40C0 51.0463 8.95375 60 20 60C31.0463 60 40 51.0463 40 40C39.9875 28.9595 31.0405 20.0125 20 20ZM20 58C10.248 58.0078 2.263 50.2485 1.99225 40.5C1.72125 30.752 9.2625 22.561 19 22.027V40C19 40.0213 19.0113 40.04 19.0123 40.0623C19.0175 40.1503 19.035 40.2375 19.064 40.3205C19.0705 40.3405 19.064 40.3653 19.078 40.3848C19.0845 40.397 19.0913 40.4088 19.0995 40.42C19.1463 40.5235 19.2095 40.6188 19.288 40.7013L19.2938 40.7078L32 53.415C28.707 56.3785 24.43 58.0125 20 58ZM33.415 52L22.415 41H37.973C37.7578 45.0805 36.1488 48.963 33.415 52ZM21 39V22.027C30.1495 22.5485 37.4515 29.8505 37.973 39H21Z" fill="#48588C"/>
</g>
<defs>
<clipPath id="clip0_64_627">
<rect width="60" height="60" fill="white"/>
</clipPath>
</defs>
</svg>
