<svg width="60" height="60" viewBox="0 0 60 60" fill="none" xmlns="http://www.w3.org/2000/svg">
<path d="M51.5625 12.1875H46.875V5.625C46.875 3.04031 44.7722 0.9375 42.1875 0.9375H10.3125C7.72781 0.9375 5.625 3.04031 5.625 5.625V10.3125H13.125V12.1875H8.4375C5.85281 12.1875 3.75 14.2903 3.75 16.875V45C3.75 47.5847 5.85281 49.6875 8.4375 49.6875H21.9206L20.0456 53.4375H16.875C15.3244 53.4375 14.0625 54.6994 14.0625 56.25C14.0625 57.8006 15.3244 59.0625 16.875 59.0625H43.125C44.6756 59.0625 45.9375 57.8006 45.9375 56.25C45.9375 54.6994 44.6756 53.4375 43.125 53.4375H39.9544L38.0794 49.6875H42.1875H47.8125H51.5625C54.1472 49.6875 56.25 47.5847 56.25 45V16.875C56.25 14.2903 54.1472 12.1875 51.5625 12.1875ZM45 37.7859V40.3125H42.4734C43.455 39.6225 44.31 38.7675 45 37.7859ZM36.5625 40.3125C31.9106 40.3125 28.125 36.5269 28.125 31.875C28.125 27.2231 31.9106 23.4375 36.5625 23.4375C41.2144 23.4375 45 27.2231 45 31.875C45 36.5269 41.2144 40.3125 36.5625 40.3125ZM46.875 17.8125H50.625V40.3125H46.875V17.8125ZM45 5.625V25.9641C43.1325 23.3072 40.05 21.5625 36.5625 21.5625C30.8766 21.5625 26.25 26.1891 26.25 31.875C26.25 35.3625 27.9947 38.445 30.6516 40.3125H15V5.625C15 4.56562 14.6334 3.59812 14.0381 2.8125H42.1875C43.7381 2.8125 45 4.07437 45 5.625ZM13.125 40.3125H9.375V17.8125H13.125V40.3125ZM7.5 8.4375V5.625C7.5 4.07437 8.76188 2.8125 10.3125 2.8125C11.8631 2.8125 13.125 4.07437 13.125 5.625V8.4375H7.5ZM44.0625 56.25C44.0625 56.7666 43.6416 57.1875 43.125 57.1875H16.875C16.3584 57.1875 15.9375 56.7666 15.9375 56.25C15.9375 55.7334 16.3584 55.3125 16.875 55.3125H43.125C43.6416 55.3125 44.0625 55.7334 44.0625 56.25ZM37.8581 53.4375H22.1419L24.0169 49.6875H35.9831L37.8581 53.4375ZM42.1875 47.8125C41.6709 47.8125 41.25 47.3916 41.25 46.875C41.25 46.3584 41.6709 45.9375 42.1875 45.9375H47.8125C48.3291 45.9375 48.75 46.3584 48.75 46.875C48.75 47.3916 48.3291 47.8125 47.8125 47.8125H42.1875ZM54.375 45C54.375 46.5506 53.1131 47.8125 51.5625 47.8125H50.4525C50.5575 47.5181 50.625 47.205 50.625 46.875C50.625 45.3244 49.3631 44.0625 47.8125 44.0625H42.1875C40.6369 44.0625 39.375 45.3244 39.375 46.875C39.375 47.205 39.4425 47.5181 39.5475 47.8125H8.4375C6.88687 47.8125 5.625 46.5506 5.625 45V16.875C5.625 15.3244 6.88687 14.0625 8.4375 14.0625H13.125V15.9375H9.375C8.34094 15.9375 7.5 16.7784 7.5 17.8125V40.3125C7.5 41.3466 8.34094 42.1875 9.375 42.1875H50.625C51.6591 42.1875 52.5 41.3466 52.5 40.3125V17.8125C52.5 16.7784 51.6591 15.9375 50.625 15.9375H46.875V14.0625H51.5625C53.1131 14.0625 54.375 15.3244 54.375 16.875V45Z" fill="#48588C"/>
<path d="M9.375 44.0625H11.25V45.9375H9.375V44.0625Z" fill="#48588C"/>
<path d="M13.125 44.0625H15V45.9375H13.125V44.0625Z" fill="#48588C"/>
<path d="M16.875 44.0625H18.75V45.9375H16.875V44.0625Z" fill="#48588C"/>
<path d="M36.5625 29.0625C37.0791 29.0625 37.5 29.4834 37.5 30H39.375C39.375 28.7794 38.5884 27.7481 37.5 27.36V25.3125H35.625V27.1875H33.75V30C33.75 31.5506 35.0119 32.8125 36.5625 32.8125C37.0791 32.8125 37.5 33.2334 37.5 33.75V34.6875H36.5625C36.0459 34.6875 35.625 34.2666 35.625 33.75H33.75C33.75 34.9706 34.5366 36.0019 35.625 36.39V38.4375H37.5V36.5625H39.375V33.75C39.375 32.1994 38.1131 30.9375 36.5625 30.9375C36.0459 30.9375 35.625 30.5166 35.625 30V29.0625H36.5625Z" fill="#48588C"/>
<path d="M30.9375 32.8125C31.4553 32.8125 31.875 32.3928 31.875 31.875C31.875 31.3572 31.4553 30.9375 30.9375 30.9375C30.4197 30.9375 30 31.3572 30 31.875C30 32.3928 30.4197 32.8125 30.9375 32.8125Z" fill="#48588C"/>
<path d="M42.1875 32.8125C42.7053 32.8125 43.125 32.3928 43.125 31.875C43.125 31.3572 42.7053 30.9375 42.1875 30.9375C41.6697 30.9375 41.25 31.3572 41.25 31.875C41.25 32.3928 41.6697 32.8125 42.1875 32.8125Z" fill="#48588C"/>
<path d="M43.125 4.6875H37.5V17.8125H35.625V8.4375H30V17.8125H28.125V12.1875H22.5V19.6875H43.125V4.6875ZM26.25 17.8125H24.375V14.0625H26.25V17.8125ZM31.875 10.3125H33.75V17.8125H31.875V10.3125ZM41.25 17.8125H39.375V6.5625H41.25V17.8125Z" fill="#48588C"/>
<path d="M16.875 36.5625H24.375V38.4375H16.875V36.5625Z" fill="#48588C"/>
<path d="M16.875 32.8125H24.375V34.6875H16.875V32.8125Z" fill="#48588C"/>
<path d="M16.875 29.0625H24.375V30.9375H16.875V29.0625Z" fill="#48588C"/>
<path d="M16.875 25.3125H24.375V27.1875H16.875V25.3125Z" fill="#48588C"/>
<path d="M16.875 21.5625H24.375V23.4375H16.875V21.5625Z" fill="#48588C"/>
<path d="M16.875 4.6875H18.75V6.5625H16.875V4.6875Z" fill="#48588C"/>
<path d="M16.875 8.4375H18.75V10.3125H16.875V8.4375Z" fill="#48588C"/>
<path d="M16.875 12.1875H18.75V14.0625H16.875V12.1875Z" fill="#48588C"/>
</svg>
