<svg width="105" height="16" viewBox="0 0 105 16" fill="none" xmlns="http://www.w3.org/2000/svg">
<path d="M0.761719 10.3613H4.00391C4.00391 11.123 4.21224 11.7188 4.62891 12.1484C5.05208 12.5716 5.58268 12.7832 6.2207 12.7832C6.76758 12.7832 7.21354 12.6335 7.55859 12.334C7.90365 12.0345 8.07617 11.6374 8.07617 11.1426C8.07617 10.8626 8.02083 10.625 7.91016 10.4297C7.79948 10.2344 7.64648 10.0651 7.45117 9.92188C7.25586 9.77214 7.02474 9.64193 6.75781 9.53125C6.49089 9.41406 6.20443 9.29688 5.89844 9.17969C5.27344 8.95182 4.67773 8.71745 4.11133 8.47656C3.54492 8.23568 3.04036 7.94922 2.59766 7.61719C2.16146 7.28516 1.81315 6.88802 1.55273 6.42578C1.29232 5.95703 1.16211 5.38086 1.16211 4.69727C1.16211 4.00716 1.29883 3.40495 1.57227 2.89062C1.8457 2.3763 2.20703 1.95312 2.65625 1.62109C3.11198 1.28906 3.63932 1.04492 4.23828 0.888672C4.83724 0.725911 5.45898 0.644531 6.10352 0.644531C6.91732 0.644531 7.63346 0.764974 8.25195 1.00586C8.87044 1.24023 9.38802 1.56576 9.80469 1.98242C10.2279 2.39258 10.5436 2.86458 10.752 3.39844C10.9603 3.93229 11.0645 4.4987 11.0645 5.09766H7.82227C7.82227 4.47266 7.67253 3.98112 7.37305 3.62305C7.07357 3.25846 6.63737 3.07617 6.06445 3.07617C5.60872 3.07617 5.21484 3.19661 4.88281 3.4375C4.55078 3.67839 4.38477 4.0332 4.38477 4.50195C4.38477 4.95768 4.55729 5.32552 4.90234 5.60547C5.2474 5.87891 5.73893 6.12956 6.37695 6.35742C6.98893 6.57227 7.59115 6.80013 8.18359 7.04102C8.78255 7.2819 9.3099 7.57161 9.76562 7.91016C10.2279 8.2487 10.599 8.66211 10.8789 9.15039C11.1589 9.63867 11.2988 10.2409 11.2988 10.957C11.2988 11.6341 11.1686 12.2493 10.9082 12.8027C10.6478 13.3496 10.2865 13.8118 9.82422 14.1895C9.36849 14.5671 8.82161 14.8568 8.18359 15.0586C7.55208 15.2604 6.86523 15.3613 6.12305 15.3613C5.33529 15.3613 4.61263 15.2507 3.95508 15.0293C3.30404 14.8079 2.74089 14.4857 2.26562 14.0625C1.79688 13.6328 1.42904 13.1087 1.16211 12.4902C0.895182 11.8717 0.761719 11.1621 0.761719 10.3613ZM12.4121 7.63672V5.36133H13.9258V2.5H16.9727V5.36133H19.1699V7.63672H16.9727V11.084C16.9727 11.4421 17.0052 11.7285 17.0703 11.9434C17.1354 12.1517 17.2266 12.3177 17.3438 12.4414C17.4674 12.5586 17.6139 12.6367 17.7832 12.6758C17.959 12.7083 18.1543 12.7246 18.3691 12.7246C18.4993 12.7246 18.6654 12.7214 18.8672 12.7148C19.069 12.7018 19.2448 12.6823 19.3945 12.6562V15C19.1667 15.0391 18.8802 15.0749 18.5352 15.1074C18.1966 15.14 17.7962 15.1562 17.334 15.1562C16.9759 15.1562 16.5983 15.1302 16.2012 15.0781C15.804 15.026 15.4362 14.8893 15.0977 14.668C14.7591 14.4466 14.4792 14.1081 14.2578 13.6523C14.0365 13.1901 13.9258 12.5586 13.9258 11.7578V7.63672H12.4121ZM21.0254 15V5.36133H24.082V6.92383C24.3099 6.4681 24.6875 6.06771 25.2148 5.72266C25.7422 5.37109 26.3607 5.19531 27.0703 5.19531C27.4023 5.19531 27.6953 5.25065 27.9492 5.36133V8.14453C27.7344 8.09245 27.5521 8.05664 27.4023 8.03711C27.2591 8.01107 27.0931 7.99805 26.9043 7.99805C26.0384 7.99805 25.3516 8.24219 24.8438 8.73047C24.3359 9.21875 24.082 10.0553 24.082 11.2402V15H21.0254ZM28.5938 10.1758C28.5938 9.46615 28.7012 8.80534 28.916 8.19336C29.1374 7.58138 29.4629 7.04753 29.8926 6.5918C30.3288 6.12956 30.8594 5.76497 31.4844 5.49805C32.1159 5.23112 32.8385 5.09766 33.6523 5.09766C34.4271 5.09766 35.1237 5.2181 35.7422 5.45898C36.3607 5.69987 36.8848 6.0319 37.3145 6.45508C37.7507 6.87174 38.0859 7.36979 38.3203 7.94922C38.5547 8.52865 38.6719 9.15365 38.6719 9.82422C38.6719 10.013 38.6654 10.1758 38.6523 10.3125C38.6393 10.4492 38.6133 10.651 38.5742 10.918H31.6699C31.6699 11.2109 31.7057 11.4876 31.7773 11.748C31.8555 12.0085 31.9727 12.2363 32.1289 12.4316C32.2917 12.627 32.5065 12.7799 32.7734 12.8906C33.0404 13.0013 33.3659 13.0566 33.75 13.0566C34.2969 13.0566 34.707 12.9525 34.9805 12.7441C35.2539 12.5293 35.4427 12.2689 35.5469 11.9629H38.5547C38.4766 12.4186 38.3105 12.8451 38.0566 13.2422C37.8092 13.6393 37.487 13.9876 37.0898 14.2871C36.6927 14.5866 36.2174 14.8242 35.6641 15C35.1107 15.1758 34.4857 15.2637 33.7891 15.2637C32.9492 15.2637 32.2038 15.1335 31.5527 14.873C30.9082 14.6126 30.3646 14.2513 29.9219 13.7891C29.4857 13.3268 29.1536 12.7865 28.9258 12.168C28.7044 11.5495 28.5938 10.8854 28.5938 10.1758ZM31.6699 9.16016H35.6738C35.6738 8.57422 35.4883 8.11198 35.1172 7.77344C34.7526 7.42839 34.2708 7.25586 33.6719 7.25586C33.099 7.25586 32.6204 7.42188 32.2363 7.75391C31.8587 8.07943 31.6699 8.54818 31.6699 9.16016ZM40.1562 10.1758C40.1562 9.45312 40.2702 8.78255 40.498 8.16406C40.7324 7.54557 41.0547 7.01497 41.4648 6.57227C41.8815 6.12305 42.3665 5.76823 42.9199 5.50781C43.4733 5.2474 44.0723 5.11719 44.7168 5.11719C45.4395 5.11719 46.0645 5.27018 46.5918 5.57617C47.1257 5.88216 47.526 6.26953 47.793 6.73828V5.36133H50.8496V15H47.793V13.6426C47.5521 14.0853 47.1647 14.4629 46.6309 14.7754C46.097 15.0879 45.459 15.2441 44.7168 15.2441C44.0788 15.2441 43.4798 15.1139 42.9199 14.8535C42.3665 14.5931 41.8815 14.2383 41.4648 13.7891C41.0547 13.3398 40.7324 12.806 40.498 12.1875C40.2702 11.569 40.1562 10.8984 40.1562 10.1758ZM43.1934 10.1758C43.1934 10.5078 43.2487 10.8268 43.3594 11.1328C43.4766 11.4323 43.6328 11.6927 43.8281 11.9141C44.0299 12.1289 44.2708 12.3047 44.5508 12.4414C44.8307 12.5716 45.1432 12.6367 45.4883 12.6367C45.8333 12.6367 46.1458 12.5716 46.4258 12.4414C46.7122 12.3047 46.9531 12.1289 47.1484 11.9141C47.3503 11.6927 47.5065 11.4323 47.6172 11.1328C47.7344 10.8333 47.793 10.5143 47.793 10.1758C47.793 9.84375 47.7344 9.53125 47.6172 9.23828C47.5065 8.94531 47.3503 8.6849 47.1484 8.45703C46.9531 8.22917 46.7155 8.05013 46.4355 7.91992C46.1556 7.78971 45.8398 7.72461 45.4883 7.72461C45.1432 7.72461 44.8307 7.78971 44.5508 7.91992C44.2708 8.05013 44.0299 8.22917 43.8281 8.45703C43.6328 8.6849 43.4766 8.94531 43.3594 9.23828C43.2487 9.53125 43.1934 9.84375 43.1934 10.1758ZM53.4473 15V5.36133H56.4062V6.75781C56.6211 6.32812 56.9564 5.94727 57.4121 5.61523C57.8743 5.2832 58.4928 5.11719 59.2676 5.11719C59.9902 5.11719 60.5892 5.27669 61.0645 5.5957C61.5462 5.9082 61.8945 6.32812 62.1094 6.85547C62.2266 6.6276 62.3763 6.40951 62.5586 6.20117C62.7409 5.98633 62.9557 5.80078 63.2031 5.64453C63.457 5.48177 63.7533 5.35482 64.0918 5.26367C64.4368 5.16602 64.821 5.11719 65.2441 5.11719C65.9082 5.11719 66.4551 5.23112 66.8848 5.45898C67.3145 5.68685 67.6497 5.98958 67.8906 6.36719C68.1315 6.73828 68.2943 7.16146 68.3789 7.63672C68.4635 8.10547 68.5059 8.58073 68.5059 9.0625V15H65.5664V9.80469C65.5664 9.15365 65.4492 8.64583 65.2148 8.28125C64.987 7.91016 64.6126 7.72461 64.0918 7.72461C63.8639 7.72461 63.6491 7.76367 63.4473 7.8418C63.2454 7.91992 63.0697 8.05339 62.9199 8.24219C62.7767 8.42448 62.666 8.67513 62.5879 8.99414C62.5098 9.30664 62.4707 9.69401 62.4707 10.1562V15H59.5117V9.77539C59.5117 9.12435 59.3978 8.61979 59.1699 8.26172C58.9421 7.90365 58.5677 7.72461 58.0469 7.72461C57.5781 7.72461 57.1875 7.90365 56.875 8.26172C56.5625 8.61979 56.4062 9.27409 56.4062 10.2246V15H53.4473ZM71.0059 15V0.996094H74.0625V15H71.0059ZM76.5918 2.1582C76.5918 1.61133 76.7773 1.15234 77.1484 0.78125C77.526 0.410156 77.9948 0.224609 78.5547 0.224609C78.8346 0.224609 79.0918 0.273438 79.3262 0.371094C79.5671 0.46875 79.7786 0.605469 79.9609 0.78125C80.1432 0.950521 80.2832 1.1556 80.3809 1.39648C80.4785 1.63737 80.5273 1.89128 80.5273 2.1582C80.5273 2.42513 80.4785 2.67578 80.3809 2.91016C80.2832 3.14453 80.1432 3.35286 79.9609 3.53516C79.7786 3.71094 79.5671 3.85091 79.3262 3.95508C79.0918 4.05273 78.8346 4.10156 78.5547 4.10156C78.2747 4.10156 78.0176 4.05273 77.7832 3.95508C77.5488 3.85091 77.3405 3.71094 77.1582 3.53516C76.9824 3.35286 76.8424 3.14453 76.7383 2.91016C76.6406 2.67578 76.5918 2.42513 76.5918 2.1582ZM77.0312 15V5.36133H80.0879V15H77.0312ZM83.0566 15V5.36133H86.1133V6.75781C86.3802 6.23698 86.7871 5.83333 87.334 5.54688C87.8809 5.26042 88.5352 5.11719 89.2969 5.11719C89.9609 5.11719 90.5078 5.22135 90.9375 5.42969C91.3672 5.63802 91.7155 5.90169 91.9824 6.2207C92.2884 6.5918 92.4902 7.02148 92.5879 7.50977C92.6855 7.99805 92.7344 8.58724 92.7344 9.27734V15H89.6777V10.0586C89.6777 9.38151 89.554 8.82487 89.3066 8.38867C89.0592 7.94596 88.623 7.72461 87.998 7.72461C87.36 7.72461 86.8848 7.94596 86.5723 8.38867C86.2663 8.82487 86.1133 9.41406 86.1133 10.1562V15H83.0566ZM94.5898 10.1758C94.5898 9.46615 94.6973 8.80534 94.9121 8.19336C95.1335 7.58138 95.459 7.04753 95.8887 6.5918C96.3249 6.12956 96.8555 5.76497 97.4805 5.49805C98.112 5.23112 98.8346 5.09766 99.6484 5.09766C100.423 5.09766 101.12 5.2181 101.738 5.45898C102.357 5.69987 102.881 6.0319 103.311 6.45508C103.747 6.87174 104.082 7.36979 104.316 7.94922C104.551 8.52865 104.668 9.15365 104.668 9.82422C104.668 10.013 104.661 10.1758 104.648 10.3125C104.635 10.4492 104.609 10.651 104.57 10.918H97.666C97.666 11.2109 97.7018 11.4876 97.7734 11.748C97.8516 12.0085 97.9688 12.2363 98.125 12.4316C98.2878 12.627 98.5026 12.7799 98.7695 12.8906C99.0365 13.0013 99.362 13.0566 99.7461 13.0566C100.293 13.0566 100.703 12.9525 100.977 12.7441C101.25 12.5293 101.439 12.2689 101.543 11.9629H104.551C104.473 12.4186 104.307 12.8451 104.053 13.2422C103.805 13.6393 103.483 13.9876 103.086 14.2871C102.689 14.5866 102.214 14.8242 101.66 15C101.107 15.1758 100.482 15.2637 99.7852 15.2637C98.9453 15.2637 98.1999 15.1335 97.5488 14.873C96.9043 14.6126 96.3607 14.2513 95.918 13.7891C95.4818 13.3268 95.1497 12.7865 94.9219 12.168C94.7005 11.5495 94.5898 10.8854 94.5898 10.1758ZM97.666 9.16016H101.67C101.67 8.57422 101.484 8.11198 101.113 7.77344C100.749 7.42839 100.267 7.25586 99.668 7.25586C99.0951 7.25586 98.6165 7.42188 98.2324 7.75391C97.8548 8.07943 97.666 8.54818 97.666 9.16016Z" fill="#0089FF"/>
</svg>
