<svg width="183" height="39" viewBox="0 0 183 39" fill="none" xmlns="http://www.w3.org/2000/svg">
<path d="M25.1426 23.042H30.0059C30.0059 24.1846 30.3184 25.0781 30.9434 25.7227C31.5781 26.3574 32.374 26.6748 33.3311 26.6748C34.1514 26.6748 34.8203 26.4502 35.3379 26.001C35.8555 25.5518 36.1143 24.9561 36.1143 24.2139C36.1143 23.7939 36.0312 23.4375 35.8652 23.1445C35.6992 22.8516 35.4697 22.5977 35.1768 22.3828C34.8838 22.1582 34.5371 21.9629 34.1367 21.7969C33.7363 21.6211 33.3066 21.4453 32.8477 21.2695C31.9102 20.9277 31.0166 20.5762 30.167 20.2148C29.3174 19.8535 28.5605 19.4238 27.8965 18.9258C27.2422 18.4277 26.7197 17.832 26.3291 17.1387C25.9385 16.4355 25.7432 15.5713 25.7432 14.5459C25.7432 13.5107 25.9482 12.6074 26.3584 11.8359C26.7686 11.0645 27.3105 10.4297 27.9844 9.93164C28.668 9.43359 29.459 9.06738 30.3574 8.83301C31.2559 8.58887 32.1885 8.4668 33.1553 8.4668C34.376 8.4668 35.4502 8.64746 36.3779 9.00879C37.3057 9.36035 38.082 9.84863 38.707 10.4736C39.3418 11.0889 39.8154 11.7969 40.1279 12.5977C40.4404 13.3984 40.5967 14.248 40.5967 15.1465H35.7334C35.7334 14.209 35.5088 13.4717 35.0596 12.9346C34.6104 12.3877 33.9561 12.1143 33.0967 12.1143C32.4131 12.1143 31.8223 12.2949 31.3242 12.6562C30.8262 13.0176 30.5771 13.5498 30.5771 14.2529C30.5771 14.9365 30.8359 15.4883 31.3535 15.9082C31.8711 16.3184 32.6084 16.6943 33.5654 17.0361C34.4834 17.3584 35.3867 17.7002 36.2754 18.0615C37.1738 18.4229 37.9648 18.8574 38.6484 19.3652C39.3418 19.873 39.8984 20.4932 40.3184 21.2256C40.7383 21.958 40.9482 22.8613 40.9482 23.9355C40.9482 24.9512 40.7529 25.874 40.3623 26.7041C39.9717 27.5244 39.4297 28.2178 38.7363 28.7842C38.0527 29.3506 37.2324 29.7852 36.2754 30.0879C35.3281 30.3906 34.2979 30.542 33.1846 30.542C32.0029 30.542 30.9189 30.376 29.9326 30.0439C28.9561 29.7119 28.1113 29.2285 27.3984 28.5938C26.6953 27.9492 26.1436 27.1631 25.7432 26.2354C25.3428 25.3076 25.1426 24.2432 25.1426 23.042ZM42.6182 18.9551V15.542H44.8887V11.25H49.459V15.542H52.7549V18.9551H49.459V24.126C49.459 24.6631 49.5078 25.0928 49.6055 25.415C49.7031 25.7275 49.8398 25.9766 50.0156 26.1621C50.2012 26.3379 50.4209 26.4551 50.6748 26.5137C50.9385 26.5625 51.2314 26.5869 51.5537 26.5869C51.749 26.5869 51.998 26.582 52.3008 26.5723C52.6035 26.5527 52.8672 26.5234 53.0918 26.4844V30C52.75 30.0586 52.3203 30.1123 51.8027 30.1611C51.2949 30.21 50.6943 30.2344 50.001 30.2344C49.4639 30.2344 48.8975 30.1953 48.3018 30.1172C47.7061 30.0391 47.1543 29.834 46.6465 29.502C46.1387 29.1699 45.7188 28.6621 45.3867 27.9785C45.0547 27.2852 44.8887 26.3379 44.8887 25.1367V18.9551H42.6182ZM55.5381 30V15.542H60.123V17.8857C60.4648 17.2021 61.0312 16.6016 61.8223 16.084C62.6133 15.5566 63.541 15.293 64.6055 15.293C65.1035 15.293 65.543 15.376 65.9238 15.542V19.7168C65.6016 19.6387 65.3281 19.585 65.1035 19.5557C64.8887 19.5166 64.6396 19.4971 64.3564 19.4971C63.0576 19.4971 62.0273 19.8633 61.2656 20.5957C60.5039 21.3281 60.123 22.583 60.123 24.3604V30H55.5381ZM66.8906 22.7637C66.8906 21.6992 67.0518 20.708 67.374 19.79C67.7061 18.8721 68.1943 18.0713 68.8389 17.3877C69.4932 16.6943 70.2891 16.1475 71.2266 15.7471C72.1738 15.3467 73.2578 15.1465 74.4785 15.1465C75.6406 15.1465 76.6855 15.3271 77.6133 15.6885C78.541 16.0498 79.3271 16.5479 79.9717 17.1826C80.626 17.8076 81.1289 18.5547 81.4805 19.4238C81.832 20.293 82.0078 21.2305 82.0078 22.2363C82.0078 22.5195 81.998 22.7637 81.9785 22.9688C81.959 23.1738 81.9199 23.4766 81.8613 23.877H71.5049C71.5049 24.3164 71.5586 24.7314 71.666 25.1221C71.7832 25.5127 71.959 25.8545 72.1934 26.1475C72.4375 26.4404 72.7598 26.6699 73.1602 26.8359C73.5605 27.002 74.0488 27.085 74.625 27.085C75.4453 27.085 76.0605 26.9287 76.4707 26.6162C76.8809 26.2939 77.1641 25.9033 77.3203 25.4443H81.832C81.7148 26.1279 81.4658 26.7676 81.085 27.3633C80.7139 27.959 80.2305 28.4814 79.6348 28.9307C79.0391 29.3799 78.3262 29.7363 77.4961 30C76.666 30.2637 75.7285 30.3955 74.6836 30.3955C73.4238 30.3955 72.3057 30.2002 71.3291 29.8096C70.3623 29.4189 69.5469 28.877 68.8828 28.1836C68.2285 27.4902 67.7305 26.6797 67.3887 25.752C67.0566 24.8242 66.8906 23.8281 66.8906 22.7637ZM71.5049 21.2402H77.5107C77.5107 20.3613 77.2324 19.668 76.6758 19.1602C76.1289 18.6426 75.4062 18.3838 74.5078 18.3838C73.6484 18.3838 72.9307 18.6328 72.3545 19.1309C71.7881 19.6191 71.5049 20.3223 71.5049 21.2402ZM84.2344 22.7637C84.2344 21.6797 84.4053 20.6738 84.7471 19.7461C85.0986 18.8184 85.582 18.0225 86.1973 17.3584C86.8223 16.6846 87.5498 16.1523 88.3799 15.7617C89.21 15.3711 90.1084 15.1758 91.0752 15.1758C92.1592 15.1758 93.0967 15.4053 93.8877 15.8643C94.6885 16.3232 95.2891 16.9043 95.6895 17.6074V15.542H100.274V30H95.6895V27.9639C95.3281 28.6279 94.7471 29.1943 93.9463 29.6631C93.1455 30.1318 92.1885 30.3662 91.0752 30.3662C90.1182 30.3662 89.2197 30.1709 88.3799 29.7803C87.5498 29.3896 86.8223 28.8574 86.1973 28.1836C85.582 27.5098 85.0986 26.709 84.7471 25.7812C84.4053 24.8535 84.2344 23.8477 84.2344 22.7637ZM88.79 22.7637C88.79 23.2617 88.873 23.7402 89.0391 24.1992C89.2148 24.6484 89.4492 25.0391 89.7422 25.3711C90.0449 25.6934 90.4062 25.957 90.8262 26.1621C91.2461 26.3574 91.7148 26.4551 92.2324 26.4551C92.75 26.4551 93.2188 26.3574 93.6387 26.1621C94.0684 25.957 94.4297 25.6934 94.7227 25.3711C95.0254 25.0391 95.2598 24.6484 95.4258 24.1992C95.6016 23.75 95.6895 23.2715 95.6895 22.7637C95.6895 22.2656 95.6016 21.7969 95.4258 21.3574C95.2598 20.918 95.0254 20.5273 94.7227 20.1855C94.4297 19.8438 94.0732 19.5752 93.6533 19.3799C93.2334 19.1846 92.7598 19.0869 92.2324 19.0869C91.7148 19.0869 91.2461 19.1846 90.8262 19.3799C90.4062 19.5752 90.0449 19.8438 89.7422 20.1855C89.4492 20.5273 89.2148 20.918 89.0391 21.3574C88.873 21.7969 88.79 22.2656 88.79 22.7637ZM104.171 30V15.542H108.609V17.6367C108.932 16.9922 109.435 16.4209 110.118 15.9229C110.812 15.4248 111.739 15.1758 112.901 15.1758C113.985 15.1758 114.884 15.415 115.597 15.8936C116.319 16.3623 116.842 16.9922 117.164 17.7832C117.34 17.4414 117.564 17.1143 117.838 16.8018C118.111 16.4795 118.434 16.2012 118.805 15.9668C119.186 15.7227 119.63 15.5322 120.138 15.3955C120.655 15.249 121.231 15.1758 121.866 15.1758C122.862 15.1758 123.683 15.3467 124.327 15.6885C124.972 16.0303 125.475 16.4844 125.836 17.0508C126.197 17.6074 126.441 18.2422 126.568 18.9551C126.695 19.6582 126.759 20.3711 126.759 21.0938V30H122.35V22.207C122.35 21.2305 122.174 20.4688 121.822 19.9219C121.48 19.3652 120.919 19.0869 120.138 19.0869C119.796 19.0869 119.474 19.1455 119.171 19.2627C118.868 19.3799 118.604 19.5801 118.38 19.8633C118.165 20.1367 117.999 20.5127 117.882 20.9912C117.765 21.46 117.706 22.041 117.706 22.7344V30H113.268V22.1631C113.268 21.1865 113.097 20.4297 112.755 19.8926C112.413 19.3555 111.852 19.0869 111.07 19.0869C110.367 19.0869 109.781 19.3555 109.312 19.8926C108.844 20.4297 108.609 21.4111 108.609 22.8369V30H104.171ZM130.509 30V8.99414H135.094V30H130.509ZM138.888 10.7373C138.888 9.91699 139.166 9.22852 139.723 8.67188C140.289 8.11523 140.992 7.83691 141.832 7.83691C142.252 7.83691 142.638 7.91016 142.989 8.05664C143.351 8.20312 143.668 8.4082 143.941 8.67188C144.215 8.92578 144.425 9.2334 144.571 9.59473C144.718 9.95605 144.791 10.3369 144.791 10.7373C144.791 11.1377 144.718 11.5137 144.571 11.8652C144.425 12.2168 144.215 12.5293 143.941 12.8027C143.668 13.0664 143.351 13.2764 142.989 13.4326C142.638 13.5791 142.252 13.6523 141.832 13.6523C141.412 13.6523 141.026 13.5791 140.675 13.4326C140.323 13.2764 140.011 13.0664 139.737 12.8027C139.474 12.5293 139.264 12.2168 139.107 11.8652C138.961 11.5137 138.888 11.1377 138.888 10.7373ZM139.547 30V15.542H144.132V30H139.547ZM148.585 30V15.542H153.17V17.6367C153.57 16.8555 154.181 16.25 155.001 15.8203C155.821 15.3906 156.803 15.1758 157.945 15.1758C158.941 15.1758 159.762 15.332 160.406 15.6445C161.051 15.957 161.573 16.3525 161.974 16.8311C162.433 17.3877 162.735 18.0322 162.882 18.7646C163.028 19.4971 163.102 20.3809 163.102 21.416V30H158.517V22.5879C158.517 21.5723 158.331 20.7373 157.96 20.083C157.589 19.4189 156.935 19.0869 155.997 19.0869C155.04 19.0869 154.327 19.4189 153.858 20.083C153.399 20.7373 153.17 21.6211 153.17 22.7344V30H148.585ZM165.885 22.7637C165.885 21.6992 166.046 20.708 166.368 19.79C166.7 18.8721 167.188 18.0713 167.833 17.3877C168.487 16.6943 169.283 16.1475 170.221 15.7471C171.168 15.3467 172.252 15.1465 173.473 15.1465C174.635 15.1465 175.68 15.3271 176.607 15.6885C177.535 16.0498 178.321 16.5479 178.966 17.1826C179.62 17.8076 180.123 18.5547 180.475 19.4238C180.826 20.293 181.002 21.2305 181.002 22.2363C181.002 22.5195 180.992 22.7637 180.973 22.9688C180.953 23.1738 180.914 23.4766 180.855 23.877H170.499C170.499 24.3164 170.553 24.7314 170.66 25.1221C170.777 25.5127 170.953 25.8545 171.188 26.1475C171.432 26.4404 171.754 26.6699 172.154 26.8359C172.555 27.002 173.043 27.085 173.619 27.085C174.439 27.085 175.055 26.9287 175.465 26.6162C175.875 26.2939 176.158 25.9033 176.314 25.4443H180.826C180.709 26.1279 180.46 26.7676 180.079 27.3633C179.708 27.959 179.225 28.4814 178.629 28.9307C178.033 29.3799 177.32 29.7363 176.49 30C175.66 30.2637 174.723 30.3955 173.678 30.3955C172.418 30.3955 171.3 30.2002 170.323 29.8096C169.356 29.4189 168.541 28.877 167.877 28.1836C167.223 27.4902 166.725 26.6797 166.383 25.752C166.051 24.8242 165.885 23.8281 165.885 22.7637ZM170.499 21.2402H176.505C176.505 20.3613 176.227 19.668 175.67 19.1602C175.123 18.6426 174.4 18.3838 173.502 18.3838C172.643 18.3838 171.925 18.6328 171.349 19.1309C170.782 19.6191 170.499 20.3223 170.499 21.2402Z" fill="#0089FF"/>
<path fill-rule="evenodd" clip-rule="evenodd" d="M6 19C6 18.4477 6.44772 18 7 18L17 18C17.5523 18 18 18.4477 18 19C18 19.5523 17.5523 20 17 20L7 20C6.44772 20 6 19.5523 6 19Z" fill="#0089FF"/>
<path fill-rule="evenodd" clip-rule="evenodd" d="M-4.37114e-08 13C-6.78525e-08 12.4477 0.447715 12 1 12L17 12C17.5523 12 18 12.4477 18 13C18 13.5523 17.5523 14 17 14L1 14C0.447715 14 -1.95703e-08 13.5523 -4.37114e-08 13Z" fill="#0089FF"/>
<path fill-rule="evenodd" clip-rule="evenodd" d="M12 25C12 24.4477 12.4477 24 13 24L17 24C17.5523 24 18 24.4477 18 25C18 25.5523 17.5523 26 17 26L13 26C12.4477 26 12 25.5523 12 25Z" fill="#0089FF"/>
</svg>
