<svg width="84" height="36" viewBox="0 0 84 36" fill="none" xmlns="http://www.w3.org/2000/svg">
<path d="M0 35.2791L10.574 0.673388H20.3308L30.9048 35.2791H24.1759L14.7555 4.75878H16.0051L6.72888 35.2791H0ZM6.34437 28.0695V21.9655H24.6085V28.0695H6.34437Z" fill="#0D0F46"/>
<path d="M47.3466 36C44.7832 36 42.4682 35.5514 40.4014 34.6542C38.3507 33.741 36.6605 32.4433 35.3307 30.7611C34.017 29.0629 33.1839 27.0442 32.8314 24.7051L39.6565 23.6958C40.1371 25.6824 41.1304 27.2124 42.6364 28.2858C44.1424 29.3592 45.8566 29.8959 47.7792 29.8959C48.8526 29.8959 49.894 29.7277 50.9033 29.3913C51.9126 29.0548 52.7377 28.5582 53.3786 27.9013C54.0354 27.2444 54.3639 26.4354 54.3639 25.4741C54.3639 25.1216 54.3078 24.7852 54.1956 24.4648C54.0995 24.1283 53.9313 23.8159 53.691 23.5275C53.4507 23.2392 53.1062 22.9668 52.6576 22.7105C52.225 22.4541 51.6723 22.2218 50.9994 22.0135L42.0116 19.3701C41.3387 19.1778 40.5536 18.9054 39.6565 18.553C38.7753 18.2005 37.9182 17.6959 37.0851 17.039C36.252 16.3821 35.555 15.517 34.9943 14.4436C34.4496 13.3541 34.1772 11.9843 34.1772 10.3341C34.1772 8.01107 34.762 6.08052 35.9315 4.54249C37.1011 3.00446 38.6631 1.85895 40.6177 1.10596C42.5723 0.352965 44.7352 -0.0155212 47.1063 0.000500706C49.4934 0.0325426 51.6242 0.441081 53.4987 1.22612C55.3732 2.01115 56.9433 3.15666 58.2089 4.66265C59.4746 6.15262 60.3878 7.97903 60.9486 10.1419L53.8832 11.3435C53.6269 10.222 53.1543 9.27674 52.4654 8.50772C51.7764 7.73871 50.9514 7.15394 49.9901 6.75341C49.0448 6.35288 48.0515 6.1366 47.0102 6.10455C45.9848 6.07251 45.0155 6.2167 44.1023 6.53712C43.2051 6.84153 42.4682 7.29012 41.8914 7.8829C41.3307 8.47568 41.0503 9.18061 41.0503 9.99769C41.0503 10.7507 41.2826 11.3675 41.7472 11.8481C42.2118 12.3127 42.7966 12.6892 43.5015 12.9776C44.2065 13.266 44.9274 13.5063 45.6644 13.6986L51.6723 15.3327C52.5695 15.573 53.5628 15.8935 54.6522 16.294C55.7417 16.6785 56.7831 17.2232 57.7764 17.9282C58.7857 18.6171 59.6108 19.5303 60.2516 20.6678C60.9085 21.8053 61.2369 23.2472 61.2369 24.9935C61.2369 26.8519 60.8444 28.4781 60.0594 29.8719C59.2904 31.2497 58.249 32.3952 56.9353 33.3085C55.6215 34.2056 54.1316 34.8785 52.4654 35.3271C50.8152 35.7757 49.1089 36 47.3466 36Z" fill="#0D0F46"/>
<path d="M73.7766 36C71.021 36 68.746 35.2951 66.9516 33.8852C65.1732 32.4754 63.9076 30.5688 63.1546 28.1657L69.5951 26.6276C69.7393 27.5088 70.2039 28.2778 70.9889 28.9347C71.774 29.5755 72.6071 29.8959 73.4882 29.8959C74.097 29.8959 74.7459 29.7277 75.4348 29.3913C76.1397 29.0548 76.6444 28.5181 76.9488 27.7812C77.141 27.3165 77.2532 26.7478 77.2852 26.0749C77.3173 25.402 77.3333 24.625 77.3333 23.7438V0.673388H83.966V23.7438C83.966 24.8493 83.958 25.8106 83.942 26.6276C83.942 27.4447 83.8619 28.2137 83.7017 28.9347C83.5575 29.6396 83.2611 30.3766 82.8125 31.1456C81.8352 32.8438 80.5615 34.0775 78.9915 34.8465C77.4214 35.6155 75.6831 36 73.7766 36Z" fill="#0D0F46"/>
</svg>
